<?xml version="1.0" encoding="UTF-8"?>
<svg width="100px" height="100px" viewBox="0 0 100 100" version="1.1" xmlns="http://www.w3.org/2000/svg" xmlns:xlink="http://www.w3.org/1999/xlink">
    <!-- Generator: Sketch 52.6 (67491) - http://www.bohemiancoding.com/sketch -->
    <title>Group</title>
    <desc>Created with Sketch.</desc>
    <g id="Page-1" stroke="none" stroke-width="1" fill="none" fill-rule="evenodd">
        <g id="Group" transform="translate(1.000000, 1.000000)">
            <circle id="Oval" stroke="#FFF7F5" fill="#FFF7F5" cx="49" cy="49" r="49"></circle>
            <g id="logo" transform="translate(28.000000, 17.000000)" stroke="#000000">
                <path d="M1.53003206,65.6573339 C1.79344774,57.2757445 1.19127658,24.0903653 2.95149707,14.0739991 C4.71171757,4.05763284 9.11789092,7.77164025 12.091355,5.55913653 C15.0648191,3.34663281 17.4974685,1.33434323 20.7922817,0.798976755 C24.0870949,0.263610284 27.6985966,-1.31224844 31.8602342,2.3469377 C36.0218717,6.00612384 44.0807479,18.4398405 45.7621069,22.7540936 C47.4434659,27.0683467 44.1791762,26.5009291 41.9483882,28.2324562 C39.7176002,29.9639832 37.2784844,32.5525603 32.3773788,33.1432559 C27.4762732,33.7339514 15.7183536,31.9101312 12.5417546,31.7766294 M6.39488462e-14,64.6799101 C0.131578258,56.033809 0.0761345496,22.3495809 2.00617116,12.1870841 C3.93620778,2.02458738 8.37333615,5.47792838 11.5802197,3.70492956 C14.7871032,1.93193074 17.5317043,1.71857669 21.2474724,1.5490912 C24.9632405,1.37960572 30.0622234,-1.22609107 33.8748285,2.68801663 C37.6874335,6.60212433 42.6031792,20.4724964 44.1231029,25.0337374 C45.6430266,29.5949784 44.5897424,28.7030568 42.9943707,30.0554628 C41.398999,31.4078688 39.3922236,32.5636471 34.5508728,33.1481736 C29.709522,33.7327001 17.3864898,33.8046061 13.9462659,33.5626221" id="Shape"></path>
            </g>
        </g>
    </g>
</svg>