<svg version="1.1" xmlns="http://www.w3.org/2000/svg" viewBox="0 0 799.6670182597513 212.775390625" >
  <!-- svg-source:excalidraw -->
  
  <defs>
    <style>
      @font-face {
        font-family: "Virgil";
        src: url("https://excalidraw.com/Virgil.woff2");
      }
      @font-face {
        font-family: "Cascadia";
        src: url("https://excalidraw.com/Cascadia.woff2");
      }
    </style>
  </defs>
  <g stroke-linecap="round" transform="translate(10 15.068359375) rotate(0 69.65234375 93.853515625)"><path d="M1.65 -1.84 C47.29 -2.2, 94.47 -0.24, 139.19 -1.89 M0.3 -0.56 C36.37 -0.85, 73.56 -0.61, 139.49 0.99 M140.49 0.63 C142.4 59.18, 138.95 121.94, 141.06 187.83 M138.61 0.08 C141.39 52.51, 141.07 105.94, 139.93 187.38 M137.37 185.98 C92.77 186.72, 47.47 186.56, 0.72 188.99 M140.05 186.77 C92.79 188.02, 47.36 188.09, 0.04 187.61 M-1.86 187.28 C-2.98 114.83, -3.62 42.63, 0.69 1.52 M-0.47 188.59 C-0.25 112.19, -0.24 37.93, 0.55 0.25" stroke="#000000" stroke-width="1" fill="none"></path></g><g stroke-linecap="round" transform="translate(48.68359375 52.486328125) rotate(0 32.603515625 23.44921875)"><path d="M1.84 1.61 C23.92 0.29, 51.32 -0.3, 65.29 0.98 M0.24 0.32 C22.69 -1.02, 46.61 -0.87, 64.41 -0.79 M65.58 1.77 C66.99 13.87, 63.61 29.66, 63.58 45.21 M66.09 0.62 C64.23 14.04, 64.5 28.03, 64.23 46.3 M65.79 47.87 C42.43 49.31, 22.17 45.72, 0.62 45.82 M65.36 46.27 C42.87 47.57, 18.14 47.84, 0.28 47.24 M-1.96 48.47 C-0.87 35.74, 1.52 22.66, -1.22 -0.75 M-0.21 46.15 C0.51 33.49, -0.35 19.53, 0.29 -0.09" stroke="#000000" stroke-width="1" fill="none"></path></g><g stroke-linecap="round"><g transform="translate(48.15234375 51.701171875) rotate(0 32.30680636316538 23.469959817826748)"><path d="M1.73 -0.94 C22.87 17.13, 48.06 37.79, 64.53 47.25 M0.09 -0.5 C15.15 10.6, 29.85 21.75, 64.48 47.88" stroke="#000000" stroke-width="1" fill="none"></path></g></g><g stroke-linecap="round"><g transform="translate(48.890625 98.470703125) rotate(0 32.861927181482315 -22.65634624660015)"><path d="M-0.9 0.26 C19.83 -11.56, 40.07 -28.28, 66.62 -45.28 M-0.73 0.67 C23.99 -18.41, 48.14 -33.86, 65.76 -45.98" stroke="#000000" stroke-width="1" fill="none"></path></g></g><g stroke-linecap="round"><g transform="translate(31.3828125 126.458984375) rotate(0 43.455436788499355 2.1266042926534965)"><path d="M0.56 1.39 C19.86 1.04, 36.69 1.17, 87.14 3.64 M-0.23 0.85 C18.29 0.38, 35.19 0.56, 84.8 1.63" stroke="#000000" stroke-width="1" fill="none"></path></g></g><g stroke-linecap="round"><g transform="translate(34.75390625 142.763671875) rotate(0 23.508145608007908 -0.2459825649857521)"><path d="M0.37 -0.27 C11.26 -1.34, 21.2 0.96, 47.59 0.88 M-0.57 0.5 C10.89 -0.7, 23.82 -0.23, 46.66 -1.37" stroke="#000000" stroke-width="1" fill="none"></path></g></g><g stroke-linecap="round"><g transform="translate(36.03515625 153.634765625) rotate(0 19.530150927603245 -0.08892737535143169)"><path d="M-0.01 -1.77 C8.1 2.41, 19.78 0.09, 39.95 0.66 M-0.89 0.77 C10.95 1.78, 19.96 1.67, 38.29 1.46" stroke="#000000" stroke-width="1" fill="none"></path></g></g><g stroke-linecap="round" transform="translate(34.10546875 174.044921875) rotate(0 45.6953125 8.29296875)"><path d="M4.15 0 M4.15 0 C33.46 -1.84, 60.7 -2.06, 87.24 0 M4.15 0 C32.86 -0.8, 60.52 -0.03, 87.24 0 M87.24 0 C90.81 0.09, 90.04 0.38, 91.39 4.15 M87.24 0 C88.77 -1.66, 89.36 -0.66, 91.39 4.15 M91.39 4.15 C91.38 5.86, 91.41 9.79, 91.39 12.44 M91.39 4.15 C91.46 6.23, 91.17 7.53, 91.39 12.44 M91.39 12.44 C92.55 13.98, 89.3 15.07, 87.24 16.59 M91.39 12.44 C90.92 16.51, 91.04 15.94, 87.24 16.59 M87.24 16.59 C56.49 16.06, 23.66 15.72, 4.15 16.59 M87.24 16.59 C60.65 15.27, 35.07 15.78, 4.15 16.59 M4.15 16.59 C-0.01 17.34, 1.22 14.95, 0 12.44 M4.15 16.59 C2.72 15.47, -1.76 17.07, 0 12.44 M0 12.44 C-0.45 8.71, 0.37 6.01, 0 4.15 M0 12.44 C-0.44 10.74, -0.2 8.55, 0 4.15 M0 4.15 C1.74 1.7, 0.91 -1.92, 4.15 0 M0 4.15 C-2.09 0.92, 3.67 -0.96, 4.15 0" stroke="#000000" stroke-width="1" fill="none"></path></g><g stroke-linecap="round"><g transform="translate(177.41015625 104.505859375) rotate(0 37.06592106819153 0.2983367249260027)"><path d="M-1.37 0.76 C23.37 2.03, 46.67 -0.1, 75.3 0.35 M-0.5 -0.54 C24.75 -0.68, 50.06 -0.18, 75.5 -0.56" stroke="#000000" stroke-width="1" fill="none"></path></g><g transform="translate(177.41015625 104.505859375) rotate(0 37.06592106819153 0.2983367249260027)"><path d="M46.01 10.63 C56.63 8.56, 65.76 3.53, 75.94 0.69 M46.87 9.34 C56.22 5.63, 65.62 2.89, 76.14 -0.23" stroke="#000000" stroke-width="1" fill="none"></path></g><g transform="translate(177.41015625 104.505859375) rotate(0 37.06592106819153 0.2983367249260027)"><path d="M45.88 -9.89 C56.42 -5.74, 65.6 -4.54, 75.94 0.69 M46.74 -11.18 C56.14 -7.9, 65.59 -3.67, 76.14 -0.23" stroke="#000000" stroke-width="1" fill="none"></path></g></g><g stroke-linecap="round" transform="translate(294.50390625 10) rotate(0 69.65234375 93.853515625)"><path d="M1.28 0.67 C29.37 -1.61, 58.96 2.02, 137.6 -0.55 M-0.48 -0.44 C39.9 -1.63, 78.28 -1.78, 139.1 0.57 M140.27 -0.93 C139.9 64.56, 138.95 128.92, 139.52 188.84 M138.77 -0.05 C137.16 39.64, 138.47 78.4, 139.89 187.22 M139.68 187.34 C107.12 187.85, 77.94 189.17, -1.34 188.63 M138.92 187.64 C109.71 188.66, 78.13 187.54, -0.91 187.51 M-0.09 189.05 C-0.42 114.42, 0.43 36.54, -1.87 -0.82 M-0.86 187.01 C2.49 143.2, 1.04 97.68, 0.68 0.26" stroke="#000000" stroke-width="1" fill="none"></path></g><g stroke-linecap="round" transform="translate(345.42578125 39.318359375) rotate(0 20.7734375 17.6796875)"><path d="M1.14 -0.76 C14.25 2.15, 29.08 -0.07, 39.63 -1.81 M0.42 -0.05 C12.31 -0.43, 24.12 0, 40.94 -0.93 M41.39 -1.72 C39.93 10.51, 41.41 16.76, 39.69 36.72 M42.21 0.16 C41.98 11.24, 41.31 23.14, 42.25 34.6 M41.42 33.85 C30.39 34.37, 21.16 35.37, 0.94 33.92 M42.09 36.22 C26.73 35.65, 12.35 35.47, -0.89 36.3 M-1.51 34.86 C1.68 25.94, -1.36 11.75, -1.18 -0.21 M-0.97 34.62 C-0.88 24.36, 0.96 14.25, 0.3 -0.06" stroke="#000000" stroke-width="1" fill="none"></path></g><g stroke-linecap="round"><g transform="translate(345.1171875 38.341796875) rotate(0 20.064302131533623 17.689910009503365)"><path d="M1.62 1.78 C10.29 7.68, 17.96 14.23, 40.98 36.15 M-0.91 -0.78 C15.23 12.91, 29.89 26.66, 41.04 36.16" stroke="#000000" stroke-width="1" fill="none"></path></g></g><g stroke-linecap="round"><g transform="translate(345.55078125 74.412109375) rotate(0 20.553333446383476 -18.929113782942295)"><path d="M1.33 -1.51 C15.78 -12.36, 34.41 -29.46, 40.26 -36.89 M-0.1 -0.97 C11.28 -11.2, 23.44 -19.7, 41.21 -35.4" stroke="#000000" stroke-width="1" fill="none"></path></g></g><g stroke-linecap="round" transform="translate(320.0390625 96.548828125) rotate(0 45.6953125 8.29296875)"><path d="M4.15 0 M4.15 0 C27.41 -0.01, 48.16 0.11, 87.24 0 M4.15 0 C22.03 -0.08, 40.6 -0.23, 87.24 0 M87.24 0 C90.61 -0.31, 91.42 1.57, 91.39 4.15 M87.24 0 C87.82 -2.14, 90.44 3.34, 91.39 4.15 M91.39 4.15 C91.18 6.83, 90.69 9.49, 91.39 12.44 M91.39 4.15 C91.6 7.02, 91.2 10.3, 91.39 12.44 M91.39 12.44 C90.47 15.16, 89.91 15.07, 87.24 16.59 M91.39 12.44 C93.34 14.8, 90.07 16.44, 87.24 16.59 M87.24 16.59 C56.7 17.5, 26.15 16.3, 4.15 16.59 M87.24 16.59 C63.11 16.86, 38.83 16.35, 4.15 16.59 M4.15 16.59 C-0.15 16.39, 0.43 15.01, 0 12.44 M4.15 16.59 C1.48 16.24, -0.83 16.61, 0 12.44 M0 12.44 C-0.35 10.63, 0.56 7.39, 0 4.15 M0 12.44 C0.28 10.82, 0.3 8.52, 0 4.15 M0 4.15 C-0.77 0.55, 2.9 0.1, 4.15 0 M0 4.15 C1.91 2.87, -0.11 -1.42, 4.15 0" stroke="#000000" stroke-width="1" fill="none"></path></g><g stroke-linecap="round" transform="translate(318.5390625 127.177734375) rotate(0 45.6953125 8.29296875)"><path d="M4.15 0 M4.15 0 C30.73 0.78, 57.19 0.99, 87.24 0 M4.15 0 C31.8 -0.03, 61.2 -0.03, 87.24 0 M87.24 0 C90.09 -0.3, 90.67 2.6, 91.39 4.15 M87.24 0 C89.41 1.08, 92.34 0.53, 91.39 4.15 M91.39 4.15 C90.86 7.06, 91.7 10.59, 91.39 12.44 M91.39 4.15 C91.29 7.01, 91.76 10.24, 91.39 12.44 M91.39 12.44 C93.05 16.5, 88.71 15.35, 87.24 16.59 M91.39 12.44 C91.78 13.31, 92.23 17.46, 87.24 16.59 M87.24 16.59 C57.15 17.82, 24.51 14.88, 4.15 16.59 M87.24 16.59 C62.3 16.37, 38.02 17.54, 4.15 16.59 M4.15 16.59 C3.35 15.37, -1.65 17.08, 0 12.44 M4.15 16.59 C2.9 15.58, 0.52 15.76, 0 12.44 M0 12.44 C-0.5 9.3, 0.74 7.09, 0 4.15 M0 12.44 C0.24 10.73, -0.29 8.27, 0 4.15 M0 4.15 C0.72 2.22, 2.77 -0.72, 4.15 0 M0 4.15 C-2.24 0.22, 3.1 0.24, 4.15 0" stroke="#000000" stroke-width="1" fill="none"></path></g><g stroke-linecap="round" transform="translate(319.8046875 158.509765625) rotate(0 45.6953125 8.29296875)"><path d="M4.15 0 M4.15 0 C31.25 0.68, 55.35 -2.14, 87.24 0 M4.15 0 C32.62 0.18, 62.48 0.37, 87.24 0 M87.24 0 C88.98 -0.66, 90.65 3.08, 91.39 4.15 M87.24 0 C92.28 -1.4, 89.49 3.54, 91.39 4.15 M91.39 4.15 C91.55 7.59, 90.85 9.71, 91.39 12.44 M91.39 4.15 C91.58 5.89, 91.69 8.26, 91.39 12.44 M91.39 12.44 C92.84 17.13, 88.91 16.83, 87.24 16.59 M91.39 12.44 C92.22 16.17, 91.61 15.76, 87.24 16.59 M87.24 16.59 C70.61 16.38, 54.6 15.38, 4.15 16.59 M87.24 16.59 C69.31 16.49, 50.52 16.56, 4.15 16.59 M4.15 16.59 C2.98 16.49, -0.19 14.94, 0 12.44 M4.15 16.59 C-0.04 18.31, -0.97 12.95, 0 12.44 M0 12.44 C-0.85 9.73, 0.56 6.38, 0 4.15 M0 12.44 C0.36 9.22, 0.18 6.26, 0 4.15 M0 4.15 C-1.51 1.97, 1.93 -0.47, 4.15 0 M0 4.15 C-1.01 0.39, 1.52 -1.67, 4.15 0" stroke="#000000" stroke-width="1" fill="none"></path></g><g stroke-linecap="round" transform="translate(639.625 39.375) rotate(336.23164868458787 69.65234375 41.298828125)"><path d="M-0.72 -1.95 C45.77 0.53, 93.78 -1.8, 140.34 -1.82 M0.44 -0.57 C30.86 -1.3, 62.43 -0.85, 139.21 -0.13 M137.34 1.34 C140.97 19.99, 137.98 40.12, 140.76 82.66 M140.07 -0.29 C139.28 30.84, 138.18 61.94, 139.58 82.36 M137.85 80.73 C102.39 82.07, 67.52 83.43, 0.53 83.38 M139.95 82.79 C108.36 81.49, 79.47 82.35, -0.09 83.25 M1.56 83.14 C-0.96 59.2, 0.57 34.44, -1.91 -1.13 M-0.7 82.43 C-0.43 59.28, 1.21 34.92, 0.74 0.04" stroke="#000000" stroke-width="1" fill="none"></path></g><g stroke-linecap="round"><g transform="translate(630.6171875 70.091796875) rotate(0 44.289908558130264 9.764089904725552)"><path d="M-0.31 -0.76 C28.22 6.02, 57.62 14.98, 88.89 19.82 M0.21 0.29 C22.09 6.46, 43.66 10.91, 88.11 20.29" stroke="#000000" stroke-width="1" fill="none"></path></g></g><g stroke-linecap="round"><g transform="translate(718.51171875 90.423828125) rotate(0 18.266606844961643 -38.699111856520176)"><path d="M1.32 -0.64 C8.57 -16.92, 14.92 -32.93, 35.75 -77.87 M0.79 0.48 C11.89 -22.72, 20.79 -47.42, 35 -76.41" stroke="#000000" stroke-width="1" fill="none"></path></g></g><g stroke-linecap="round"><g transform="translate(662.296875 146.162109375) rotate(0 15.655240207910538 -30.587276376783848)"><path d="M-0.05 0.6 C11.5 -18.78, 18.37 -38.69, 31.36 -61.78 M0.43 0.6 C11.1 -21.95, 21.52 -43.94, 29.49 -61.06" stroke="#000000" stroke-width="1" fill="none"></path></g></g><g stroke-linecap="round"><g transform="translate(789.875 88.939453125) rotate(0 -31.297571815550327 -9.510324202477932)"><path d="M-0.79 1.81 C-12.98 -6.13, -26.11 -7.05, -62.04 -20.23 M-0.56 0.41 C-15.09 -4.48, -27.97 -10.57, -60.11 -20.83" stroke="#000000" stroke-width="1" fill="none"></path></g></g><g stroke-linecap="round"><g transform="translate(587.93359375 114.431640625) rotate(0 19.621083587408066 -8.505117729306221)"><path d="M0.31 -1.85 C9.1 -2.75, 21.87 -7.69, 38.93 -16.99 M0.9 0.04 C11.84 -3.83, 21.33 -9.88, 38.4 -17.05" stroke="#000000" stroke-width="1" fill="none"></path></g></g><g stroke-linecap="round"><g transform="translate(577.7341183125973 144.59581796824932) rotate(0 27.860443994402885 -13.243927039206028)"><path d="M0.07 -1.78 C17.66 -7.94, 34.73 -15.17, 55.65 -24.41 M0.76 0.3 C16.65 -8.01, 33.06 -15, 54.79 -26.78" stroke="#000000" stroke-width="1" fill="none"></path></g></g><g stroke-linecap="round"><g transform="translate(640.8125 142.556640625) rotate(0 -39.449023239314556 16.92573879659176)"><path d="M-1.94 -1.21 C-15.51 8.36, -33.46 16.99, -78.4 35.06 M-0.49 0.97 C-17.08 6.84, -33.19 14.88, -76.7 34.04" stroke="#000000" stroke-width="1" fill="none"></path></g></g><g stroke-linecap="round"><g transform="translate(458.375 98.85359034338944) rotate(0 44.7063127681613 -1.822869712607826)"><path d="M1.5 -1.65 C20.81 -0.88, 44.56 -2.28, 89.05 -0.79 M0.36 -0.69 C31.1 -1.22, 63.94 -2.16, 87.29 -2.96" stroke="#000000" stroke-width="1" fill="none"></path></g><g transform="translate(458.375 98.85359034338944) rotate(0 44.7063127681613 -1.822869712607826)"><path d="M60.94 6.55 C65.38 5.65, 74.24 2.11, 88.46 -1.18 M59.8 7.51 C69.07 4.22, 80.41 0.2, 86.7 -3.35" stroke="#000000" stroke-width="1" fill="none"></path></g><g transform="translate(458.375 98.85359034338944) rotate(0 44.7063127681613 -1.822869712607826)"><path d="M60.29 -13.97 C64.82 -9.78, 73.84 -8.22, 88.46 -1.18 M59.15 -13.01 C68.58 -8.95, 80.15 -5.62, 86.7 -3.35" stroke="#000000" stroke-width="1" fill="none"></path></g></g></svg>