<?xml version="1.0" encoding="UTF-8"?>
<svg width="313px" height="308px" viewBox="0 0 313 308" version="1.1" xmlns="http://www.w3.org/2000/svg" xmlns:xlink="http://www.w3.org/1999/xlink">
    <!-- Generator: Sketch 52.6 (67491) - http://www.bohemiancoding.com/sketch -->
    <title>scribble2</title>
    <desc>Created with Sketch.</desc>
    <g id="Page-1" stroke="none" stroke-width="1" fill="none" fill-rule="evenodd">
        <g id="scribble2" transform="translate(-9.000000, -9.000000)">
            <rect id="Rectangle" fill="#FFFFFF" opacity="0" x="0" y="0" width="331.227371" height="326.537515"></rect>
            <g id="Group" transform="translate(9.522394, 9.896514)" stroke="#000000">
                <path d="M132.170103,306.641001 C129.959055,303.426115 123.353016,296.947318 118.327518,287.379762 C113.30202,277.812206 105.671487,262.358328 102.017114,249.235664 C98.3627412,236.113001 97.2610627,218.739092 96.4012813,208.643779 C95.5415,198.548466 96.6142123,196.669732 96.8584258,188.663786 C97.1026393,180.657839 96.7576484,167.239096 97.8665624,160.6081 C98.9754764,153.977103 101.891522,152.152697 103.51191,148.877807 C105.132297,145.602916 105.731087,144.165917 107.588888,140.958759 C109.44669,137.7516 113.095245,131.742215 114.658718,129.634856 C116.22219,127.527497 115.80537,128.880982 116.969724,128.314605 C118.134079,127.748228 120.212003,126.406743 121.644846,126.236593 C123.077689,126.066443 122.071153,123.67983 125.566785,127.293703 C129.062416,130.907577 136.836879,141.250937 142.618635,147.919835 C148.40039,154.588733 156.985503,163.345241 160.257316,167.30709 C163.52913,171.268939 161.261575,168.385832 162.249517,171.69093 C163.237459,174.996027 164.732434,181.103616 166.184971,187.137675 C167.637508,193.171735 170.438855,202.954364 170.964739,207.895287 C171.490623,212.83621 170.428386,212.399712 169.340276,216.783212 C168.252165,221.166712 168.019014,226.516787 164.436079,234.196286 C160.853144,241.875785 150.921047,257.387405 147.842664,262.860205 C144.764282,268.333005 145.995964,266.366298 145.965782,267.033087 C145.9356,267.699876 144.337665,266.462234 147.661571,266.860939 C150.985477,267.259645 158.811274,268.987108 165.909219,269.425318 C173.007164,269.863528 180.775276,270.393308 190.249241,269.4902 C199.723207,268.587092 215.607164,265.741295 222.753012,264.006671 C229.89886,262.272048 230.085606,261.35351 233.124328,259.082459 C236.16305,256.811409 238.816089,254.263721 240.985344,250.380369 C243.154599,246.497017 245.256317,241.395282 246.139858,235.782347 C247.023398,230.169412 246.572847,222.128964 246.286586,216.702759 C246.000326,211.276554 245.746427,207.037211 244.422296,203.225116 C243.098164,199.413021 242.929813,198.379961 238.341797,193.830189 C233.753782,189.280418 224.001281,181.099967 216.894201,175.926489 C209.78712,170.753011 200.86137,165.875531 195.699317,162.78932 C190.537264,159.703108 198.954243,158.431957 185.921881,157.409221 C172.889518,156.386485 132.559608,156.968248 117.505142,156.652904 C102.450675,156.33756 104.090244,157.100985 95.5950828,155.517159 C87.0999214,153.933333 71.9663552,149.013156 66.5341731,147.149946 C61.1019909,145.286737 63.6438206,146.319519 63.0019899,144.3379 C62.3601592,142.356281 62.2347699,138.033531 62.683189,135.260232 C63.1316081,132.486933 61.6044581,131.274767 65.6925044,127.698106 C69.7805507,124.121444 82.5030356,116.572569 87.2114668,113.800264 C91.9198979,111.02796 91.5382051,111.298726 93.9430913,111.064279 C96.3479774,110.829831 91.4039974,111.988961 101.640784,112.393579 C111.87757,112.798197 146.088714,112.782641 155.363809,113.491986 C164.638904,114.201331 155.841854,114.587363 157.291355,116.649648 C158.740855,118.711934 162.412527,122.451999 164.06081,125.8657 C165.709093,129.2794 166.728618,133.831543 167.18105,137.131851 C167.633483,140.43216 168.033246,142.561586 166.775403,145.667549 C165.51756,148.773512 162.90677,151.833449 159.633992,155.76763 C156.361215,159.70181 156.86236,161.487411 147.13874,169.272632 C137.41512,177.057853 110.565534,194.808152 101.292271,202.478956 C92.0190074,210.149759 93.9120127,211.658999 91.4991613,215.297452 C89.0863099,218.935906 87.8201774,221.978927 86.8151619,224.309677 C85.8101465,226.640427 85.74135,227.317332 85.4690689,229.281951 C85.1967877,231.24657 84.7724259,234.127643 85.1814753,236.097392 C85.5905247,238.067141 85.4901182,239.403785 87.9233651,241.100445 C90.356612,242.797105 95.9027806,245.274188 99.7809567,246.277353 C103.659133,247.280519 107.248194,247.097361 111.192421,247.119438 C115.136649,247.141515 120.419477,247.316968 123.446321,246.409816 C126.473165,245.502664 126.55337,245.089694 129.353483,241.676527 C132.153597,238.26336 138.326715,230.987069 140.247002,225.930815 C142.167288,220.87456 141.282892,216.501716 140.875204,211.338998 C140.467515,206.176281 140.3895,200.62782 137.80087,194.954509 C135.21224,189.281199 129.531455,183.257352 125.343422,177.299137 C121.155389,171.340921 115.877397,164.34179 112.672672,159.205217 C109.467947,154.068643 107.375783,150.729747 106.115072,146.479696 C104.854361,142.229644 105.087312,137.534027 105.108403,133.70491 C105.129495,129.875792 105.491561,126.508581 106.241619,123.504992 C106.991676,120.501402 106.794019,118.526893 109.608748,115.683373 C112.423478,112.839853 119.750956,108.726896 123.129995,106.443873 C126.509035,104.16085 125.991299,103.524782 129.882984,101.985235 C133.774669,100.445689 141.817673,97.7396059 146.480105,97.2065929 C151.142537,96.6735799 153.61955,97.8298761 157.857575,98.7871573 C162.0956,99.7444386 167.154634,101.119856 171.908255,102.950281 C176.661876,104.780705 182.991565,107.437976 186.3793,109.769705 C189.767034,112.101435 191.094556,114.59652 192.234661,116.940659 C193.374767,119.284798 193.59123,121.398267 193.219934,123.834539 C192.848637,126.270812 191.768459,128.492351 190.006882,131.558293 C188.245306,134.624236 186.655558,137.496134 182.650474,142.230195 C178.645391,146.964255 170.074032,155.222682 165.976382,159.962658 C161.878732,164.702634 159.727679,167.940789 158.064574,170.67005 C156.401469,173.399311 156.400762,174.18175 155.997752,176.338224 C155.594741,178.494697 155.19734,181.054726 155.646509,183.608891 C156.095678,186.163056 155.489697,188.603509 158.692767,191.663215 C161.895838,194.722921 170.169521,199.247156 174.864933,201.967127 C179.560345,204.687098 183.152327,207.218003 186.865239,207.983041 C190.57815,208.748079 193.040088,207.199818 197.142403,206.557356 C201.244718,205.914894 206.483216,205.408272 211.47913,204.128268 C216.475043,202.848264 223.561027,200.299138 227.117886,198.877332 C230.674744,197.455526 231.010912,197.178972 232.82028,195.597432 C234.629649,194.015892 235.430678,192.793261 237.974095,189.388091 C240.517511,185.982921 245.918912,179.563664 248.080781,175.166411 C250.24265,170.769158 250.218083,169.873039 250.945307,163.004573 C251.672532,156.136107 251.237066,138.585492 252.444127,133.955616 C253.651189,129.325739 255.370541,134.037397 258.187677,135.225314 C261.004812,136.41323 265.490536,137.720466 269.34694,141.083112 C273.203345,144.445759 279.107356,151.555445 281.326105,155.401192 C283.544854,159.246939 282.621412,161.168683 282.659435,164.157592 C282.697458,167.146502 282.148871,169.638217 281.554244,173.334649 C280.959616,177.031081 280.818008,182.519303 279.09167,186.336184 C277.365332,190.153066 275.659183,191.72852 271.196215,196.23594 C266.733246,200.74336 261.182441,208.338048 252.31386,213.380705 C243.44528,218.423362 223.888975,223.66421 217.984732,226.491879 C212.08049,229.319549 216.991304,228.674888 216.888408,230.346721 C216.785512,232.018554 216.274477,235.093954 217.367356,236.522879 C218.460235,237.951803 219.83773,237.664293 223.445685,238.920267 C227.053639,240.176241 233.371451,244.457433 239.015081,244.058722 C244.658711,243.660012 253.354564,239.882924 257.307467,236.528003 C261.26037,233.173082 261.6992,226.769979 262.732498,223.929196 C263.765795,221.088414 264.347567,221.895333 263.507251,219.483309 C262.666935,217.071285 264.133669,216.421272 257.690602,209.457054 C251.247534,202.492835 232.039819,186.12271 224.848846,177.698 C217.657873,169.273291 216.089994,163.266228 214.544764,158.908799 C212.999534,154.551369 215.582263,154.125569 215.577466,151.553425 C215.572669,148.981281 213.826021,146.472913 214.515982,143.475935 C215.205943,140.478957 217.912563,136.045936 219.717233,133.571556 C221.521903,131.097176 222.320817,129.803275 225.344,128.629655 C228.367183,127.456034 232.185439,127.089377 237.85633,126.529834 C243.527221,125.970291 252.943688,124.967827 259.369347,125.272399 C265.795006,125.57697 272.244933,127.169791 276.410285,128.357263 C280.575636,129.544736 281.264456,128.642709 284.361455,132.397233 C287.458454,136.151758 292.727146,140.616052 294.99228,150.88441 C297.257414,161.152769 296.466748,184.676065 297.952259,194.007381 C299.43777,203.338698 301.847736,202.459379 303.905344,206.87231 C305.962953,211.285242 309.263748,217.826716 310.29791,220.484972 C311.332072,223.143227 311.711942,221.001039 310.110316,222.821842 C308.508691,224.642645 304.239603,228.821845 300.688155,231.40979 C297.136708,233.997734 292.431257,236.466783 288.80163,238.34951 C285.172004,240.232237 288.457497,239.772616 278.910397,242.706151 C269.363297,245.639687 243.702717,253.659702 231.519032,255.950723 C219.335347,258.241744 216.032826,257.682903 205.808287,256.45228 C195.583748,255.221657 178.583127,250.929112 170.1718,248.566986 C161.760472,246.20486 160.769399,244.976501 155.340321,242.279522 C149.911244,239.582544 141.602076,234.520034 137.597335,232.385115 C133.592593,230.250196 133.263863,231.743742 131.311871,229.470008 C129.359879,227.196273 129.531472,228.729831 125.885384,218.742708 C122.239295,208.755586 112.1337,186.257772 109.43534,169.547272 C106.73698,152.836771 110.494915,127.858339 109.695223,118.479706 C108.895532,109.101073 106.312143,115.300588 104.637191,113.275474 C102.962238,111.25036 107.980979,110.833782 99.6455065,106.32902 C91.3100345,101.824258 64.1108158,89.8461172 54.6243581,86.2468998 C45.1379005,82.6476823 46.4406076,84.5575595 42.7267605,84.7337153 C39.0129135,84.9098711 35.1294889,86.2589094 32.3412757,87.3038343 C29.5530625,88.3487593 28.923053,86.856201 25.9974814,91.0032651 C23.0719097,95.1503292 17.7771797,105.30638 14.7878457,112.186219 C11.7985118,119.066058 9.25647249,127.086966 8.06147765,132.282298 C6.86648282,137.477631 6.94558727,139.854252 7.6178767,143.358214 C8.29016613,146.862176 8.05209643,145.49904 12.0952142,153.306069 C16.138332,161.113097 26.8900828,182.022024 31.8765835,190.200386 C36.8630842,198.378747 39.4444626,199.631323 42.0142185,202.376236 C44.5839743,205.121149 38.1639541,200.886227 47.2951185,206.669863 C56.426283,212.4535 88.0711036,230.217377 96.8012052,237.078055 C105.531307,243.938733 99.1940566,244.881201 99.6757278,247.833931 C100.157399,250.786661 100.46213,252.195971 99.691233,254.794436 C98.9203358,257.392901 99.0321154,259.594546 95.050345,263.424719 C91.0685746,267.254892 84.1324183,275.552489 75.8006104,277.775476 C67.4688025,279.998462 55.1375383,278.091592 45.0594974,276.762636 C34.9814565,275.433681 21.1448916,271.897446 15.3323649,269.801741 C9.51983821,267.706036 12.0401755,268.220876 10.1843374,264.188406 C8.32849925,260.155937 5.34515519,250.133412 4.19733621,245.606923 C3.04951723,241.080433 3.32768962,239.5545 3.29742346,237.02947 C3.2671573,234.504441 2.91253868,233.261919 4.01573924,230.456744 C5.1189398,227.65157 7.82185814,223.115218 9.91662681,220.198426 C12.0113955,217.281633 14.3146527,214.938531 16.5843513,212.955991 C18.8540499,210.97345 20.7853438,209.469143 23.5348185,208.303183 C26.2842933,207.137222 24.6081704,205.775197 33.0811998,205.960229 C41.5542291,206.14526 66.220002,208.28265 74.3729946,209.413371 C82.5259873,210.544092 78.5815359,210.57618 81.9991557,212.744555 C85.4167756,214.912929 89.7379747,217.631095 94.8787138,222.423618 C100.019453,227.216141 107.297933,236.222438 112.84359,241.499693 C118.389248,246.776948 122.915597,250.5414 128.15266,254.087147 C133.389723,257.632895 137.827836,260.367843 144.265968,262.774177 C150.7041,265.180511 159.935452,267.427985 166.781453,268.52515 C173.627454,269.622315 181.263596,270.167963 185.341973,269.357168 C189.42035,268.546374 189.614371,266.433396 191.251715,263.660381 C192.88906,260.887365 194.419438,255.25089 195.166039,252.719077 C195.912639,250.187263 196.178167,250.74523 195.731318,248.469499 C195.284468,246.193767 195.601255,243.512555 192.484942,239.064687 C189.36863,234.616819 183.241586,228.52205 177.033443,221.78229 C170.825301,215.04253 160.831083,208.831571 155.236086,198.626128 C149.641089,188.420685 145.537994,168.91343 143.463464,160.549632 C141.388933,152.185835 141.621976,156.203479 142.788904,148.443342 C143.955832,140.683205 148.65909,122.012569 150.465031,113.988812 C152.270972,105.965055 150.627743,106.051683 153.624548,100.300801 C156.621353,94.5499185 160.405428,87.4698234 168.44586,79.4835195 C176.486292,71.4972155 195.543078,59.1782338 201.867139,52.3829769 C208.1912,45.58772 205.647092,43.0911513 206.390228,38.7119781 C207.133364,34.3328048 206.875565,30.1224227 206.325955,26.1079375 C205.776345,22.0934522 204.475782,17.3477438 203.092569,14.6250665 C201.709356,11.9023892 200.907138,12.122498 198.026679,9.77187354 C195.14622,7.42124911 189.36731,1.75649548 185.809816,0.52131994 C182.252322,-0.713855602 181.155798,0.956291567 176.681714,2.36082028 C172.207629,3.765349 163.905174,5.98742577 158.965309,8.94849224 C154.025444,11.9095587 149.417412,17.4878335 147.042524,20.1272191 C144.667636,22.7666048 145.394485,22.3287834 144.715983,24.7848061 C144.037481,27.2408288 142.300605,31.5333672 142.971512,34.8633552 C143.642419,38.1933432 143.244778,39.7488952 148.741425,44.7647341 C154.238072,49.780573 170.41127,58.6993706 175.951393,64.9583887 C181.491516,71.2174068 181.144891,78.1190828 181.982165,82.3188428 C182.819439,86.5186027 182.120662,84.2200559 180.975037,90.1569485 C179.829413,96.0938411 179.250583,110.244262 175.108416,117.940198 C170.966249,125.636135 160.969831,132.673515 156.122035,136.33257 C151.27424,139.991624 154.41905,140.93156 146.021644,139.894524 C137.624239,138.857487 115.533547,136.288623 105.737602,130.11035 C95.941656,123.932077 91.3466773,111.393447 87.2459699,102.824885 C83.1452626,94.2563236 81.27122,85.1482891 81.1333577,78.698981 C80.9954953,72.2496729 83.8795919,68.2909556 86.4187957,64.1290365 C88.9579995,59.9671174 93.2146518,55.155215 96.3685805,53.7274663 C99.5225091,52.2997176 102.60168,55.2157214 105.342368,55.5625443 C108.083055,55.9093672 109.196558,53.6343684 112.812704,55.8084037 C116.42885,57.982439 119.127819,63.4251332 127.039244,68.606756 C134.95067,73.7883789 153.561111,83.002123 160.281255,86.8981409 C167.001399,90.7941587 163.296322,91.3675961 167.360109,91.9828633 C171.423897,92.5981305 178.013421,91.099592 184.66398,90.5897442 C191.314538,90.0798963 200.638862,90.1201608 207.263459,88.9237761 C213.888056,87.7273915 218.741804,84.621144 224.411562,83.4114363 C230.08132,82.2017285 237.738935,80.9794093 241.282008,81.6655297 C244.82508,82.3516501 244.690952,84.8981266 245.669998,87.5281586 C246.649044,90.1581906 246.552824,92.5381478 247.156283,97.4457217 C247.759742,102.353296 251.696055,110.648997 249.290752,116.973603 C246.88545,123.298208 240.214806,130.328375 232.724469,135.393356 C225.234131,140.458337 209.804801,144.529842 204.348728,147.363491 C198.892654,150.19714 200.43468,150.745761 199.988029,152.395249 C199.541379,154.044738 201.226988,155.743494 201.668826,157.260421 C202.110664,158.777348 201.282269,160.323086 202.639055,161.496811 C203.995841,162.670536 204.338171,163.15854 209.809543,164.302772 C215.280916,165.447004 229.572059,169.042739 235.467291,168.362202 C241.362524,167.681665 243.189813,162.237969 245.180939,160.219548 C247.172065,158.201127 247.232468,158.473829 247.414047,156.251676 C247.595627,154.029523 247.903301,149.694898 246.270414,146.886627 C244.637527,144.078356 244.366003,142.05773 237.616726,139.402049 C230.867448,136.746369 215.676195,132.229817 205.774747,130.952545 C195.873299,129.675274 186.704598,129.918626 178.20804,131.73842 C169.711483,133.558213 162.502406,136.457926 154.795402,141.871306 C147.088399,147.284686 137.619248,157.820419 131.966019,164.218697 C126.312791,170.616975 125.633269,174.740262 120.876032,180.260976 C116.118795,185.78169 108.359855,194.077007 103.422596,197.342979 C98.4853369,200.608952 95.2990262,203.746323 91.2524765,199.856809 C87.2059268,195.967295 80.6716356,177.114531 79.1432979,174.005895 C77.6149602,170.89726 78.4730163,176.162665 82.0824503,181.204997 C85.6918843,186.247328 92.3113918,195.118895 100.799902,204.259887 C109.288412,213.400879 124.427538,228.854359 133.013512,236.050949 C141.599486,243.247538 143.503636,244.950352 152.315748,247.439425 C161.127861,249.928499 179.750904,249.491295 185.886189,250.985388 C192.021474,252.479481 189.193582,253.880226 189.127458,256.403985 C189.061334,258.927744 188.682601,263.030471 185.489446,266.127943 C182.296291,269.225416 180.138425,271.246242 169.968527,274.988819 C159.79863,278.731395 131.879823,286.2186 124.470061,288.5834 M130.800268,305.931922 C128.550428,302.353424 122.272152,295.642143 117.881595,285.860566 C113.491038,276.078989 107.960714,259.941003 104.456924,247.242461 C100.953134,234.543919 98.295326,219.883676 96.8588531,209.669315 C95.4223801,199.454954 95.5312032,194.35001 95.8380863,185.956294 C96.1449693,177.562578 97.8286459,165.148672 98.7001515,159.307021 C99.5716571,153.465369 99.7153566,153.961969 101.06712,150.906386 C102.418883,147.850803 104.281232,144.725927 106.81073,140.973521 C109.340228,137.221115 114.510028,130.525365 116.244107,128.39195 C117.978186,126.258535 116.301317,128.43864 117.215202,128.173031 C118.129086,127.907422 120.480301,127.093709 121.727413,126.798295 C122.974524,126.502881 121.147241,122.915686 124.69787,126.400545 C128.248498,129.885403 137.17316,140.928272 143.031182,147.707446 C148.889205,154.48662 156.587185,163.174743 159.846004,167.075589 C163.104822,170.976435 161.40564,167.578267 162.584092,171.112523 C163.762545,174.64678 165.679722,182.54867 166.916718,188.281128 C168.153714,194.013586 169.299283,200.756372 170.00607,205.507273 C170.712857,210.258173 171.769283,211.880249 171.15744,216.786532 C170.545597,221.692815 170.656593,227.014145 166.33501,234.94497 C162.013426,242.875795 148.844989,259.142938 145.22794,264.371483 C141.61089,269.600027 144.177134,265.547648 144.632714,266.316235 C145.088295,267.084823 144.428953,268.573426 147.961425,268.983007 C151.493897,269.392588 159.09156,268.795523 165.827548,268.77372 C172.563536,268.751918 179.206518,270.11353 188.377354,268.852194 C197.54819,267.590857 213.724616,262.775837 220.852562,261.205701 C227.980508,259.635566 228.121154,261.260407 231.145029,259.431382 C234.168903,257.602356 236.30472,254.401007 238.995809,250.231548 C241.686898,246.062089 246.125704,240.272333 247.291563,234.414629 C248.457422,228.556924 246.196067,220.514727 245.990964,215.085319 C245.785861,209.655911 247.367802,205.665294 246.060946,201.83818 C244.754091,198.011065 243.053872,196.700612 238.149831,192.122633 C233.245789,187.544655 223.53485,179.238919 216.636699,174.370311 C209.738549,169.501703 202.14879,165.579723 196.760928,162.910987 C191.373067,160.24225 197.245706,159.522136 184.30953,158.357893 C171.373354,157.19365 133.832623,156.748437 119.143872,155.92553 C104.45512,155.102624 105.19423,154.534835 96.1770211,153.420452 C87.1598123,152.306068 70.4003507,150.897166 65.0406189,149.239228 C59.6808872,147.581291 64.4373273,145.793133 64.0186308,143.472826 C63.5999344,141.152519 61.9517164,137.986112 62.5284402,135.317388 C63.1051639,132.648663 63.2802895,130.979445 67.4789734,127.46048 C71.6776573,123.941515 83.6549286,117.006964 87.7205435,114.203598 C91.7861585,111.400232 89.6784078,110.872544 91.872663,110.640284 C94.0669182,110.408025 90.2462942,112.218466 100.886075,112.810041 C111.525855,113.401616 145.948015,113.612006 155.711345,114.189733 C165.474675,114.767459 157.756912,114.296891 159.466054,116.2764 C161.175196,118.25591 164.301773,122.593219 165.966197,126.06679 C167.63062,129.540361 169.23913,134.079185 169.452595,137.117827 C169.666061,140.156468 168.902837,140.872428 167.246988,144.298639 C165.591139,147.724851 163.249204,153.502038 159.517501,157.675097 C155.785798,161.848156 154.495692,162.118663 144.856771,169.336993 C135.217851,176.555324 110.523571,193.336823 101.683979,200.98508 C92.8443877,208.633337 94.148909,211.396034 91.8192228,215.226535 C89.4895367,219.057036 88.8781462,221.504683 87.7058623,223.968085 C86.5335784,226.431487 84.8515044,228.091673 84.7855194,230.006947 C84.7195344,231.922222 86.7087431,233.806915 87.3099525,235.459732 C87.9111618,237.112549 86.4665298,238.134662 88.3927754,239.92385 C90.319021,241.713038 94.863387,244.984398 98.8674263,246.194858 C102.871466,247.405319 108.300605,247.383279 112.417011,247.186614 C116.533418,246.989948 120.891275,245.848092 123.565867,245.014867 C126.240458,244.181642 126.001702,245.179992 128.46456,242.187264 C130.927418,239.194537 136.211007,232.0532 138.343013,227.058502 C140.47502,222.063804 141.470687,217.638129 141.256599,212.219078 C141.04251,206.800027 139.835425,200.688727 137.05848,194.544197 C134.281535,188.399666 128.39931,181.545577 124.594929,175.351894 C120.790547,169.158212 117.345368,162.634487 114.232194,157.382102 C111.11902,152.129717 107.324787,147.641002 105.915883,143.837583 C104.506979,140.034164 105.682456,138.114329 105.778769,134.561588 C105.875082,131.008847 105.496734,125.38117 106.493763,122.521139 C107.490793,119.661108 108.969609,120.150982 111.760945,117.4014 C114.55228,114.651819 119.894687,108.85777 123.241778,106.023651 C126.588869,103.189533 127.722197,101.640769 131.843491,100.39669 C135.964785,99.1526111 143.653156,98.7359258 147.969541,98.5591778 C152.285927,98.3824298 153.445643,98.5093628 157.741804,99.3362021 C162.037966,100.163041 168.659307,101.490555 173.746511,103.520213 C178.833715,105.549871 185.4012,109.197618 188.265029,111.514151 C191.128859,113.830683 190.173536,115.703867 190.929489,117.419409 C191.685442,119.134952 193.234655,119.551336 192.80075,121.807405 C192.366844,124.063474 190.147982,127.213512 188.326058,130.955824 C186.504134,134.698135 185.638356,139.364081 181.869204,144.261274 C178.100052,149.158468 169.884891,155.761283 165.711145,160.338982 C161.537399,164.916682 158.47421,169.244806 156.826726,171.727471 C155.179241,174.210137 155.821742,173.41944 155.826239,175.234974 C155.830737,177.050509 156.314174,180.267308 156.85371,182.620679 C157.393246,184.97405 156.081013,185.971519 159.063455,189.355201 C162.045898,192.738882 169.758879,200.133665 174.748366,202.922767 C179.737852,205.711869 185.379063,205.338715 189.000376,206.089813 C192.621689,206.840912 192.533277,207.540045 196.476244,207.429356 C200.419211,207.318668 207.468761,207.076778 212.658177,205.425682 C217.847593,203.774587 224.291878,198.788864 227.61274,197.522785 C230.933602,196.256706 230.7104,199.374634 232.58335,197.829209 C234.456299,196.283784 236.418984,192.135821 238.850437,188.250236 C241.28189,184.364651 245.062655,178.74168 247.172069,174.5157 C249.281483,170.289721 250.543037,169.540884 251.506918,162.894361 C252.470799,156.247837 251.883996,139.248457 252.955356,134.636558 C254.026716,130.024659 255.284173,134.033659 257.935079,135.222967 C260.585985,136.412274 264.95164,138.479936 268.860794,141.772403 C272.769948,145.06487 279.057969,151.075495 281.390003,154.977768 C283.722036,158.880041 282.493171,161.676736 282.852997,165.186042 C283.212824,168.695348 284.464482,172.381229 283.548959,176.033603 C282.633436,179.685976 279.185833,183.560103 277.359861,187.100283 C275.533889,190.640464 276.670957,192.899036 272.593126,197.274686 C268.515295,201.650336 261.944111,208.369405 252.892875,213.354184 C243.841639,218.338962 224.364664,224.573701 218.28571,227.183356 C212.206756,229.793011 216.820404,227.599822 216.419152,229.012114 C216.017901,230.424406 214.531858,233.96238 215.878202,235.657107 C217.224545,237.351834 220.517087,237.622597 224.497214,239.180475 C228.477342,240.738352 234.451763,245.71481 239.758965,245.004373 C245.066166,244.293937 252.739687,238.692726 256.340425,234.917855 C259.941164,231.142985 260.210581,224.957937 261.363394,222.355149 C262.516208,219.752361 264.130083,221.124658 263.257306,219.301126 C262.384529,217.477595 262.764594,218.304622 256.126731,211.413961 C249.488867,204.523299 230.27091,186.931043 223.430126,177.957157 C216.589342,168.983272 216.642712,161.744521 215.082025,157.570647 C213.521337,153.396773 214.056106,155.295418 214.066001,152.913912 C214.075895,150.532406 214.199993,146.352005 215.141391,143.28161 C216.082788,140.211215 218.119764,136.814394 219.714387,134.491542 C221.30901,132.168691 221.436155,130.816885 224.709131,129.3445 C227.982107,127.872115 233.566471,126.289683 239.352244,125.65723 C245.138016,125.024777 253.214588,125.179106 259.423765,125.549782 C265.632943,125.920457 272.453578,126.822897 276.60731,127.881284 C280.761042,128.939672 281.342641,128.345798 284.346159,131.900106 C287.349677,135.454415 292.513926,138.95218 294.628418,149.207136 C296.74291,159.462092 295.924902,183.817658 297.033112,193.429844 C298.141323,203.042029 299.093355,202.639585 301.277683,206.88025 C303.462012,211.120915 308.528954,216.137625 310.139085,218.873833 C311.749216,221.61004 312.290723,221.298779 310.938469,223.297496 C309.586216,225.296212 305.616781,228.108559 302.025565,230.866131 C298.434348,233.623704 293.404577,237.959472 289.391172,239.842932 C285.377767,241.726392 288.072841,239.708865 277.945135,242.166891 C267.817429,244.624916 240.522448,252.410277 228.624936,254.591084 C216.727425,256.77189 216.387244,256.351222 206.560067,255.251731 C196.732891,254.152239 178.415069,249.947596 169.661877,247.994134 C160.908684,246.040673 159.181947,246.069792 154.040912,243.53096 C148.899878,240.992128 142.6494,235.165097 138.81567,232.761142 C134.981941,230.357186 133.065184,231.406834 131.038535,229.107228 C129.011885,226.807622 130.048153,229.120352 126.655775,218.963506 C123.263397,208.806661 113.43946,184.708985 110.684267,168.166157 C107.929074,151.623329 111.019171,128.984971 110.124617,119.706537 C109.230063,110.428103 107.036473,114.633297 105.316943,112.495553 C103.597413,110.357809 108.35871,111.290511 99.8074363,106.880071 C91.2561627,102.469631 63.2997432,89.8903126 54.0093012,86.032912 C44.7188592,82.1755114 47.2788313,83.3632707 44.0647842,83.7356673 C40.8507372,84.1080638 38.0343797,86.9327605 34.7250188,88.2672913 C31.4156579,89.601822 27.8733422,87.8262391 24.2086189,91.7428518 C20.5438955,95.6594644 15.4781739,105.187798 12.7366788,111.766967 C9.99518368,118.346137 8.21839347,126.004698 7.75964831,131.21787 C7.30090314,136.431041 9.1950368,139.58245 9.98420778,143.045998 C10.7733788,146.509545 8.75664613,143.907418 12.4946742,151.999153 C16.2327023,160.090889 27.325989,183.379083 32.4123764,191.596409 C37.4987637,199.813734 40.2275061,198.594447 43.0129984,201.303104 C45.7984907,204.011762 40.5634052,201.758656 49.12533,207.848352 C57.6872549,213.938048 85.9768117,230.962056 94.3845476,237.84128 C102.792284,244.720505 98.5366652,246.421501 99.5717455,249.123697 C100.606826,251.825893 101.626417,251.823287 100.59503,254.054458 C99.563643,256.285628 97.5034562,258.95277 93.3834246,262.510721 C89.2633931,266.068671 83.586378,273.199359 75.8748406,275.402163 C68.1633032,277.604966 56.9925852,276.816911 47.1142003,275.727543 C37.2358155,274.638175 22.4982371,270.718184 16.6045317,268.865953 C10.7108263,267.013722 14.0267393,268.613139 11.7519681,264.614159 C9.477197,260.615179 4.81965495,249.631293 2.95590482,244.872074 C1.09215468,240.112855 0.149855754,238.485797 0.569467326,236.058846 C0.989078898,233.631894 3.61545428,233.150738 5.47357425,230.310363 C7.33169422,227.469989 10.0234238,221.721443 11.7181871,219.016597 C13.4129505,216.311751 14.0621764,215.674172 15.6421542,214.081287 C17.2221321,212.488401 18.3632556,210.481557 21.1980543,209.459284 C24.032853,208.437012 23.9488626,208.147188 32.6509466,207.94765 C41.3530305,207.748113 65.1277936,207.66944 73.4105582,208.262058 C81.6933228,208.854676 78.8397626,208.89926 82.3475342,211.503356 C85.8553059,214.107452 89.789204,219.138943 94.4571879,223.886632 C99.1251718,228.634322 104.657303,234.718119 110.355438,239.989493 C116.053572,245.260867 122.657283,251.367039 128.645995,255.514877 C134.634707,259.662716 140.03464,262.775972 146.287709,264.876525 C152.540777,266.977078 159.951516,267.469765 166.164407,268.118195 C172.377298,268.766624 178.960242,269.468284 183.565056,268.767103 C188.169869,268.065922 192.099068,266.482846 193.793288,263.91111 C195.487507,261.339375 193.29789,255.874606 193.730373,253.336691 C194.162857,250.798776 197.019528,251.43862 196.388188,248.683619 C195.756849,245.928619 193.116469,241.313893 189.942339,236.80669 C186.76821,232.299488 183.274853,228.291952 177.343412,221.640405 C171.41197,214.988858 160.244447,206.989342 154.353692,196.897409 C148.462937,186.805476 144.019059,169.380285 141.998884,161.088805 C139.978708,152.797325 141.254745,155.212642 142.23264,147.148529 C143.210534,139.084416 146.077932,120.276246 147.86625,112.704129 C149.654568,105.132012 149.484479,107.604907 152.962547,101.715828 C156.440615,95.8267479 160.79955,85.5611816 168.734657,77.3696508 C176.669763,69.17812 194.115086,58.7674609 200.573184,52.5666428 C207.031283,46.3658247 206.74496,44.6636043 207.483249,40.1647422 C208.221537,35.6658801 205.55433,29.5504285 205.002916,25.57347 C204.451502,21.5965116 205.63026,18.9288213 204.174765,16.3029916 C202.719271,13.677162 199.457763,12.3744561 196.26995,9.81849196 C193.082136,7.26252781 187.8891,1.99940581 185.047883,0.967206724 C182.206667,-0.0649923665 183.840443,2.38133582 179.22265,3.62529742 C174.604856,4.86925902 162.926252,5.50261856 157.341124,8.43097633 C151.755995,11.3593341 147.768728,18.21062 145.71188,21.195444 C143.655033,24.1802681 145.361537,23.895512 145.000037,26.3399206 C144.638538,28.7843292 142.795175,32.865637 143.542881,35.8618956 C144.290586,38.8581542 144.192644,39.4767791 149.486271,44.3174721 C154.779897,49.1581651 170.193045,58.4415123 175.304641,64.9060536 C180.416236,71.3705949 179.299993,78.8496702 180.155844,83.1047197 C181.011694,87.3597692 181.3444,84.3726681 180.439743,90.4363506 C179.535086,96.5000331 179.044371,111.532592 174.727902,119.486815 C170.411432,127.441038 159.70453,134.708969 154.540926,138.161688 C149.377322,141.614407 151.711434,141.847727 143.746278,140.203128 C135.781123,138.558528 116.19589,134.872624 106.749993,128.294092 C97.3040967,121.71556 91.5194672,108.834159 87.0708997,100.731934 C82.6223323,92.6297098 80.5490032,86.0114409 80.0585886,79.6807454 C79.5681739,73.3500499 81.4599346,66.8911012 84.1284118,62.7477612 C86.7968891,58.6044213 92.3002305,56.3345809 96.0694521,54.8207057 C99.8386736,53.3068305 103.715497,53.2699298 106.743741,53.66451 C109.771985,54.0590901 110.970279,54.4450343 114.238917,57.1881869 C117.507554,59.9313395 118.913243,65.0293374 126.355565,70.1234255 C133.797886,75.2175136 151.954753,84.0087597 158.892846,87.7527153 C165.830939,91.4966709 163.407135,92.1705954 167.984121,92.5871593 C172.561107,93.0037231 180.193632,90.6280178 186.354762,90.2520985 C192.515892,89.8761793 198.697935,91.6351831 204.950901,90.3316438 C211.203867,89.0281045 217.823534,83.629887 223.872559,82.4308629 C229.921583,81.2318388 237.561661,81.9056738 241.245048,83.1374993 C244.928435,84.3693248 245.180897,87.5599875 245.972882,89.8218161 C246.764867,92.0836447 245.560559,92.4724271 245.996959,96.7084708 C246.43336,100.944515 251.11609,109.122611 248.591284,115.238078 C246.066478,121.353545 238.178305,128.076558 230.848123,133.401272 C223.517941,138.725986 209.485421,144.091243 204.610192,147.186363 C199.734962,150.281483 202.317535,149.854416 201.596748,151.971992 C200.875961,154.089569 200.320742,158.157675 200.285468,159.891822 C200.250194,161.625969 199.644347,161.461022 201.385104,162.376877 C203.125861,163.292731 204.873102,164.431016 210.73001,165.38695 C216.586919,166.342885 231.112939,169.332569 236.526556,168.112482 C241.940173,166.892396 241.492894,160.03634 243.211713,158.066431 C244.930532,156.096521 246.454877,158.303531 246.839467,156.293023 C247.224057,154.282515 247.123875,148.720413 245.519253,146.003383 C243.914631,143.286352 243.739257,142.702211 237.211734,139.990838 C230.684212,137.279466 215.969408,131.498934 206.354119,129.735146 C196.738831,127.971358 187.998034,127.331287 179.520002,129.408111 C171.04197,131.484935 163.872649,136.483875 155.485927,142.19609 C147.099204,147.908304 134.635669,157.38471 129.199667,163.681397 C123.763664,169.978084 127.037614,174.644608 122.869914,179.97621 C118.702214,185.307811 109.298961,192.127999 104.193467,195.671006 C99.0879719,199.214013 96.2106615,204.690529 92.2369458,201.234251 C88.2632302,197.777973 81.9734639,178.11047 80.3511728,174.933338 C78.7288816,171.756206 78.864687,177.199654 82.5031987,182.171459 C86.1417104,187.143264 93.4397544,195.96277 102.182243,204.76417 C110.924732,213.56557 126.904982,227.690076 134.958131,234.979859 C143.011279,242.269643 141.999556,245.761456 150.501136,248.502872 C159.002715,251.244288 179.606291,249.85627 185.967606,251.428354 C192.328921,253.000438 188.668734,255.575717 188.669027,257.935376 C188.66932,260.295036 189.447968,263.021382 185.969364,265.586312 C182.490761,268.151243 178.188568,269.352708 167.797407,273.32496 C157.406245,277.297212 130.860512,286.799834 123.622394,289.419824" id="Shape"></path>
            </g>
        </g>
    </g>
</svg>