<?xml version="1.0" encoding="UTF-8"?>
<svg width="283px" height="302px" viewBox="0 0 283 302" version="1.1" xmlns="http://www.w3.org/2000/svg" xmlns:xlink="http://www.w3.org/1999/xlink">
    <!-- Generator: Sketch 52.6 (67491) - http://www.bohemiancoding.com/sketch -->
    <title>scribble1</title>
    <desc>Created with Sketch.</desc>
    <g id="Page-1" stroke="none" stroke-width="1" fill="none" fill-rule="evenodd">
        <g id="scribble1" transform="translate(-9.000000, -9.000000)">
            <rect id="Rectangle" fill="#FFFFFF" opacity="0" x="0" y="0" width="301.434667" height="320.150904"></rect>
            <g id="Group" transform="translate(9.422831, 9.843229)" stroke="#000000">
                <path d="M88.8166174,252.137752 C89.943311,251.137782 88.7632526,257.191211 96.0244462,245.872398 C103.28564,234.553584 123.374898,202.551691 132.383779,184.224869 C141.39266,165.898046 145.642092,145.733765 150.077734,135.911462 C154.513376,126.08916 155.826989,127.053208 158.997631,125.291053 C162.168274,123.528897 164.383149,124.39728 169.101589,125.338529 C173.820029,126.279779 181.666346,128.135533 187.308271,130.938549 C192.950197,133.741565 199.868683,139.76369 202.95314,142.156626 C206.037598,144.549562 205.202052,143.627474 205.815016,145.296166 C206.42798,146.964858 206.622229,149.508156 206.630923,152.168779 C206.639617,154.829401 206.977043,157.763179 205.867182,161.259901 C204.75732,164.756623 204.705863,166.385921 199.971753,173.14911 C195.237643,179.912298 183.011338,196.551144 177.462522,201.83903 C171.913705,207.126916 170.062653,204.385038 166.678854,204.876427 C163.295055,205.367816 164.760113,207.761713 157.159728,204.787362 C149.559343,201.813011 130.336576,190.053846 121.076542,187.03032 C111.816508,184.006794 105.890914,186.136978 101.599523,186.646206 C97.3081321,187.155435 97.3986933,188.595634 95.3281955,190.085692 C93.2576976,191.575751 91.0902967,193.565511 89.176536,195.586559 C87.2627753,197.607606 84.5744931,199.539209 83.8456311,202.211976 C83.1167692,204.884744 84.2607023,208.796044 84.8033642,211.623165 C85.3460262,214.450285 86.3493596,217.316375 87.1016029,219.1747 C87.8538462,221.033025 86.3657702,221.464416 89.3168242,222.773114 C92.2678782,224.081813 95.7403174,224.533285 104.807927,227.026891 C113.875537,229.520496 134.631249,238.637717 143.722482,237.734748 C152.813716,236.831779 156.177152,226.192836 159.355326,221.609076 C162.533501,217.025315 162.305935,213.322751 162.79153,210.232186 C163.277126,207.141621 162.945898,206.881258 162.268899,203.065688 C161.591899,199.250119 163.078857,196.356138 158.729534,187.338769 C154.380211,178.3214 141.302904,157.375276 136.17296,148.961475 C131.043016,140.547673 131.427587,141.286609 127.949873,136.855961 C124.472158,132.425313 118.171964,126.526876 115.306671,122.377587 C112.441377,118.228298 109.293109,114.506514 110.758113,111.960228 C112.223116,109.413941 118.890156,108.080883 124.096691,107.099866 C129.303225,106.118849 136.646874,105.720314 141.99732,106.074127 C147.347766,106.42794 152.868906,105.060375 156.199368,109.222744 C159.52983,113.385114 161.215802,126.232858 161.980093,131.048343 C162.744384,135.863828 162.63878,130.768641 160.785113,138.115656 C158.931446,145.462671 153.121216,165.628423 150.858092,175.130434 C148.594967,184.632445 147.326568,190.606364 147.206366,195.127722 C147.086165,199.64908 149.120895,200.519933 150.136882,202.258583 C151.152869,203.997234 150.06466,205.017327 153.302289,205.559626 C156.539918,206.101926 161.530041,205.642837 169.562656,205.512381 C177.595271,205.381926 193.82021,207.513931 201.497977,204.776895 C209.175745,202.03986 212.354742,194.182584 215.629261,189.090168 C218.90378,183.997752 220.459983,177.526158 221.145093,174.222401 C221.830203,170.918644 220.761761,171.540899 219.739919,169.267626 C218.718078,166.994353 216.538765,162.993754 215.014045,160.582764 C213.489326,158.171775 218.79091,159.220159 210.591604,154.80169 C202.392299,150.383221 173.318631,137.89136 165.818214,134.07195 C158.317796,130.25254 165.001921,133.444615 165.5891,131.885231 C166.17628,130.325846 160.695513,130.31966 169.341289,124.715641 C177.987065,119.111623 207.715987,102.975107 217.463756,98.2611188 C227.211524,93.5471303 224.794899,96.5746502 227.8279,96.4317097 C230.860901,96.2887692 233.929299,96.2408346 235.661762,97.4034759 C237.394224,98.5661172 237.636679,99.7925611 238.222677,103.407558 C238.808674,107.022554 239.53909,113.901986 239.177747,119.093454 C238.816405,124.284923 237.285143,130.791134 236.054622,134.556368 C234.824101,138.321603 234.982436,138.292187 231.794622,141.684862 C228.606808,145.077537 227.430492,149.573655 216.92774,154.912419 C206.424988,160.251183 185.448758,168.250143 168.778109,173.717446 C152.10746,179.184749 129.709023,183.369065 116.903847,187.716238 C104.098672,192.063411 96.8291696,197.325886 91.9470562,199.800483 C87.0649427,202.27508 88.6076811,200.062552 87.6111663,202.56382 C86.6146514,205.065089 86.090305,211.168797 85.967967,214.808094 C85.8456291,218.447391 84.4903672,219.779408 86.8771386,224.3996 C89.26391,229.019792 95.5372094,237.248051 100.288596,242.529244 C105.039982,247.810438 111.259783,253.816803 115.385456,256.086761 C119.511129,258.356719 121.985866,256.550007 125.042633,256.148992 C128.0994,255.747978 131.211598,255.330236 133.726059,253.680673 C136.240519,252.031111 139.02856,248.618839 140.129397,246.251616 C141.230233,243.884392 141.371042,243.029637 140.331077,239.477334 C139.291112,235.925031 137.691561,232.527886 133.889608,224.937797 C130.087655,217.347709 129.663731,207.942122 117.519357,193.936802 C105.374984,179.931482 70.7361645,151.420541 61.0233651,140.905878 C51.3105657,130.391214 51.6525254,133.737904 59.242561,130.848822 C66.8325965,127.95974 92.7107754,125.038503 106.563578,123.571384 C120.416381,122.104265 135.874891,121.223789 142.359379,122.04611 C148.843866,122.868431 144.95195,125.341048 145.470501,128.505312 C145.989053,131.669576 146.092385,137.10801 145.470689,141.031693 C144.848994,144.955375 145.893639,146.168315 141.740326,152.047408 C137.587013,157.926502 126.623594,170.735784 120.55081,176.306254 C114.478025,181.876725 108.718624,182.141819 105.303618,185.470231 C101.888612,188.798643 100.803252,192.467038 100.060775,196.276728 C99.3182979,200.086418 98.7763504,203.14714 100.848757,208.32837 C102.921163,213.5096 108.279371,222.094904 112.495213,227.36411 C116.711055,232.633315 123.569651,237.160613 126.143809,239.943603 C128.717966,242.726593 127.386817,242.393504 127.940161,244.062052 C128.493504,245.730601 129.774794,247.123676 129.463871,249.954895 C129.152948,252.786113 128.657196,256.292426 126.07462,261.049364 C123.492045,265.806302 117.771306,275.268003 113.968417,278.496522 C110.165528,281.725041 108.51756,280.168527 103.257284,280.420479 C97.9970086,280.67243 86.4764713,281.664981 82.4067624,280.008232 C78.3370536,278.351483 80.9756887,279.415979 78.8390313,270.479986 C76.7023738,261.543992 71.4148664,235.048756 69.5868179,226.39227 C67.7587694,217.735784 66.4905337,223.437681 67.87074,218.541069 C69.2509463,213.644458 74.9505216,202.73056 77.8680559,197.012601 C80.7855902,191.294643 83.7718281,186.897205 85.3759458,184.233319 C86.9800634,181.569432 79.9149147,183.306908 87.4927616,181.029284 C95.0706086,178.75166 120.695451,172.883387 130.843027,170.567574 C140.990604,168.251761 140.631971,169.857651 148.37822,167.134408 C156.124469,164.411164 171.511239,157.938576 177.32052,154.228113 C183.129801,150.517649 181.880435,147.903656 183.233904,144.871626 C184.587373,141.839595 185.205619,139.219056 185.441334,136.035931 C185.677049,132.852805 185.230847,128.540527 184.648193,125.772871 C184.065539,123.005215 184.530641,122.849729 181.945411,119.429993 C179.36018,116.010256 174.537079,110.544209 169.136809,105.254452 C163.736538,99.9646953 156.2282,92.2788046 149.543785,87.6914516 C142.85937,83.1040986 136.719934,82.4806195 129.030318,77.7303343 C121.340701,72.9800491 107.812196,63.1077471 103.406086,59.1897405 C98.9999769,55.2717339 102.456722,55.3270046 102.593662,54.2222946 C102.730601,53.1175847 103.313584,52.1933603 104.227724,52.5614806 C105.141864,52.929601 107.881134,55.0517563 108.078501,56.4310167 C108.275867,57.8102771 112.270876,54.2324214 105.411922,60.8370431 C98.5529675,67.4416647 73.6420974,88.7292561 66.9247763,96.0587467 C60.2074552,103.388237 65.1720579,101.715458 65.107995,104.813986 C65.043932,107.912515 65.2981719,111.090656 66.5403984,114.649918 C67.782625,118.20918 69.6250412,121.574924 72.5613544,126.169557 C75.4976676,130.76419 78.4611744,136.34263 84.1582774,142.217715 C89.8553804,148.092799 101.955314,156.548873 106.743973,161.420063 C111.532631,166.291252 112.314015,167.726356 112.89023,171.444851 C113.466444,175.163346 116.126385,173.461167 110.20126,183.731032 C104.276134,194.000897 83.1730675,223.028195 77.3394775,233.064042 C71.5058874,243.09989 75.4740292,240.759362 75.1997195,243.946116 C74.9254097,247.13287 76.0808774,250.244533 75.6936189,252.184565 C75.3063604,254.124598 74.8366256,255.252998 72.8761685,255.586312 C70.9157114,255.919625 66.3087664,254.553658 63.9308765,254.184448 C61.5529867,253.815238 62.5934383,255.111768 58.6088294,253.371052 C54.6242204,251.630337 45.1182903,246.95365 40.0232229,243.740155 C34.9281555,240.52666 33.0453464,239.10797 28.0384248,234.090084 C23.0315032,229.072198 13.3983491,218.304827 9.98169328,213.632839 C6.56503746,208.96085 9.00533806,212.863252 7.53848985,206.058153 C6.07164163,199.253054 2.00333716,179.335217 1.18060402,172.802245 C0.357870875,166.269272 2.11504744,168.393661 2.60209098,166.860317 C3.08913452,165.326974 2.27527926,165.709957 4.10286528,163.602183 C5.9304513,161.494408 10.8159784,155.852095 13.5676071,154.213668 C16.3192358,152.57524 17.5726064,154.41046 20.6126372,153.771616 C23.6526681,153.132773 25.4698173,150.472051 31.8077921,150.380606 C38.1457669,150.289161 48.2232808,152.071263 58.6404863,153.222949 C69.0576917,154.374635 85.321323,156.809288 94.3110249,157.290722 C103.300727,157.772156 108.252661,156.639664 112.578698,156.11155 C116.904735,155.583437 117.371505,155.803424 120.267247,154.122043 C123.162989,152.440662 127.081677,150.574419 129.95315,146.023262 C132.824623,141.472104 135.925799,133.756966 137.496087,126.815097 C139.066375,119.873228 139.006,110.941709 139.374879,104.372047 C139.743758,97.8023859 138.562167,95.2475486 139.709362,87.3971288 C140.856556,79.5467089 144.44005,63.2285427 146.258044,57.2695282 C148.076038,51.3105137 149.686047,53.8226017 150.617325,51.6430419 C151.548603,49.4634821 149.793952,45.6535741 151.845712,44.1921693 C153.897472,42.7307646 157.263029,43.0304647 162.927886,42.8746132 C168.592743,42.7187618 178.663505,42.4169656 185.834856,43.2570606 C193.006206,44.0971555 202.14191,46.2236442 205.955988,47.9151827 C209.770066,49.6067212 207.73084,51.3278644 208.719322,53.4062917 C209.707805,55.484719 211.759897,57.9843341 211.886883,60.3857464 C212.01387,62.7871586 211.285245,65.3149488 209.481241,67.8147651 C207.677237,70.3145813 205.535056,73.200588 201.062858,75.3846441 C196.59066,77.5687002 187.624346,80.1256471 182.648053,80.9191018 C177.671761,81.7125564 178.763448,83.9742611 171.205103,80.145372 C163.646757,76.3164828 142.641859,63.1011379 137.297982,57.9457667 C131.954105,52.7903955 136.661056,54.1454903 139.141841,49.2131448 C141.622625,44.2807992 147.954809,32.6909327 152.182687,28.3516933 C156.410565,24.012454 162.588266,24.8096207 164.509107,23.1777087 C166.429948,21.5457968 164.541289,21.0316527 163.707734,18.5602217 C162.87418,16.0887906 162.25572,11.1498878 159.50778,8.3491223 C156.759841,5.54835685 152.606474,2.96317424 147.220097,1.75562892 C141.833721,0.548083607 133.204532,0.99770439 127.189521,1.1038504 C121.17451,1.20999642 115.070123,1.26157147 111.130029,2.39250501 C107.189936,3.52343854 106.168395,4.7887802 103.548958,7.88945161 C100.929522,10.990123 96.9687931,12.9579968 95.4134097,20.9965335 C93.8580263,29.0350702 93.3155035,47.9023144 94.2166578,56.120672 C95.1178122,64.3390296 100.790993,64.8527431 100.820336,70.3066792 C100.849679,75.7606154 96.6382739,84.0889906 94.3927178,88.844289 C92.1471617,93.5995874 91.1155953,94.9274836 87.3469993,98.8384696 C83.5784033,102.749456 76.1805536,107.330612 71.7811419,112.310205 C67.3817302,117.289798 64.9644437,123.306209 60.9505289,128.716026 C56.936614,134.125842 50.300253,140.437628 47.6976529,144.769103 C45.0950528,149.100578 45.6588595,152.51252 45.3349285,154.704875 C45.0109975,156.897229 45.1172611,156.060592 45.7540671,157.92323 C46.3908732,159.785868 47.6962058,163.639157 49.1557646,165.8807 C50.6153234,168.122243 51.212405,168.496152 54.5114198,171.372488 C57.8104346,174.248824 61.8860856,179.338757 68.9498536,183.138717 C76.0136215,186.938677 89.2071363,191.360224 96.8940273,194.172248 C104.580918,196.984271 110.499951,199.096379 115.071199,200.01086 C119.642448,200.92534 119.691917,200.740602 124.321518,199.659131 C128.95112,198.577659 135.070451,196.709841 142.848806,193.522029 C150.627161,190.334217 164.428695,184.085887 170.991647,180.532258 C177.5546,176.978629 176.923335,177.824619 182.22652,172.200254 C187.529706,166.575888 197.367176,158.133871 202.810761,146.786063 C208.254347,135.438254 211.387216,113.001553 214.888035,104.113404 C218.388854,95.2252544 221.315921,95.8951338 223.815677,93.4571666 C226.315433,91.0191995 222.365967,89.3346855 229.886572,89.4856009 C237.407176,89.6365163 261.406149,93.0552546 268.939305,94.3626592 C276.472461,95.6700638 273.904349,95.6675386 275.08551,97.3300285 C276.266671,98.9925185 275.264518,101.000985 276.026273,104.337599 C276.788029,107.674213 278.658447,112.99715 279.656041,117.349714 C280.653635,121.702278 282.052716,126.689519 282.011837,130.452982 C281.970957,134.216446 280.94047,135.84022 279.410762,139.930497 C277.881055,144.020775 275.140502,150.581956 272.833592,154.994649 C270.526682,159.407342 270.502337,163.848732 265.569303,166.406656 C260.636269,168.964579 253.654405,165.445257 243.235387,170.342189 C232.81637,175.239121 211.42162,189.080013 203.055198,195.788248 C194.688775,202.496482 195.673039,206.276328 193.036852,210.591598 C190.400665,214.906867 188.323418,216.80675 187.238076,221.679863 C186.152734,226.552976 184.743506,232.947729 186.524801,239.830278 C188.306097,246.712827 195.505874,259.097335 197.925848,262.975154 C200.345822,266.852974 199.759655,265.222253 201.044646,263.097195 C202.329638,260.972137 205.923122,252.986176 205.635798,250.224805 C205.348475,247.463434 205.434733,250.0929 199.320703,246.528969 C193.206673,242.965038 177.123178,232.904556 168.951619,228.841218 C160.78006,224.77788 163.979256,225.164001 150.291351,222.148941 C136.603446,219.133881 99.7014501,211.969824 86.8241884,210.750857 C73.9469267,209.531889 76.3192321,212.748478 73.0277807,214.835137 C69.7363292,216.921796 68.4530894,220.173941 67.0754795,223.270812 C65.6978697,226.367684 65.0434313,230.26928 64.7621215,233.416367 C64.4808118,236.563453 64.9490265,239.766938 65.3876212,242.153331 C65.8262159,244.539723 65.5139301,245.178654 67.3936899,247.734719 C69.2734497,250.290784 73.9467808,254.950152 76.6661797,257.48972 C79.3855787,260.029288 77.3982743,261.877805 83.7100834,262.972129 C90.0218925,264.066453 107.325877,264.329472 114.537034,264.055664 C121.748191,263.781856 121.515702,264.015461 126.977025,261.329278 C132.438347,258.643095 143.29696,250.023292 147.30497,247.938565 C151.312979,245.853838 147.055634,247.0121 151.02508,248.820914 C154.994526,250.629729 165.534737,255.074613 171.121646,258.791451 C176.708555,262.508288 182.040694,268.661894 184.546535,271.121939 C187.052376,273.581985 186.328498,272.15404 186.156693,273.551723 C185.984888,274.949406 184.364469,278.091568 183.515706,279.508036 C182.666942,280.924505 183.518053,280.042596 181.064113,282.050535 C178.610173,284.058474 173.240468,289.338134 168.792065,291.555671 C164.343661,293.773208 158.918867,294.429374 154.373693,295.355756 C149.828519,296.282138 146.312669,296.534957 141.521022,297.113963 C136.729375,297.692969 130.792103,299.543055 125.623811,298.829791 C120.455519,298.116527 115.04992,294.791577 110.51127,292.834379 C105.972619,290.877181 100.108172,291.189399 98.3919078,287.086602 C96.6756439,282.983806 97.5836988,276.777556 100.213686,268.217601 C102.843674,259.657647 111.699854,241.551642 114.171832,235.726875 C116.64381,229.902108 114.983764,233.351651 115.045557,233.269001 M87.2612028,254.299468 C88.7481373,253.498755 90.9037983,258.275789 98.3247233,246.78707 C105.745648,235.29835 123.157733,203.690696 131.786752,185.36715 C140.415772,167.043604 145.748573,146.886832 150.098842,136.845794 C154.44911,126.804756 154.502611,127.255309 157.888363,125.120923 C161.274115,122.986537 165.352661,122.740479 170.413352,124.039481 C175.474043,125.338483 182.455118,130.004495 188.252509,132.914936 C194.0499,135.825376 201.950323,139.684942 205.197698,141.502124 C208.445073,143.319305 207.432275,142.122408 207.736759,143.818027 C208.041243,145.513647 207.288971,148.669788 207.024604,151.675841 C206.760237,154.681895 206.976832,158.356658 206.150557,161.854347 C205.324281,165.352036 206.816434,166.112788 202.06695,172.661973 C197.317467,179.211157 183.670499,195.817336 177.653657,201.149452 C171.636815,206.481568 169.283405,204.08265 165.9659,204.654667 C162.648395,205.226685 165.022015,207.394503 157.748629,204.581555 C150.475243,201.768608 131.883363,190.676492 122.325583,187.776982 C112.767803,184.877472 105.034366,186.70809 100.401947,187.184495 C95.7695278,187.660899 96.5387486,189.104507 94.5310686,190.635412 C92.5233886,192.166316 90.0614222,194.692638 88.3558669,196.36992 C86.6503117,198.047203 84.9683002,198.310533 84.2977371,200.699106 C83.627174,203.087679 83.7948144,207.81097 84.3324885,210.701358 C84.8701626,213.591746 86.7325292,216.089526 87.523782,218.041434 C88.3150347,219.993341 86.4692463,220.521142 89.080005,222.412801 C91.6907637,224.30446 94.3654624,226.84892 103.188334,229.391389 C112.011206,231.933859 132.463406,238.960586 142.017235,237.66762 C151.571063,236.374653 156.785762,226.301014 160.511306,221.633593 C164.236849,216.966171 163.870904,212.974572 164.370496,209.663089 C164.870088,206.351605 164.460215,205.78957 163.508858,201.764693 C162.557502,197.739816 163.037459,194.436313 158.662358,185.513827 C154.287256,176.591342 142.517796,156.046966 137.258249,148.229779 C131.998701,140.412592 130.799208,142.689256 127.105075,138.610705 C123.410942,134.532153 117.646802,128.298968 115.093451,123.75847 C112.540099,119.217972 110.037573,113.938594 111.784966,111.367715 C113.53236,108.796836 120.800688,109.332304 125.577814,108.333197 C130.354941,107.334089 135.196319,105.059752 140.447726,105.373071 C145.699132,105.68639 153.749131,106.050083 157.086252,110.21311 C160.423373,114.376138 159.826558,125.806673 160.470452,130.351236 C161.114345,134.895798 162.642824,129.963746 160.949612,137.480486 C159.256401,144.997225 152.285676,165.860851 150.311182,175.451672 C148.336689,185.042493 149.06056,190.490258 149.102652,195.025411 C149.144744,199.560565 149.619391,200.880551 150.563736,202.662593 C151.50808,204.444635 151.778604,205.347804 154.76872,205.717662 C157.758836,206.08752 160.61272,204.804689 168.50443,204.881742 C176.39614,204.958796 194.349865,208.771316 202.118979,206.179982 C209.888094,203.588648 212.12344,194.650306 215.119115,189.33374 C218.11479,184.017173 219.518733,177.751429 220.093029,174.280584 C220.667325,170.80974 219.431879,170.998844 218.56489,168.508672 C217.697901,166.018501 216.299495,161.296669 214.891094,159.339557 C213.482692,157.382446 218.103289,160.96052 210.11448,156.766004 C202.125672,152.571487 174.765606,138.528581 166.958242,134.172457 C159.150878,129.816332 162.784716,132.285554 163.270297,130.629259 C163.755878,128.972963 161.256247,129.622878 169.871729,124.234683 C178.487211,118.846488 205.326542,102.768877 214.963191,98.3000885 C224.59984,93.8312996 224.372034,97.168712 227.691624,97.4219502 C231.011214,97.6751884 232.936021,99.0219051 234.880729,99.8195178 C236.825437,100.61713 238.799859,99.0835912 239.35987,102.207626 C239.919881,105.331661 239.103328,113.055168 238.240793,118.563728 C237.378258,124.072288 235.232889,131.604661 234.18466,135.258987 C233.136431,138.913313 234.920353,137.03076 231.951421,140.489683 C228.982488,143.948606 227.222077,150.852739 216.371063,156.012527 C205.520049,161.172314 183.333207,166.073976 166.845335,171.448408 C150.357464,176.822839 130.126347,183.472418 117.443835,188.259114 C104.761323,193.04581 95.7915658,197.639567 90.750262,200.168583 C85.7089582,202.6976 88.2571462,201.322666 87.196012,203.433213 C86.1348778,205.543759 84.4725044,209.279755 84.3834567,212.831861 C84.294409,216.383967 83.8447518,220.230681 86.6617258,224.745847 C89.4786997,229.261014 96.5233826,234.75468 101.2853,239.922859 C106.047218,245.091037 111.370118,253.313659 115.233232,255.754918 C119.096346,258.196178 121.404373,254.979796 124.463986,254.570416 C127.523599,254.161036 130.659041,254.385256 133.590911,253.298639 C136.522782,252.212022 140.703825,250.186491 142.055207,248.050713 C143.40659,245.914935 143.148752,244.281681 141.699207,240.483972 C140.249663,236.686264 137.565947,233.033447 133.357939,225.264463 C129.149931,217.495479 128.168746,208.194452 116.451157,193.870068 C104.733568,179.545685 72.2818505,149.867524 63.0524052,139.318161 C53.8229599,128.768798 53.8576328,133.006315 61.074485,130.57389 C68.2913372,128.141465 92.5516288,125.702012 106.353518,124.723613 C120.155408,123.745214 137.440507,124.324726 143.885822,124.703494 C150.331137,125.082261 144.675403,124.265906 145.025409,126.996219 C145.375416,129.726532 146.648427,136.826701 145.985862,141.085374 C145.323297,145.344047 145.222563,146.827183 141.050021,152.548255 C136.877479,158.269327 127.261356,169.57436 120.95061,175.411806 C114.639865,181.249253 106.573205,183.933328 103.185548,187.572934 C99.7978903,191.212539 101.047279,193.572659 100.624666,197.249441 C100.202053,200.926222 98.755964,204.474012 100.649869,209.633624 C102.543775,214.793236 107.809339,223.487885 111.988099,228.207115 C116.166859,232.926346 122.954737,235.097786 125.72243,237.949008 C128.490123,240.80023 127.809399,243.505437 128.594257,245.314449 C129.379116,247.123461 130.948732,245.79643 130.431579,248.803079 C129.914425,251.809728 128.007946,258.574311 125.491335,263.354343 C122.974725,268.134374 119.28229,274.750086 115.331915,277.48327 C111.381541,280.216454 107.242781,279.27889 101.789088,279.753446 C96.3353956,280.228002 86.2493836,282.296731 82.6097581,280.330605 C78.9701325,278.364479 82.0743124,277.059003 79.9513351,267.956692 C77.8283578,258.85438 71.9731554,233.845229 69.8718943,225.716736 C67.7706333,217.588242 65.9659929,224.101326 67.3437686,219.185729 C68.7215443,214.270132 75.5880744,201.929653 78.1385486,196.223155 C80.6890227,190.516657 80.723933,187.031336 82.6466137,184.94674 C84.5692944,182.862144 81.9379329,186.017486 89.6746329,183.715577 C97.4113329,181.413667 119.012263,173.747899 129.066814,171.135281 C139.121364,168.522664 141.900846,170.747671 150.001934,168.039869 C158.103023,165.332068 171.950948,158.701519 177.673343,154.888472 C183.395738,151.075426 183.131622,148.458289 184.336303,145.16159 C185.540983,141.86489 184.598416,138.024757 184.901427,135.108276 C185.204438,132.191794 187.038741,130.670289 186.154369,127.662701 C185.269997,124.655113 182.260593,121.186921 179.595195,117.062748 C176.929798,112.938576 174.81589,107.503081 170.161982,102.917666 C165.508074,98.332251 158.755127,94.0087482 151.671748,89.5502586 C144.58837,85.091769 135.74556,81.1741745 127.661711,76.1667285 C119.577862,71.1592825 107.103544,63.372359 103.168655,59.5055827 C99.233765,55.6388064 103.568626,54.1605329 104.052374,52.9660705 C104.536121,51.7716081 105.716303,51.9933359 106.071138,52.3388083 C106.425973,52.6842807 106.59422,53.4283898 106.181383,55.0389047 C105.768545,56.6494197 109.973291,55.1753604 103.594111,62.0018982 C97.214932,68.828436 74.218582,89.1980934 67.906306,95.9981317 C61.5940299,102.79817 65.8757469,100.023989 65.7204552,102.802128 C65.5651635,105.580267 66.149462,108.414888 66.974556,112.666964 C67.7996499,116.91904 67.8667085,123.434831 70.6710191,128.314585 C73.4753297,133.194339 77.6797411,136.417663 83.8004196,141.94549 C89.9210981,147.473317 102.688666,156.477218 107.39509,161.481545 C112.101515,166.485873 111.545269,168.05794 112.038965,171.971454 C112.532662,175.884967 116.294005,174.774416 110.357268,184.962628 C104.420531,195.15084 82.1172338,223.350545 76.4185427,233.100724 C70.7198515,242.850903 76.2292533,240.101513 76.1651214,243.463702 C76.1009895,246.825891 76.5248706,251.698457 76.0337513,253.273858 C75.542632,254.849258 75.0454157,252.9837 73.2184056,252.916105 C71.3913956,252.84851 67.3780653,253.084681 65.0716907,252.868286 C62.7653161,252.651892 63.6662589,253.244451 59.3801581,251.617737 C55.0940572,249.991024 44.5888136,245.840137 39.3550857,243.108004 C34.1213578,240.375871 32.7390387,239.827968 27.9777908,235.224937 C23.2165428,230.621906 14.2583295,220.336113 10.7875982,215.489818 C7.31686698,210.643523 8.50499526,213.555929 7.15340333,206.147168 C5.80181141,198.738407 3.76519697,177.979726 2.67804669,171.037252 C1.59089641,164.094779 0.295889742,165.812534 0.630501663,164.492329 C0.965113584,163.172124 2.35750531,164.81333 4.68571821,163.116021 C7.01393112,161.418713 12.275228,156.016961 14.5997791,154.308477 C16.9243302,152.599994 15.7516249,153.43368 18.6330249,152.865118 C21.5144249,152.296557 25.0885731,150.907111 31.888179,150.897108 C38.6877849,150.887104 48.5753325,151.668781 59.4306601,152.8051 C70.2859877,153.94142 88.2064363,157.271273 97.0201447,157.715026 C105.833853,158.158779 108.285676,156.227522 112.312911,155.467618 C116.340146,154.707713 117.877453,155.139719 121.183557,153.155601 C124.489661,151.171484 129.78715,148.288376 132.149533,143.562914 C134.511917,138.837452 134.026563,131.353733 135.35786,124.802828 C136.689156,118.251923 138.910864,110.655365 140.137314,104.257484 C141.363764,97.8596036 141.343104,94.3278583 142.716558,86.4155448 C144.090012,78.5032313 146.958555,62.7314657 148.378041,56.7836032 C149.797526,50.8357407 150.575764,52.644551 151.233471,50.7283697 C151.891177,48.8121884 150.279535,46.7994232 152.324282,45.2865153 C154.369028,43.7736074 157.605263,42.3353056 163.501947,41.6509222 C169.398631,40.9665387 180.45067,39.9316168 187.704386,41.1802146 C194.958102,42.4288124 203.567399,47.373908 207.024243,49.142509 C210.481088,50.9111099 207.987027,50.1375354 208.445454,51.7918202 C208.90388,53.446105 209.908255,56.0819565 209.774803,59.0682179 C209.64135,62.0544793 208.992712,66.9143242 207.64474,69.7093888 C206.296769,72.5044534 205.50665,74.1650337 201.686975,75.8386057 C197.8673,77.5121777 190.092037,79.2160034 184.72669,79.7508208 C179.361342,80.2856382 177.161272,82.7406493 169.49489,79.0475101 C161.828509,75.3543708 144.037285,62.8084682 138.728401,57.5919853 C133.419517,52.3755024 135.322606,52.2727196 137.641587,47.7486129 C139.960567,43.2245062 148.47592,34.474072 152.642287,30.4473452 C156.808654,26.4206184 160.507413,25.8184936 162.639788,23.5882519 C164.772164,21.3580101 166.098348,19.9104029 165.43654,17.0658946 C164.774732,14.2213864 162.064589,8.85123655 158.668938,6.52120248 C155.273288,4.19116842 150.283936,4.1464288 145.062636,3.08569028 C139.841335,2.02495176 132.735375,-0.0294846389 127.341137,0.156771354 C121.946898,0.343027346 116.668506,2.62544081 112.697204,4.20322623 C108.725902,5.78101165 106.405465,7.16831901 103.513327,9.62348387 C100.621189,12.0786487 97.2765536,11.3639331 95.3443765,18.9342154 C93.4121994,26.5044977 90.9869307,46.198251 91.9202642,55.0451779 C92.8535977,63.8921048 100.746403,66.5256653 100.944377,72.0157769 C101.142352,77.5058886 95.4779408,83.4635242 93.1081113,87.9858477 C90.7382818,92.5081711 90.0486169,95.2839025 86.7254002,99.1497175 C83.4021836,103.015532 77.5799696,106.296596 73.1688113,111.180737 C68.7576531,116.064878 64.1886024,122.742352 60.2584508,128.454562 C56.3282991,134.166772 52.070429,141.566696 49.5879014,145.453997 C47.1053737,149.341298 45.9531206,149.502457 45.3632849,151.778368 C44.7734493,154.05428 45.4005855,156.821281 46.0488873,159.109465 C46.6971892,161.397649 47.9468491,163.772924 49.2530961,165.507473 C50.559343,167.242022 50.7945178,166.432027 53.8863688,169.51676 C56.9782199,172.601493 60.6985803,179.630482 67.8042025,184.015871 C74.9098246,188.40126 88.6188046,193.398007 96.5201017,195.829095 C104.421399,198.260183 110.67083,197.772406 115.211985,198.6024 C119.75314,199.432394 119.12091,201.498293 123.767029,200.809058 C128.413148,200.119824 135.429189,197.926857 143.0887,194.466991 C150.748211,191.007125 163.021658,183.60089 169.724095,180.049863 C176.426532,176.498835 178.004218,178.757778 183.303321,173.160827 C188.602424,167.563876 196.161507,158.24112 201.518711,146.468158 C206.875914,134.695196 211.971222,111.402599 215.446542,102.523057 C218.921863,93.6435158 220.181646,95.1952159 222.370633,93.1909077 C224.55962,91.1865994 220.412638,90.6500811 228.580463,90.4972078 C236.748289,90.3443346 263.827793,91.1125376 271.377585,92.2736681 C278.927377,93.4347987 272.853664,95.7065874 273.879215,97.4639911 C274.904765,99.2213947 276.552987,99.3117402 277.530887,102.81809 C278.508787,106.324439 279.322703,113.740123 279.746615,118.502089 C280.170526,123.264055 280.077165,127.940047 280.074356,131.389886 C280.071547,134.839724 280.626151,135.256478 279.729764,139.20112 C278.833376,143.145762 277.380212,150.326713 274.69603,155.057737 C272.011847,159.788762 268.871993,164.994856 263.624667,167.587267 C258.37734,170.179678 252.910662,165.764976 243.21207,170.612201 C233.513477,175.459426 213.55574,190.197923 205.433111,196.670617 C197.310482,203.143311 197.471004,205.206149 194.476295,209.448366 C191.481585,213.690582 188.612304,216.791834 187.464853,222.123914 C186.317401,227.455995 185.844094,234.42532 187.591586,241.440849 C189.339078,248.456379 195.921519,260.436573 197.949804,264.217091 C199.978088,267.997609 198.871405,266.165935 199.761292,264.123959 C200.651179,262.081983 203.261084,255.196263 203.289126,251.965234 C203.317168,248.734205 205.925688,248.409776 199.929545,244.737783 C193.933401,241.06579 175.824452,233.440031 167.312263,229.933276 C158.800075,226.426521 162.308836,226.648075 148.856412,223.697252 C135.403988,220.746429 98.9443486,213.491192 86.5977216,212.228335 C74.2510945,210.965479 78.3801076,214.328787 74.7766499,216.120111 C71.1731921,217.911435 66.8351122,220.115798 64.976975,222.976282 C63.1188377,225.836765 63.4634008,229.788013 63.6278265,233.28301 C63.7922523,236.778008 65.4187385,241.766099 65.9635295,243.946265 C66.5083206,246.126431 65.197794,243.94928 66.896573,246.364006 C68.595352,248.778733 73.3156865,255.853771 76.1562037,258.434624 C78.9967209,261.015477 77.6597097,260.563196 83.9396763,261.849124 C90.2196428,263.135053 106.840295,266.503172 113.836003,266.150195 C120.831711,265.797219 120.629138,262.596021 125.913923,259.731265 C131.198709,256.866509 141.369899,250.799286 145.544715,248.961661 C149.719531,247.124037 146.458127,247.013884 150.962821,248.705516 C155.467514,250.397148 166.697769,255.379832 172.572877,259.111454 C178.447985,262.843076 184.083802,268.564738 186.213467,271.095247 C188.343132,273.625755 185.733635,273.258256 185.350869,274.294504 C184.968103,275.330752 184.506126,276.207213 183.916869,277.312733 C183.327611,278.418252 184.139623,278.366549 181.815322,280.927619 C179.491021,283.488689 174.666863,290.38835 169.971063,292.679155 C165.275263,294.96996 158.455385,293.622895 153.640524,294.672449 C148.825664,295.722002 145.800115,298.079668 141.081899,298.976477 C136.363683,299.873285 130.25815,300.773191 125.33123,300.0533 C120.404311,299.333409 116.326732,296.706985 111.520383,294.65713 C106.714034,292.607274 98.7162676,292.098541 96.4931343,287.754167 C94.270001,283.409794 95.2520704,277.364269 98.1815831,268.590889 C101.111096,259.817509 111.452333,241.115646 114.07021,235.113888 C116.688088,229.11213 113.73164,232.802806 113.888849,232.580343" id="Shape"></path>
            </g>
        </g>
    </g>
</svg>