<?xml version="1.0" encoding="UTF-8"?>
<svg width="163px" height="142px" viewBox="0 0 163 142" version="1.1" xmlns="http://www.w3.org/2000/svg" xmlns:xlink="http://www.w3.org/1999/xlink">
    <!-- Generator: Sketch 52.6 (67491) - http://www.bohemiancoding.com/sketch -->
    <title>smallscribble2</title>
    <desc>Created with Sketch.</desc>
    <g id="Page-1" stroke="none" stroke-width="1" fill="none" fill-rule="evenodd">
        <g id="smallscribble2" transform="translate(-9.000000, -9.000000)">
            <rect id="Rectangle" fill="#FFFFFF" opacity="0" x="0" y="0" width="180.725439" height="160.374067"></rect>
            <g id="Group" transform="translate(9.620915, 9.459084)" stroke="#000000">
                <path d="M137.249868,77.1542 C135.860326,75.9915275 142.218757,75.806779 128.525106,70.0342868 C114.831454,64.2617947 69.726837,46.6444909 55.0879574,42.5192469 C40.4490778,38.3940029 45.0706988,43.0866936 40.6918281,45.282823 C36.3129573,47.4789524 30.7672903,52.5175464 28.8147329,55.6960233 C26.8621756,58.8745001 25.0047828,58.985792 28.976484,64.3536842 C32.9481852,69.7215765 46.0759051,84.0628293 52.6449402,87.9033767 C59.2139753,91.743924 64.1896618,88.8463594 68.3906947,87.3969683 C72.5917276,85.9475772 75.5047972,82.451401 77.8511377,79.2070299 C80.1974782,75.9626587 81.808311,73.3734415 82.4687375,67.9307416 C83.1291639,62.4880416 80.6166296,52.3734631 81.8136966,46.5508304 C83.0107636,40.7281977 86.6634974,36.3270316 89.6511397,32.9949454 C92.638782,29.6628593 96.4562263,28.1927853 99.7395505,26.5583136 C103.022875,24.9238418 107.577128,24.3809253 109.351085,23.188115 C111.125041,21.9953048 111.28013,21.8539964 110.383289,19.4014519 C109.486448,16.9489074 105.960565,11.1913402 103.970038,8.47284806 C101.979511,5.75435597 102.067411,4.39964199 98.4401276,3.09049934 C94.8128444,1.78135669 87.3176154,0.161368544 82.2063388,0.617992165 C77.0950622,1.07461579 70.0333346,4.08672081 67.772468,5.83024107 C65.5116015,7.57376134 63.9308646,6.32769668 68.6411397,11.0791137 C73.3514149,15.8305308 92.0262414,28.5813461 96.034119,34.3387435 C100.041997,40.0961409 97.6565949,40.9555264 92.6884055,45.623498 C87.7202162,50.2914695 71.196815,58.2160374 66.224983,62.346573 C61.253151,66.4771085 63.0065576,66.774122 62.8574136,70.4067112 C62.7082695,74.0393005 63.4936556,79.9964914 65.3301185,84.1421085 C67.1665815,88.2877256 71.3944573,92.7270707 73.8761912,95.2804137 C76.357925,97.8337567 78.7287749,96.6738473 80.2205217,99.4621664 C81.7122685,102.250485 83.4257952,106.825408 82.826672,112.010328 C82.2275488,117.195248 78.5627523,126.825677 76.6257823,130.571688 C74.6888123,134.317699 73.3396664,133.0691 71.2048521,134.486396 C69.0700378,135.903691 67.4911933,138.377078 63.8168965,139.075459 C60.1425997,139.77384 52.6015982,138.805773 49.1590713,138.676683 C45.7165445,138.547593 45.6253284,141.480491 43.1617354,138.30092 C40.6981424,135.121349 35.6462585,136.160261 34.3775133,119.599256 C33.108768,103.038251 35.9025599,54.0560666 35.5492638,38.9348876 C35.1959677,23.8137085 37.3172998,32.3334459 32.2577365,28.8721819 C27.1981732,25.4109179 10.2152381,19.2463503 5.19188406,18.1673036 C0.168529999,17.0882568 2.77985872,17.9256839 2.11761217,22.3979015 C1.45536563,26.8701191 -0.841422181,37.4295646 1.21840476,45.0006091 C3.2782317,52.5716537 10.8637855,61.2095994 14.4765738,67.824169 C18.0893621,74.4387386 21.9535751,80.9095831 22.8951345,84.6880269 C23.8366939,88.4664708 23.5731493,88.1463575 20.1259301,90.4948319 C16.6787109,92.8433063 4.86263241,96.1875453 2.2118194,98.7788734 C-0.43899361,101.370201 3.04574286,104.034624 4.22105201,106.0428 C5.39636115,108.050977 4.83942803,109.156908 9.26367427,110.827934 C13.6879205,112.498959 21.4164947,117.468376 30.7665295,116.068953 C40.1165642,114.669531 54.2238383,105.022066 65.3638827,102.431399 C76.5039272,99.8407321 91.7872603,100.135342 97.6067961,100.524951 C103.426332,100.91456 99.3902447,101.193143 100.281097,104.769055 C101.171949,108.344967 103.78802,117.583406 102.95191,121.980422 C102.115801,126.377439 95.4471434,129.111773 95.2644385,131.151155 C95.0817336,133.190537 97.1848223,133.91566 101.855681,134.216715 C106.52654,134.51777 118.912145,133.66347 123.28959,132.957485 C127.667036,132.251499 127.372882,133.116056 128.120354,129.980801 C128.867826,126.845546 131.473042,121.207838 127.774424,114.145954 C124.075806,107.08407 108.855747,93.9210208 105.928644,87.6094979 C103.001542,81.297975 106.451483,81.1833845 110.211811,76.2768165 C113.972138,71.3702485 122.666262,62.0673695 128.49061,58.17009 C134.314959,54.2728104 141.525233,54.7131248 145.157902,52.893139 C148.790571,51.0731532 149.293392,49.8486899 150.286623,47.2501752 C151.279855,44.6516604 152.364639,43.014344 151.117289,37.3020504 C149.869939,31.5897568 144.223238,18.4730223 142.802523,12.9764136 C141.381808,7.47980494 139.883794,4.40680101 142.592998,4.3223982 C145.302201,4.23799539 156.189817,9.34085499 159.057743,12.4699968 C161.92567,15.5991385 160.272837,19.0485363 159.800556,23.0972489 C159.328276,27.1459615 162.077666,34.6582751 156.224061,36.7622722 C150.370457,38.8662693 132.650418,33.3080069 124.67893,35.7212313 C116.707441,38.1344558 115.319239,48.901943 108.395129,51.2416189 C101.471019,53.5812948 88.0687849,49.7185135 83.1342695,49.759287 C78.1997542,49.8000604 79.1691273,51.0369301 78.7880372,51.4862595 M139.056909,79.3245511 C137.712943,78.3779136 141.810025,77.0385046 128.201374,71.1221346 C114.592722,65.2057645 72.4640591,48.49827 57.4049993,43.8263306 C42.3459395,39.1543911 42.2822379,41.130087 37.847015,43.0904979 C33.4117921,45.0509089 32.0917468,52.158942 30.7936618,55.5887962 C29.4955767,59.0186504 26.3921469,58.4591898 30.0585046,63.6696231 C33.7248623,68.8800565 46.021834,83.0095017 52.7918078,86.8513962 C59.5617816,90.6932906 66.7428823,87.6733863 70.6783474,86.7209896 C74.6138125,85.768593 74.8576328,83.8170798 76.4045986,81.1370162 C77.9515643,78.4569526 79.0803343,76.3395726 79.960142,70.6406081 C80.8399498,64.9416437 80.2214397,53.2445098 81.6834452,46.9432296 C83.1454506,40.6419494 85.6086224,36.3261553 88.7321746,32.8329269 C91.8557269,29.3396986 97.0161503,27.6847557 100.424759,25.9838596 C103.833367,24.2829635 107.979444,23.8419055 109.183825,22.6275505 C110.388206,21.4131954 108.374816,20.9282031 107.651044,18.6977294 C106.927272,16.4672557 106.502388,11.7545788 104.841192,9.24470826 C103.179996,6.7348377 101.121453,4.94971699 97.6838688,3.638506 C94.2462845,2.32729501 89.3679271,0.985368282 84.2156865,1.37744231 C79.0634458,1.76951634 69.2947111,4.16517792 66.770425,5.99095017 C64.2461389,7.81672243 63.8337491,7.78562315 69.0699697,12.3320759 C74.3061904,16.8785286 94.1747518,27.3861435 98.187749,33.2696664 C102.200746,39.1531893 98.5396763,42.9517708 93.1479529,47.6332134 C87.7562294,52.3146559 70.6525174,57.70714 65.8374081,61.3583217 C61.0222988,65.0095033 64.0794378,65.6908637 64.257297,69.5403031 C64.4351562,73.3897425 65.0953045,80.1824335 66.9045635,84.4549579 C68.7138225,88.7274824 72.7271528,92.8108397 75.1128508,95.1754496 C77.4985487,97.5400595 79.7022586,96.1182952 81.2187513,98.6426173 C82.7352439,101.166939 84.8871753,105.283647 84.2118066,110.321382 C83.5364378,115.359118 79.6195305,124.513991 77.1665388,128.869029 C74.7135472,133.224067 71.6958904,134.486729 69.4938568,136.451612 C67.2918232,138.416495 67.2767342,140.032875 63.9543373,140.658329 C60.6319403,141.283783 53.2845529,140.621746 49.559475,140.204337 C45.8343972,139.786927 43.9075468,141.382209 41.6038703,138.153872 C39.3001938,134.925536 36.5419958,137.404138 35.7374162,120.834317 C34.9328366,104.264497 37.2102541,54.373523 36.7763927,38.7349496 C36.3425313,23.0963763 38.6744741,30.6719454 33.1342477,27.0028774 C27.5940213,23.3338094 8.57652793,17.6273082 3.53503446,16.7205415 C-1.50645901,15.8137748 2.84816441,16.7192526 2.88528685,21.5622772 C2.9224093,26.4053019 1.55934177,37.9762936 3.75776914,45.7786895 C5.95619652,53.5810855 13.3423946,61.8589711 16.0758511,68.3766528 C18.8093075,74.8943344 19.255888,81.2454224 20.1585079,84.8847796 C21.0611278,88.5241368 24.1091488,87.7991169 21.4915703,90.2127959 C18.8739918,92.6264749 7.29320286,97.0434656 4.45303686,99.3668536 C1.61287086,101.690242 3.74257237,102.311769 4.45057429,104.153124 C5.15857622,105.994479 3.98803591,108.908075 8.70104841,110.414985 C13.4140609,111.921895 22.9223838,114.510879 32.7286493,113.194584 C42.5349147,111.87829 56.6617723,104.894401 67.5386412,102.517215 C78.4155101,100.140029 92.6336661,98.7507154 97.9898626,98.93147 C103.346059,99.1122247 99.2287398,99.7398874 99.6758201,103.601743 C100.1229,107.463599 101.318065,117.282261 100.672344,122.102604 C100.026624,126.922946 96.0658183,130.62005 95.8014962,132.523798 C95.5371741,134.427545 94.4617306,133.448273 99.0864114,133.52509 C103.711092,133.601908 118.77744,133.490848 123.549581,132.984703 C128.321722,132.478558 127.148418,133.738927 127.719257,130.488221 C128.290095,127.237515 130.526656,120.84889 126.97461,113.480469 C123.422563,106.112048 109.368654,92.6134375 106.406978,86.2776948 C103.445303,79.9419521 105.26881,80.1862546 109.204557,75.4660123 C113.140303,70.74577 124.040697,61.9779719 130.021457,57.9562409 C136.002216,53.9345098 141.833804,53.0560888 145.089114,51.335626 C148.344425,49.6151631 148.377366,49.8220304 149.553321,47.6334638 C150.729277,45.4448973 153.692552,43.8623717 152.14485,38.2042265 C150.597148,32.5460814 142.097049,19.3961288 140.267109,13.6845931 C138.437168,7.97305741 138.08816,3.94811908 141.165206,3.93501223 C144.242252,3.92190537 155.464493,10.2197936 158.729386,13.605952 C161.994279,16.9921104 161.038209,20.8211908 160.754562,24.2519625 C160.470914,27.6827343 162.9434,32.2647125 157.027502,34.1905824 C151.111604,36.1164523 133.287237,32.9664257 125.259173,35.807182 C117.231109,38.6479383 115.973826,49.1697088 108.859117,51.2351201 C101.744408,53.3005314 87.6918103,47.7600689 82.5709189,48.19965 C77.4500274,48.6392312 78.5364019,53.4385796 78.1337683,53.8726071" id="Shape"></path>
            </g>
        </g>
    </g>
</svg>