<svg version="1.1" xmlns="http://www.w3.org/2000/svg" viewBox="0 0 409.3053761257079 131.8976931196931">
  <!-- svg-source:excalidraw -->
  
  <defs>
    <style>
      @font-face {
        font-family: "Virgil";
        src: url("https://excalidraw.com/FG_Virgil.woff2");
      }
      @font-face {
        font-family: "Cascadia";
        src: url("https://excalidraw.com/Cascadia.woff2");
      }
    </style>
  </defs>
  <g><g transform="translate(9.989659718237817 81.84797888062894) rotate(0 194.66302834461612 -15.8991323207824)"><path d="M0.9635927941650151 -0.8122328605502844 C6.248551732922594 0.26596032318969565, 24.046369189644857 7.053950221712391, 31.36149462722242 7.6587131533771755 C38.676620064799984 8.26347608504196, 41.79052727880577 4.462978358442585, 44.854345419630405 2.8163447294384243 C47.91816356045504 1.1697111004342637, 49.25112684033811 -0.1534254557142658, 49.744403472170234 -2.2210886206477882 C50.23768010400236 -4.288751785581311, 48.97873346668978 -5.736516917372743, 47.814005210623144 -9.589634260162711 C46.649276954556505 -13.44275160295268, 42.01753254197538 -21.9633590148141, 42.75603393577039 -25.339792677387596 C43.4945353295654 -28.716226339961093, 49.22876674197614 -29.725598069652914, 52.24501357339322 -29.84823623560369 C55.26126040481031 -29.970874401554465, 60.12289749247332 -29.03376061183711, 60.85351492427289 -26.075621673092247 C61.584132356072466 -23.117482734347384, 54.51390184424818 -15.560873171314597, 56.62871816419065 -12.099402603134513 C58.74353448413312 -8.637932034954428, 68.65091309808194 -5.827227903033297, 73.54241284392774 -5.306798264011741 C78.43391258977353 -4.786368624990185, 81.75051247142255 -6.720044045274458, 85.97771663926542 -8.97682476900518 C90.2049208071083 -11.233605492735903, 96.57238014005125 -15.454405419652659, 98.90563785098493 -18.847482606396078 C101.23889556191861 -22.240559793139496, 101.65242395832072 -26.003654776353937, 99.97726290486753 -29.33528788946569 C98.30210185141433 -32.66692100257744, 90.7275748460597 -35.57476581794511, 88.85467153026579 -38.837281285066595 C86.98176821447188 -42.099796752188084, 87.02948098500208 -46.74655004461248, 88.7398430101041 -48.9103806921946 C90.45020503520611 -51.07421133977672, 95.94046019973867 -51.80890526606568, 99.1168436808779 -51.82026517055929 C102.29322716201715 -51.8316250750529, 106.06397986843128 -50.98070994677643, 107.79814389693956 -48.97854011915624 C109.53230792544785 -46.97637029153606, 109.93423653590891 -42.24763942621649, 109.52182785192767 -39.80724620483816 C109.10941916794643 -37.36685298345983, 107.51658374104821 -35.6392492521909, 105.32369179305215 -34.33618079088628 C103.13079984505609 -33.03311232958166, 100.13625225486848 -32.95510985345711, 96.36447616395135 -31.988835437010426 C92.59270007303422 -31.022561020563742, 91.14866258053198 -27.221168146867836, 82.69303524754942 -28.53853429220617 C74.23740791456686 -29.855900437544502, 53.643368405724566 -39.28256747784714, 45.630712166056036 -39.89303230904043 C37.618055926387505 -40.50349714023372, 36.2080632990847 -35.00031800729533, 34.617097809538244 -32.201323279365894 C33.02613231999179 -29.40232855143646, 35.75624068044126 -25.462755044922233, 36.08491922877729 -23.09906394146383 C36.41359777711332 -20.735372838005425, 33.65122655890882 -23.171811370675766, 36.58916909955442 -18.01917665861547 C39.52711164020002 -12.866541946555177, 51.214419860268634 2.0125073188294964, 53.712574472650886 7.816744330897928 C56.21072908503314 13.62098134296636, 51.39690701030195 14.10350261864563, 51.57809677384794 16.806245413795114 C51.759286537393926 19.5089882089446, 53.623081726456675 22.37801779049138, 54.79971305392682 24.033201101794837 C55.97634438139697 25.688384413098294, 59.71994189284742 25.875396096085506, 58.6378847386688 26.737345281615852 C57.55582758449018 27.599294467146198, 52.84977185192208 29.18172558881342, 48.30737012885511 29.204896214976905 C43.764968405788146 29.22806684114039, 33.8749861544619 27.884005780393878, 31.383474400267005 26.87636903859675 C28.89196264607211 25.86873229679962, 30.74250455958148 23.638116390878956, 33.35829960368574 23.15907576419413 C35.97409464779 22.680035137509307, 40.74872599306206 25.916603806987407, 47.07824466489255 24.002125278487803 C53.40776333672304 22.0876467499882, 62.42442438068488 13.448524832104644, 71.3354116346687 11.672204593196511 C80.24639888865252 9.895884354288379, 94.51300385656457 13.367493561282753, 100.54416818879545 13.34420384503901 C106.57533252102634 13.320914128795266, 104.20213938814898 13.659728256240488, 107.52239762805402 11.532466295734048 C110.84265586795907 9.405204335227609, 117.80138094288608 5.2675669703632595, 120.46571762822569 0.5806320820003747 C123.1300543135653 -4.1063028063625095, 123.23290869655709 -10.329933492963512, 123.50841774009169 -16.58914303444326 C123.78392678362628 -22.84835257592301, 120.99885074160993 -32.236268413687746, 122.11877188943326 -36.974625166878106 C123.2386930372566 -41.712981920068465, 126.92216850382587 -42.96391744675736, 130.2279446270317 -45.01928355358541 C133.5337207502375 -47.07464966041346, 139.9295994506528 -50.11624566378693, 141.95342862866818 -49.306821807846426 C143.97725780668355 -48.497397951905924, 144.62288104953865 -43.643232719724374, 142.37091969512403 -40.1627404179424 C140.1189583407094 -36.68224811616043, 128.41156326793134 -32.51373847785096, 128.44166050218047 -28.423867997154595 C128.4717577364296 -24.333997516458236, 139.95428461494546 -20.06979988478124, 142.55150310061873 -15.623517533764243 C145.148721586292 -11.177235182747244, 147.29744401636222 -7.839391387129823, 144.02497141622007 -1.7461738910526037 C140.75249881607792 4.3470436050246155, 129.3959039396296 16.341309443488715, 122.91666749976575 20.935787442699073 C116.43743105990191 25.53026544190943, 108.5827820605288 23.419718785459796, 105.14955277703703 25.820694104209544 C101.71632349354526 28.22166942295929, 102.25005022150775 33.30783615050217, 102.31729179881513 35.34163935519755 C102.38453337612252 37.37544255989293, 103.07561776501437 37.79826000866791, 105.55300224088133 38.023513332381846 C108.03038671674828 38.24876665609578, 114.43244611682991 39.1136669550091, 117.18159865401685 36.69315929748118 C119.9307511912038 34.27265163995326, 124.31263732773562 30.13649920957784, 122.04791746400296 23.500467387214304 C119.78319760027031 16.86443556485077, 106.12300699017942 2.0626104507595295, 103.59327947162092 -3.123031636700034 C101.06355195306242 -8.308673724159597, 100.34003215494255 -8.315661268060406, 106.86955235265195 -7.613385137543082 C113.39907255036135 -6.911109007025758, 133.20646591447294 0.29389189817011363, 142.77040065787733 1.0906251464039087 C152.33433540128172 1.8873583946377037, 158.4330301112185 -0.5781107471634943, 164.2531608130783 -2.832985648140311 C170.0732915149381 -5.087860549117128, 174.85779033762714 -9.432820734009146, 177.69118486903608 -12.438624259456992 C180.52457940044502 -15.444427784904837, 178.19993197781343 -19.48180625898143, 181.25352800153195 -20.867806800827385 C184.30712402525046 -22.25380734267334, 193.8140570825587 -22.229474060361582, 196.01276101134718 -20.754627510532735 C198.21146494013567 -19.27978096070389, 195.7685697859774 -13.918251709764203, 194.44575157426297 -12.0187275018543 C193.12293336254854 -10.119203293944398, 191.59541588885088 -8.4215563621372, 188.0758517410606 -9.357482263073326 C184.55628759327033 -10.293408164009453, 177.08891098362704 -14.274003089095155, 173.32836668752134 -17.63428290747106 C169.56782239141563 -20.994562725846965, 162.8505321210871 -26.822967378919323, 165.5125859644264 -29.519161173328758 C168.1746398077657 -32.21535496773819, 180.52628760201236 -33.319861178224286, 189.30068974755704 -33.811445673927665 C198.07509189310173 -34.30303016963104, 210.62169093551734 -30.88979435029129, 218.15899883769453 -32.46866814754903 C225.69630673987172 -34.047541944806774, 231.89876604738336 -39.967121550068256, 234.5245371606201 -43.28468845747411 C237.15030827385684 -46.602255364879966, 234.75925040505828 -50.89309847416977, 233.913625517115 -52.37406959198415 C233.06800062917173 -53.85504070979854, 231.83873564265667 -53.44973602754374, 229.4507878329605 -52.1705151643604 C227.0628400232643 -50.89129430117706, 219.37776131095984 -52.896519073471424, 219.5859386589378 -44.69874441288412 C219.79411600691577 -36.50096975229681, 229.53678883574904 -10.648401225234071, 230.69985192082822 -2.9838672008365394 C231.8629150059074 4.680666823560993, 228.6518004761388 1.0626066122204065, 226.56431716941296 1.2884597335010768 C224.47683386268713 1.514312854781747, 219.39914307457704 0.4682956172774233, 218.1749520804733 -1.6287484731525184 C216.95076108636957 -3.72579256358246, 216.96479889017843 -9.41191282334427, 219.21917120479048 -11.293804809078575 C221.47354351940254 -13.175696794812879, 226.93162518205742 -13.042321281259259, 231.70118596814572 -12.92010038755834 C236.47074675423403 -12.797879493857423, 245.47336462599537 -14.890487536415458, 247.83653592132032 -10.56047944687307 C250.19970721664527 -6.23047135733068, 242.90204114777345 10.115874381239216, 245.88021374009548 13.059948149695993 C248.85838633241752 16.00402191815277, 266.384756798173 8.617019191756844, 265.7055714752525 7.103963163867593 C265.026386152332 5.590907135978341, 253.06130708035616 0.25108107947523495, 241.8051018025726 3.9816119823604823 C230.54889652478906 7.712142885245729, 207.17723526534218 26.508128752541637, 198.16833980855125 29.487148581179078 C189.15944435176033 32.46616840981652, 190.0988249515316 26.096683300055908, 187.75172906182706 21.855730954185127 C185.40463317212252 17.614778608314346, 183.0884162849436 15.295615513498584, 184.0857644703239 4.041434505954385 C185.0831126557042 -7.212746501589814, 192.75280625683564 -33.50310857755443, 193.73581817410886 -45.66935509108007 C194.71883009138207 -57.83560160460571, 193.21694662036995 -64.76135478876532, 189.98383597396315 -68.95604457519948 C186.75072532755635 -73.15073436163365, 177.25848630132774 -71.84602985841533, 174.337154295668 -70.83749380968511 C171.41582229000826 -69.82895776095489, 170.35364193382364 -65.7629542152619, 172.4558439400047 -62.9048282828182 C174.55804594618579 -60.046702350374495, 181.65247687816267 -55.47086867496729, 186.9503663327545 -53.68873821502289 C192.24825578734632 -51.90660775507848, 202.11268098274508 -60.62445899366978, 204.24318066755572 -52.21204552315176 C206.37368035236636 -43.79963205263373, 199.56566061382847 -11.844314945364992, 199.73336444161833 -3.2142573919147255 C199.9010682694082 5.4158001615355404, 203.25111826862255 2.1737690828563094, 205.24940363429488 -0.43170020245015617 C207.2476889999672 -3.037169487756622, 208.23429587886093 -15.527775849667979, 211.72307663565238 -18.84707310375352 C215.21185739244382 -22.16637035783906, 219.10389147746778 -20.31926049907646, 226.18208817504348 -20.3474837269634 C233.26028487261917 -20.37570695485034, 249.303681222367 -21.412959907221662, 254.19225682110647 -19.01641247107516 C259.08083241984593 -16.619865034928658, 253.46594573576894 -7.482905068337243, 255.51354176748018 -5.968199110084379 C257.56113779919144 -4.453493151831515, 263.3559455505972 -6.647137393323449, 266.4778330113739 -9.928176721557975 C269.5997204721506 -13.2092160497925, 271.9434612890615 -22.89590811450918, 274.24486653214035 -25.65443507949153 C276.5462717752192 -28.412962044473883, 276.8597691090866 -28.1285272439853, 280.2862644698471 -26.479338511452077 C283.7127598306076 -24.830149778918855, 291.8257471031199 -18.658199883128205, 294.80383869670334 -15.759302684292198 C297.78193029028677 -12.86040548545619, 297.815342560038 -11.93118544879059, 298.15481403134766 -9.085955318436026 C298.4942855026573 -6.240725188081463, 300.009831637765 -0.009591572110851487, 296.8406675245613 1.3120780978351831 C293.6715034113576 2.6337477677812178, 283.0610820120821 1.2339458419630924, 279.1398293521255 -1.155937298759818 C275.2185766921689 -3.5458204394827284, 274.6658832337707 -5.715787236516674, 273.3131515648216 -13.02722074650228 C271.9604198958725 -20.338654256487885, 272.239774853612 -38.861244420831405, 271.02343933843076 -45.02453835867345 C269.8071038232495 -51.1878322965155, 268.2658931485777 -48.05387485997664, 266.0151384737343 -50.00698437355459 C263.7643837988909 -51.96009388713254, 257.6507002884966 -54.27371773270972, 257.51891128937046 -56.74319544014115 C257.38712229024435 -59.21267314757258, 261.77885784795933 -64.04858007493118, 265.2244044789777 -64.82385061814318 C268.6699511099961 -65.59912116135519, 275.3337253182241 -63.64071832730305, 278.1921910754806 -61.39481869941314 C281.0506568327371 -59.14891907152324, 281.55520980959494 -54.39023491263035, 282.3751990225166 -51.34845285080373 C283.19518823543825 -48.306670788977115, 281.67494090261556 -46.5228907358611, 283.1121263530105 -43.144126328453424 C284.5493118034055 -39.76536192104575, 286.6587371659244 -33.64694298170503, 290.9983117248863 -31.075866406357683 C295.33788628384826 -28.50478983101033, 305.3561039241119 -29.56328276344356, 309.14957370678223 -27.71766687636932 C312.9430434894526 -25.872050989295083, 313.5067808767692 -22.502470093167258, 313.7591304209083 -20.002171083912252 C314.01147996504744 -17.501872074657246, 315.468327663963 -16.484629715109865, 310.6636709716171 -12.715872820839285 C305.85901427927115 -8.947115926568706, 289.3183188067128 -2.473636373504996, 284.9311902668327 2.6103702817112207 C280.5440617269526 7.694376936927437, 282.00226037365695 14.458413461223243, 284.3408997323364 17.788167110458016 C286.6795390910159 21.117920759692787, 296.3535304572433 19.581201592460275, 298.9630264189094 22.588892177119853 C301.5725223805755 25.59658276177943, 302.5178769415865 33.734852531924844, 299.99787550233305 35.83431061841547 C297.4778740630796 37.9337687049061, 286.00693312746785 36.3575376663357, 283.8430177833885 35.185640696063636 C281.6791024393092 34.01374372579157, 282.86097814900177 30.885865882411597, 287.014383437857 28.80292879678309 C291.1677887267123 26.71999171115458, 303.1727650986364 26.182617941871285, 308.7634495165199 22.68801818229258 C314.3541339344035 19.193418422713876, 315.6341356104861 10.252501689766845, 320.5584899451584 7.835330239310861 C325.48284427983066 5.4181587888548775, 336.61883236033225 4.4709280961503595, 338.3095755245537 8.18498947955668 C340.0003186887751 11.899050862963001, 330.7030719822893 25.81955813107391, 330.702948930487 30.11969853974879 C330.70282587868473 34.41983894842367, 335.0767429854721 33.94203193125625, 338.30883721373976 33.98583193160594 C341.54093144200743 34.02963193195562, 348.826608878995 33.48368234174947, 350.09551430009304 30.38249854184687 C351.3644197211911 27.28131474194427, 344.63500608863933 20.06393074927231, 345.9222697403282 15.378729132190347 C347.2095333920171 10.693527515108388, 356.8674741651863 6.494646457210183, 357.8190962102264 2.271288839355111 C358.7707182552665 -1.952068778499961, 355.63082870108383 -5.887691856051484, 351.63200201056895 -9.961416574940085 C347.6331753200541 -14.035141293828685, 336.7908696637799 -18.622516970460612, 333.8261360671371 -22.17105947397649 C330.8614024704943 -25.71960197749237, 330.4777199373891 -27.81332416596512, 333.8436004307121 -31.252671596035363 C337.2094809240351 -34.692019026105605, 348.0001482393593 -40.44642122251292, 354.0214190270752 -42.80714405439794 C360.04268981479106 -45.16786688628296, 366.01965766213834 -42.76827217005193, 369.97122515700755 -45.41700858734548 C373.92279265187676 -48.06574500463903, 378.80569400650757 -56.40346603853007, 377.73082399629055 -58.69956255815923 C376.65595398607354 -60.99565907778839, 366.8404634899149 -60.45771164956192, 363.52200509570537 -59.19358770512044 C360.20354670149584 -57.92946376067896, 362.28755253814165 -53.56549386642873, 357.8200736310333 -51.11481889151037 C353.352594723925 -48.664143916592, 340.5095059103022 -46.438771510745084, 336.71713165305556 -44.48953785561025 C332.9247573958089 -42.54030420047542, 330.2064985738446 -41.9993992374589, 335.06582808755337 -39.41941696070135 C339.92515760126213 -36.83943468394379, 359.9289659128835 -33.36233065985143, 365.87310873530805 -29.0096441950649 C371.8172515577326 -24.65695773027837, 367.6460933115334 -15.54759751620392, 370.73068502210083 -13.303298171982169 C373.8152767326683 -11.058998827760417, 381.5947744872421 -12.90700237813095, 384.3806589987129 -15.543848129734396 C387.16654351018366 -18.18069388133784, 390.09015836579107 -26.63167073391378, 387.4459920909256 -29.124372681602836 C384.8018258160601 -31.617074629291892, 375.6838522062947 -32.34436869683365, 368.5156613495201 -30.500059815868735 C361.34747049274546 -28.65575093490382, 351.6657445178678 -18.738956130171815, 344.4368469502777 -18.058519395813345 C337.2079493826876 -17.378082661454876, 331.2724127977199 -20.324936498400007, 325.1422759439796 -26.417439409717918 C319.0121390902393 -32.50994232103583, 307.7106354359184 -48.674201658847046, 307.65602582783583 -54.61353686372081 C307.6014162197533 -60.552872068594574, 320.6190546618154 -62.08697308193713, 324.81461829548437 -62.0534506389605 C329.0101819291533 -62.019928195983866, 333.1099176154781 -56.15132566071334, 332.82940762984947 -54.41240220586101 C332.54889764422086 -52.67347875100867, 324.85242828221186 -52.38786777036171, 323.1315583817128 -51.61990990984648 M0.010340281762182713 1.375740942321718 C5.69966457768033 3.1640896238510807, 26.263773832755785 8.753477829458813, 33.604933061636984 9.195380778871478 C40.94609229051819 9.637283728284142, 41.25768080635618 5.790906743767361, 44.05729565504939 4.027158638797701 C46.8569105037426 2.263410533828041, 49.45221485260875 0.8360148598377903, 50.40262215379626 -1.387107850946486 C51.35302945498377 -3.6102305617307624, 50.78220547997703 -5.138963528710107, 49.75973946217447 -9.311577625907958 C48.737273444371915 -13.484191723105809, 43.71715667609125 -22.766781107423206, 44.267826046980915 -26.42279243413359 C44.81849541787058 -30.078803760843975, 49.94093440774828 -31.180203582681717, 53.063755687512455 -31.247645586170258 C56.18657696727663 -31.3150875896588, 62.17017807924499 -30.322556556699176, 63.00475372556597 -26.827444455064832 C63.83932937188695 -23.332332353430488, 56.234847407378254 -14.307595319189131, 58.07120956543833 -10.276972976364195 C59.90757172349841 -6.24635063353926, 69.41611304644495 -2.480520472365121, 74.0229266739264 -2.6437103981152177 C78.62974030140786 -2.8069003238653143, 81.80489825490862 -8.553889389274023, 85.7120913303271 -11.256112530864776 C89.61928440574557 -13.95833567245553, 95.08377993706614 -16.234803713796037, 97.46608512643725 -18.85704924765974 C99.84839031580836 -21.479294781523446, 101.60636736328581 -23.66155370588283, 100.00592246655374 -26.989585734046997 C98.40547756982167 -30.317617762211164, 89.65834755691203 -35.06524026536683, 87.86341574604481 -38.82524141664474 C86.06848393517758 -42.58524256792264, 87.73742949069427 -47.0442317772, 89.2363316013504 -49.54959264171441 C90.73523371200653 -52.05495350622883, 93.88554646773896 -54.06966262335756, 96.85682840998165 -53.857406603731214 C99.82811035222433 -53.64515058410487, 104.60558603222357 -50.169577528076864, 107.0640232548065 -48.276056523956356 C109.52246047738943 -46.38253551983585, 111.61721958249274 -44.89299777809531, 111.6074517454792 -42.496280579008165 C111.59768390846565 -40.09956337992102, 109.4535801984387 -35.45325455598356, 107.00541623272528 -33.895753329433504 C104.55725226701186 -32.338252102883445, 100.60623287959638 -33.89037361276468, 96.9184679511987 -33.151273219707804 C93.23070302280104 -32.41217282665093, 93.36173704514367 -28.643686875057004, 84.87882666233926 -29.461150971092284 C76.39591627953486 -30.278615067127564, 54.41183998628209 -37.99090238555024, 46.021005654372274 -38.05605779591948 C37.63017132246246 -38.121213206288715, 36.44373356266568 -32.24102468991031, 34.533820670880374 -29.85208343330771 C32.62390777909507 -27.4631421767051, 34.00396417263895 -25.79206317011267, 34.56152830366045 -23.722410256303846 C35.11909243468195 -21.652757342495022, 34.568715491332114 -22.683554365870854, 37.87920545700938 -17.434165950454773 C41.18969542268664 -12.184777535038691, 52.458298798042044 1.6327125789349273, 54.424468097724024 7.773920236192644 C56.390637397406 13.91512789345036, 49.3650175595656 16.947826124591135, 49.67622125510126 19.413079993091525 C49.98742495063692 21.878333861591916, 54.75303722186635 21.629736710550887, 56.29169027093798 22.565443447194994 C57.830343320009604 23.5011501838391, 59.953932085074484 23.59596508876731, 58.90813954953104 25.02732041295618 C57.8623470139876 26.458675737145047, 54.69561759515355 31.1115971153602, 50.01693505767733 31.153575392328204 C45.33825252020111 31.195553669296206, 33.53344409390042 26.84720041728268, 30.83604432467371 25.27919007476419 C28.138644555447 23.711179732245704, 31.42082181894531 22.03054314232121, 33.83253644231707 21.74551333721727 C36.24425106568883 21.460483532113333, 39.29044486208509 25.10813041742891, 45.306332064904275 23.569011244140565 C51.32221926772346 22.02989207085222, 60.47543700261662 13.818798098725576, 69.9278596592322 12.510798297487199 C79.38028231584778 11.202798496248821, 95.77385691567014 15.635509646497667, 102.02086800459773 15.721012436710298 C108.26787909352532 15.80651522692293, 104.01658879720917 15.657153000198305, 107.40992619279773 13.023815038762987 C110.80326358838629 10.390477077327668, 119.65119653069725 5.015806203447282, 122.38089237812906 -0.07901533190160981 C125.11058822556087 -5.173836867250502, 123.91892889543126 -11.428913637635606, 123.78810127738863 -17.545114173330365 C123.657273659346 -23.661314709025124, 120.75828727487475 -32.26537118776391, 121.5959266698733 -36.77621854607016 C122.43356606487184 -41.28706590437641, 125.40216107332458 -42.63259517415116, 128.81393764737993 -44.61019832316786 C132.22571422143528 -46.58780147218455, 139.5570204242443 -49.36842942817758, 142.06658611420542 -48.64183744017035 C144.57615180416653 -47.91524545216312, 146.34039014859746 -43.67151205205669, 143.87133178714663 -40.2506463951245 C141.4022734256958 -36.829780738192305, 127.39991225484758 -31.86979104383538, 127.25223594550043 -28.116643498577176 C127.10455963615328 -24.36349595331897, 140.3608719806249 -22.18107117239386, 142.98527393106372 -17.73176112357527 C145.60967588150254 -13.282451074756683, 146.62111966772625 -7.932024394112329, 142.99864764813333 -1.4207832056656478 C139.3761756285404 5.090457982781034, 127.70802388711522 16.823294522129, 121.25044181350619 21.335686007104815 C114.79285973989715 25.84807749208063, 107.42451310558866 23.538994869949917, 104.25315520647914 25.65356570418924 C101.08179730736961 27.768136538428564, 101.9959246441101 31.632089588803552, 102.22229441884905 34.02311101254076 C102.44866419358799 36.41413243627797, 103.0033380111431 39.63226088897636, 105.61137385491281 39.99969424661249 C108.21940969868253 40.36712760424862, 115.49893948598455 38.68508941825479, 117.87050948146731 36.22771115835756 C120.24207947695007 33.770332898460325, 122.15636066043129 31.835491761925322, 119.84079382780939 25.255424687229098 C117.5252269951875 18.675357612532874, 106.08250135544688 2.3351162761077284, 103.97710848573595 -3.252691289819777 C101.87171561602503 -8.840498855747283, 100.86872753782819 -9.17083399557819, 107.20843660954387 -8.271420708335937 C113.54814568125954 -7.372007421093683, 132.72373590353877 1.4035340946540233, 142.01536291603 2.1437884336337447 C151.30698992852123 2.884042772613466, 156.92149658604214 -1.71290453457584, 162.9581986844912 -3.8298946744576097 C168.99490078294028 -5.946884814339379, 174.84687815630187 -7.5847254854813215, 178.23557550672442 -10.558152405656873 C181.62427285714696 -13.531579325832425, 180.59567366444816 -19.51485071444263, 183.29038278702646 -21.670456195510923 C185.98509190960476 -23.826061676579215, 192.55514751477787 -24.903220407006643, 194.40383024219423 -23.491785292066634 C196.2525129696106 -22.080350177126626, 195.51867088242122 -15.158225269553562, 194.3824791515246 -13.201845505870878 C193.24628742062797 -11.245465742188195, 191.45171129667511 -11.125925279296935, 187.58667985681444 -11.753506709970534 C183.72164841695377 -12.381088140644133, 174.81691076600305 -14.166508017616966, 171.19229051236064 -16.967334089912473 C167.56767025871824 -19.76816016220798, 163.0451274447019 -25.672101170060536, 165.83895833496004 -28.558463143743573 C168.63278922521818 -31.44482511742661, 179.39905542456853 -33.874298568007845, 187.95527585390954 -34.28550593201071 C196.51149628325055 -34.69671329601357, 209.15444869323323 -29.760071647005777, 217.17628091100605 -31.025707327760756 C225.19811312877886 -32.29134300851574, 233.2333763424928 -38.36356632176787, 236.08626916054635 -41.87932001654059 C238.9391619785999 -45.39507371131331, 235.2636756933108 -50.49000923617433, 234.29363781932742 -52.12022949639708 C233.32359994534403 -53.75044975661983, 232.71934292081744 -52.825811929938695, 230.26604191664606 -51.6606415778771 C227.81274091247468 -50.49547122581551, 219.6378768043096 -53.03153958860784, 219.5738317942992 -45.12920738402754 C219.5097867842888 -37.226875179447234, 228.69150268558414 -11.786155835228662, 229.88177185658367 -4.246648350395263 C231.0720410275832 3.292859134438137, 228.77902142727126 -0.04486127201467757, 226.71544682029634 0.10783752497285604 C224.6518722133214 0.26053632196038967, 218.95690316283455 -1.5844841053461034, 217.50032421473415 -3.330455568470061 C216.04374526663375 -5.076427031594019, 215.57480812990417 -8.875902020769816, 217.9759731316939 -10.367991253770889 C220.37713813348364 -11.860080486771961, 226.66907625361034 -12.25164634966602, 231.9073142254725 -12.2829909664765 C237.14555219733467 -12.314335583286981, 246.75298756324997 -15.00168331924826, 249.40540096286685 -10.556058954633773 C252.05781436248373 -6.1104345900192865, 245.2404080256199 11.913434905769924, 247.8217946231738 14.39075522121042 C250.40318122072767 16.868075536650917, 265.928836420017 5.81444522317499, 264.8937205481902 4.307862938009203 C263.85860467636337 2.801280652843416, 252.9932696656191 1.2370343075391164, 241.61109939221294 5.3512615102157 C230.22892911880678 9.465488712892284, 205.20550713696113 25.919643669743927, 196.60069890775313 28.9932261540687 C187.99589067854512 32.066808638393475, 191.95539322345917 27.893737514123664, 189.98225001696497 23.792756416164337 C188.00910681047077 19.69177531820501, 184.21238354964802 15.78945005989323, 184.761839668788 4.387339566312731 C185.311295787928 -7.014770927267769, 192.32019527280082 -32.207918923137086, 193.2789867318049 -44.61990654531866 C194.237778190809 -57.03189416750024, 193.45675499959538 -66.02108119789511, 190.51458842281252 -70.08458616677672 C187.57242184602967 -74.14809113565832, 178.56499119682857 -69.8182191374277, 175.62598727110773 -69.0009363586083 C172.6869833453869 -68.1836535797889, 170.98495472713063 -67.43310849275794, 172.88056486848743 -65.1808894938603 C174.77617500984422 -62.92867049496267, 181.40534786682224 -57.32537508931369, 186.99964811924846 -55.48762236522248 C192.59394837167468 -53.64986964113127, 204.4435540678192 -63.07976938049886, 206.44636638304482 -54.15437314931303 C208.44917869827043 -45.2289769181272, 199.06797798739478 -10.6123755250747, 199.01652201060205 -1.9352449781075118 C198.9650660338093 6.741885568859676, 203.82887510127432 0.3938380176023961, 206.1376305222884 -2.0915898675099016 C208.44638594330246 -4.577017752622199, 209.6318450072071 -13.673801452895297, 212.86905453668643 -16.8478122887813 C216.10626406616578 -20.0218231246673, 219.0119980916328 -20.594888139972007, 225.56088769916445 -21.13565488282591 C232.10977730669612 -21.676421625679815, 247.391827553491 -22.601410220245885, 252.16239218187638 -20.092412745904724 C256.93295681026177 -17.583415271563563, 251.7408857435077 -7.893791510216217, 254.1842754694767 -6.0816700367789505 C256.6276651954457 -4.269548563341684, 263.8265096106221 -6.039395930548874, 266.82273053769023 -9.219683905281126 C269.81895146475836 -12.399971880013378, 269.82161088055955 -22.16697691083838, 272.1616010318854 -25.16339788517246 C274.5015911832113 -28.159818859506544, 277.01790150226043 -28.929776347941228, 280.8626714456454 -27.198209751285614 C284.70744138903035 -25.46664315463, 292.2602500466878 -18.26661091549943, 295.230220692195 -14.773998305238784 C298.2001913377022 -11.28138569497814, 298.35639896873386 -9.087281290131312, 298.68249531868844 -6.242534089721739 C299.008591668643 -3.397786889312168, 300.0974742798383 1.5783839497591057, 297.1867987919226 2.2944848972186445 C294.27612330400694 3.0105858446781832, 285.44749819679805 1.019598264458279, 281.2184423911944 -1.9459284049645067 C276.98938658559075 -4.911455074387293, 273.74396949891 -8.473682698247334, 271.81246395830067 -15.498675119318069 C269.8809584176913 -22.523667540388804, 270.417941652971 -38.461672561404605, 269.62940914753824 -44.095882931388914 C268.84087664210546 -49.73009330137322, 269.04911953946845 -47.22276017127471, 267.0812689257041 -49.30393733922392 C265.1134183119397 -51.385114507173135, 257.6978386192467 -54.34935409138061, 257.8223054649521 -56.58294593908418 C257.9467723106575 -58.816537786787755, 264.15618844541217 -61.783310429888466, 267.8280699999363 -62.70548842544536 C271.49995155446044 -63.62766642100225, 277.30476117523847 -64.08886438722593, 279.85359479209694 -62.116013912425544 C282.4024284089554 -60.14316343762516, 282.87675127254533 -54.17227683346364, 283.12107170108703 -50.86838557664305 C283.36539212962873 -47.56449431982246, 279.6593803588922 -45.845896808315246, 281.31951736334713 -42.29266637150198 C282.9796543678021 -38.739435934688714, 288.6426137314329 -31.681249318756123, 293.08189372781663 -29.549002955763434 C297.52117372420037 -27.416756592770746, 304.6349081307738 -31.05542298783329, 307.95519734164964 -29.49918819354584 C311.2754865525255 -27.942953399258393, 312.7260093600214 -22.744355024902955, 313.00362899307163 -20.211594190038742 C313.28124862612185 -17.67883335517453, 314.5107878502582 -18.18897705896447, 309.6209151399508 -14.302623184360563 C304.73104242964337 -10.416269309756656, 287.6576836010193 -2.4956504065170884, 283.664392731227 3.106529057584703 C279.6711018614347 8.708708521686495, 282.8528728469585 15.843112202249467, 285.661169921197 19.310453600250185 C288.4694669954354 22.7777949982509, 297.9164585340395 21.242396623454987, 300.5141751766577 23.910577445589006 C303.1118918192759 26.578758267723025, 304.11321808739257 33.2873017340526, 301.2474697769061 35.31953853305429 C298.3817214664196 37.351775332055986, 285.6723690363144 37.524293598495426, 283.3196853137389 36.10399823959917 C280.96700159116335 34.68370288070292, 283.1665794309353 29.205346093736587, 287.13136744145305 26.79776637967676 C291.0961554519708 24.39018666561693, 301.4620459672188 24.70942528422922, 307.1084133768454 21.65851995524019 C312.75478078647205 18.607614626251163, 315.6913585702951 10.791994630259772, 321.0095718992129 8.492334405742586 C326.3277852281307 6.192674181225399, 337.43256289446106 4.177541029614707, 339.0176933503524 7.860558608137071 C340.6028238062437 11.543576186659434, 330.62598323984696 26.47887169258048, 330.52035463456065 30.590439876876772 C330.41472602927433 34.70200806117306, 334.8116704690829 32.67659330861022, 338.38392171863467 32.529967713914814 C341.9561729681864 32.38334211921941, 350.6688551322992 32.48257558799038, 351.9538621318713 29.710686308704318 C353.2388691314434 26.93879702941825, 345.04089538379264 20.746097095174093, 346.0939637160674 15.89863203819841 C347.1470320483421 11.051166981222728, 357.26915719036015 4.835954623781144, 358.2722721255198 0.6258959668502211 C359.27538706067946 -3.584162690080702, 355.9373372479653 -5.373625345068673, 352.1126533270255 -9.36171990338713 C348.2879694060857 -13.349814461705586, 338.41542131507146 -19.3897574760889, 335.3241685998812 -23.302671383060513 C332.23291588469095 -27.215585290032127, 330.66127275430904 -29.42529862149308, 333.56513703588394 -32.83920334521681 C336.46900131745883 -36.25310806894054, 346.73120544914156 -41.38384782099475, 352.74735428933053 -43.78609972540289 C358.7635031295195 -46.18835162981103, 365.83032234553247 -44.52334005180746, 369.66203007701785 -47.25271477166563 C373.4937378085032 -49.9820894915238, 376.9239737852787 -58.61026497864475, 375.73760067824276 -60.16234804455191 C374.5512275712068 -61.714431110459074, 365.6988252143438 -58.24891174538682, 362.54379143480213 -56.565213167108595 C359.38875765526046 -54.88151458883037, 361.4177269745246 -52.23527522508055, 356.80739800099286 -50.06015657488257 C352.1970690274611 -47.88503792468459, 338.4935424284513 -45.65200393660615, 334.8818175936118 -43.5145012659207 C331.2700927587723 -41.37699859523525, 329.89406983458747 -39.69707191967716, 335.1370489919558 -37.23514055076986 C340.3800281493241 -34.77320918186257, 360.2609225555633 -32.573231859840455, 366.3396925378218 -28.742913052476943 C372.4184625200803 -24.912594245113432, 368.5642686415091 -16.076244255142907, 371.60966888550666 -14.253227706588804 C374.6550691295042 -12.430211158034702, 381.81803916338833 -15.127820124464732, 384.6120940018073 -17.804813761152328 C387.40614884022625 -20.481807397839926, 391.1467250879978 -28.399423090852796, 388.37399791602047 -30.315189526714384 C385.6012707440431 -32.23095596257597, 375.3498304029679 -31.240837089853983, 367.97573096994313 -29.299412376321854 C360.6016315369184 -27.357987662789725, 351.1299450334286 -18.945869494515158, 344.1294013178721 -18.666641245521603 C337.12885760231563 -18.38741299652805, 332.22740258010543 -21.66315096657369, 325.9724686766043 -27.624042882360516 C319.7175347731032 -33.584934798147344, 307.1600422240812 -48.34913024812402, 306.5997978968653 -54.43199274024258 C306.0395535696494 -60.514855232361136, 318.15112167322394 -64.09026538185596, 322.61100271330884 -64.12121783507187 C327.07088375339373 -64.15217028828779, 333.2473082336161 -57.038797520578235, 333.3590841373746 -54.61770745953808 C333.47086004113316 -52.19661739849793, 325.2782807440789 -50.32368098674249, 323.2816581358601 -49.59467746883094" stroke="#000000" stroke-width="1" fill="none"></path></g></g></svg>