<?xml version="1.0" encoding="UTF-8"?>
<svg viewBox="0 0 361 98" version="1.1" xmlns="http://www.w3.org/2000/svg" xmlns:xlink="http://www.w3.org/1999/xlink">
    <!-- Generator: Sketch 52.6 (67491) - http://www.bohemiancoding.com/sketch -->
    <title>Group</title>
    <desc>Created with Sketch.</desc>
    <g id="Page-1" stroke="none" stroke-width="1" fill="none" fill-rule="evenodd">
        <g id="GitHub_Logo" transform="translate(-87.000000, -620.000000)" fill="#AAAAB1">
            <g id="Group" transform="translate(87.000000, 620.000000)">
                <path d="M69.37,41.7 L39.09,41.7 C38.3112785,41.7 37.68,42.3312785 37.68,43.11 L37.68,57.91 C37.6799806,58.6903556 38.3096637,59.3245045 39.09,59.33 L50.9,59.33 L50.9,77.7 C50.9,77.7 48.25,78.61 40.9,78.61 C32.25,78.61 20.17,75.45 20.17,48.88 C20.17,22.31 32.75,18.82 44.56,18.82 C54.78,18.82 59.19,20.62 61.99,21.48 C62.4037643,21.5601569 62.831756,21.4523744 63.1582038,21.1858076 C63.4846516,20.9192408 63.6758207,20.5214363 63.68,20.1 L67.09,5.8 C67.106525,5.36306707 66.9039653,4.94669441 66.55,4.69 C65.41,3.88 58.47,2.84217094e-14 40.93,2.84217094e-14 C20.72,2.84217094e-14 0,8.59 0,49.92 C0,91.25 23.73,97.4 43.72,97.4 C60.28,97.4 70.33,90.33 70.33,90.33 C70.6509367,90.072112 70.8201548,89.6697489 70.78,89.26 L70.78,43.1 C70.7745047,42.3251866 70.1448329,41.6999805 69.37,41.7 Z" id="Path"></path>
                <path d="M226.230036,4.42000001 C226.23539,4.04524382 226.090257,3.68398869 225.827124,3.41709614 C225.56399,3.1502036 225.20483,2.99996176 224.830036,3.00000001 L207.830036,3.00000001 C207.454341,2.99999056 207.094178,3.14991563 206.829463,3.41650869 C206.564747,3.68310174 206.417371,4.04431513 206.420036,4.42000001 L206.420036,37.35 L179.820036,37.35 L179.820036,4.42000001 C179.8227,4.04431513 179.675324,3.68310174 179.410608,3.41650869 C179.145893,3.14991563 178.78573,2.99999056 178.410036,3.00000001 L161.410036,3.00000001 C161.034341,2.99999056 160.674178,3.14991563 160.409463,3.41650869 C160.144747,3.68310174 159.997371,4.04431513 160.000036,4.42000001 L160.000036,93.6 C160.000016,94.3803556 160.629699,95.0145045 161.410036,95.02 L178.410036,95.02 C179.190372,95.0145045 179.820055,94.3803556 179.820036,93.6 L179.820036,55.45 L206.380036,55.45 L206.330036,93.6 C206.335485,94.381976 206.96806,95.0145505 207.750036,95.02 L224.830036,95.02 C225.203994,95.0173572 225.561585,94.8662635 225.824138,94.5999598 C226.086691,94.3336561 226.232697,93.9739581 226.230036,93.6 L226.230036,4.42000001 Z" id="Path"></path>
                <path d="M101.999547,16.9000043 C101.944437,10.8381952 96.9954341,5.96354885 90.9334854,6.00020539 C84.8715367,6.03686193 79.9818476,10.9710028 80.0000507,17.033035 C80.0182538,23.0950672 84.937487,27.9997538 90.9995465,28.0000043 C93.934337,28.0001255 96.747492,26.8274832 98.813291,24.7429042 C100.87909,22.6583253 102.026226,19.8346734 101.999547,16.9000043 Z" id="Path"></path>
                <path d="M100.88,75.58 L100.88,34.42 C100.880019,33.6396444 100.250336,33.0054955 99.47,33 L82.47,33 C81.6473008,33.0717193 81.0122678,33.7542718 81,34.58 L81,93.58 C81,95.31 82.08,95.83 83.47,95.83 L98.78,95.83 C100.46,95.83 100.87,95 100.87,93.55 L100.88,75.58 Z" id="Path"></path>
                <path d="M290.41,33 L273.53,33 C272.748054,33.0109374 272.119924,33.6479778 272.12,34.43 L272.12,78.16 C269.033445,80.1899424 265.424201,81.2807054 261.73,81.3 C255.63,81.3 254.01,78.53 254.01,72.56 L254.01,34.43 C254.015573,33.6496093 253.390333,33.0109718 252.61,33 L235.41,33 C234.628054,33.0109374 233.999924,33.6479778 234,34.43 L234,75.43 C234,93.16 243.89,97.5 257.49,97.5 C268.64,97.5 277.63,91.34 277.63,91.34 C277.774239,92.5604969 277.984548,93.7722755 278.26,94.97 C278.50771,95.4282398 278.979434,95.7211648 279.5,95.74 L290.42,95.74 C291.201946,95.7290626 291.830076,95.0920222 291.83,94.31 L291.83,34.43 C291.832664,34.0516629 291.684235,33.6879061 291.417644,33.4194377 C291.151053,33.1509693 290.788346,32.9999906 290.41,33 Z" id="Path"></path>
                <path d="M337.040036,30.33 C331.376992,30.2958806 325.807886,31.7770625 320.910036,34.62 L320.910036,4.42 C320.9127,4.04431512 320.765324,3.68310174 320.500608,3.41650868 C320.235893,3.14991563 319.87573,2.99999055 319.500036,3 L302.410036,3 C302.034341,2.99999055 301.674178,3.14991563 301.409463,3.41650868 C301.144747,3.68310174 300.997371,4.04431512 301.000036,4.42 L301.000036,93.6 C301.000016,94.3803556 301.629699,95.0145045 302.410036,95.02 L314.270036,95.02 C314.78943,95.0156012 315.264979,94.7279706 315.510036,94.27 C315.850617,92.9161542 316.091265,91.5391139 316.230036,90.15 C316.230036,90.15 323.230036,96.78 336.440036,96.78 C351.970036,96.78 360.880036,88.9 360.880036,61.41 C360.880036,33.92 346.660036,30.33 337.040036,30.33 Z M330.370036,80.58 C326.899908,80.4895341 323.511367,79.5080972 320.530036,77.73 L320.530036,49.49 C323.218198,47.9566721 326.193316,46.9933331 329.270036,46.66 C335.360036,46.11 341.270036,47.95 341.270036,62.48 C341.230036,77.8 338.580036,80.82 330.370036,80.58 Z" id="Shape" fill-rule="nonzero"></path>
                <path d="M149.610036,32.89 L136.830036,32.89 L136.830036,16 C136.830036,15.36 136.500036,15 135.760036,15 L118.320036,15 C117.640036,15 117.320036,15.3 117.320036,15.95 L117.320036,33.41 C117.320036,33.41 108.590036,35.51 108.000036,35.68 C107.404177,35.8644924 106.998484,36.4162354 107.000036,37.04 L107.000036,48.04 C106.997371,48.4156849 107.144747,48.7768983 107.409463,49.0434913 C107.674178,49.3100844 108.034341,49.4600094 108.410036,49.46 L117.340036,49.46 L117.340036,75.89 C117.340036,95.48 131.080036,97.41 140.340036,97.41 C143.755919,97.2947015 147.141722,96.7298406 150.410036,95.73 C150.91644,95.5106338 151.23476,95.0013214 151.210036,94.45 L151.210036,82.39 C151.204789,81.6101711 150.579713,80.9762292 149.800036,80.96 C149.050036,80.96 147.150036,81.27 145.180036,81.27 C138.910036,81.27 136.780036,78.35 136.780036,74.57 L136.780036,49.49 L149.610036,49.49 C149.98573,49.4900094 150.345893,49.3400844 150.610608,49.0734913 C150.875324,48.8068983 151.0227,48.4456849 151.020036,48.07 L151.020036,34.33 C151.025374,33.9516668 150.879499,33.5868485 150.614782,33.3164986 C150.350064,33.0461486 149.988397,32.8926269 149.610036,32.89 Z" id="Path"></path>
            </g>
        </g>
    </g>
</svg>