<?xml version="1.0" encoding="UTF-8"?>
<svg width="289px" height="273px" viewBox="0 0 289 273" version="1.1" xmlns="http://www.w3.org/2000/svg" xmlns:xlink="http://www.w3.org/1999/xlink">
    <!-- Generator: Sketch 52.6 (67491) - http://www.bohemiancoding.com/sketch -->
    <title>scribble3</title>
    <desc>Created with Sketch.</desc>
    <g id="Page-1" stroke="none" stroke-width="1" fill="none" fill-rule="evenodd">
        <g id="scribble3" transform="translate(-9.000000, -9.000000)">
            <rect id="Rectangle" fill="#FFFFFF" opacity="0" x="0" y="0" width="306.593104" height="290.62755"></rect>
            <g id="Group" transform="translate(9.754941, 9.942232)" stroke="#000000">
                <path d="M150.601433,167.966317 C149.544598,167.202951 144.665133,167.656374 142.599113,163.776348 C140.533094,159.896323 138.885571,148.997134 138.205318,144.686162 C137.525064,140.375191 138.050984,140.329352 138.517593,137.910518 C138.984201,135.491683 139.455272,131.899947 141.004969,130.173157 C142.554665,128.446366 143.810304,127.921465 147.815773,127.549776 C151.821243,127.178087 160.715448,126.63809 165.037787,127.943023 C169.360126,129.247957 171.492472,132.083201 173.749807,135.379376 C176.007143,138.675552 177.093868,144.871686 178.581802,147.720078 C180.069735,150.56847 180.964709,151.158147 182.67741,152.46973 C184.390111,153.781313 186.404365,155.293151 188.858007,155.589575 C191.31165,155.886 194.982647,155.180256 197.399265,154.248278 C199.815882,153.3163 201.684602,152.147113 203.357713,149.997706 C205.030824,147.848299 206.557907,143.316031 207.43793,141.351836 C208.317953,139.387642 208.833961,139.80216 208.637852,138.212537 C208.441743,136.622914 209.131145,133.810753 206.261277,131.814097 C203.391408,129.817442 199.636198,127.097713 191.41864,126.232603 C183.201082,125.367494 164.819974,127.071159 156.955926,126.623439 C149.091879,126.175719 147.682232,124.836734 144.234354,123.546284 C140.786475,122.255834 139.156066,120.857243 136.268656,118.88074 C133.381246,116.904238 128.956079,114.158903 126.909896,111.68727 C124.863712,109.215637 124.132552,107.185378 123.991556,104.050943 C123.85056,100.916508 125.139412,95.9180943 126.063918,92.8806592 C126.988424,89.8432241 124.042304,91.6180331 129.538591,85.8263325 C135.034877,80.0346319 154.094895,63.6016456 159.041636,58.1304557 C163.988377,52.6592659 159.557881,55.0180651 159.219037,52.9991934 C158.880194,50.9803218 160.830762,49.4213728 157.008576,46.0172258 C153.186391,42.6130787 140.682699,35.3350511 136.285924,32.5743111 C131.889148,29.8135711 134.608374,30.1971655 130.627923,29.4527859 C126.647471,28.7084062 116.504032,27.5789847 112.403214,28.1080333 C108.302396,28.6370818 108.466698,31.4621941 106.023016,32.6270773 C103.579334,33.7919605 99.9077193,32.8017864 97.7411241,35.0973325 C95.574529,37.3928786 94.1646177,43.3035355 93.0234448,46.400354 C91.8822719,49.4971726 90.8884548,51.1156632 90.8940868,53.678244 C90.8997189,56.2408247 91.8805529,59.9845685 93.0572371,61.7758387 C94.2339213,63.5671089 94.7203595,63.1040461 97.9541921,64.4258653 C101.188025,65.7476845 102.957895,67.9706252 112.460233,69.706754 C121.96257,71.4428828 147.158544,73.8294026 154.968217,74.842638 C162.77789,75.8558734 157.924411,74.0946158 159.318271,75.7861663 C160.712131,77.4777168 162.916193,82.4958668 163.331377,84.9919409 C163.746562,87.488015 162.926748,88.5509087 161.80938,90.7626107 C160.692012,92.9743127 159.494379,95.8481978 156.627169,98.2621529 C153.759958,100.676108 152.690069,101.542076 144.606118,105.246341 C136.522167,108.950607 115.326469,116.461493 108.123462,120.487747 C100.920454,124.514 102.505292,125.956626 101.388074,129.403862 C100.270857,132.851098 99.6485627,135.006033 101.420159,141.171164 C103.191755,147.336294 110.150053,161.212886 112.017652,166.394645 C113.885252,171.576404 113.08387,170.129311 112.625757,172.26172 C112.167644,174.39413 109.918135,177.382047 109.268972,179.189101 C108.61981,180.996155 109.943622,181.042622 108.730782,183.104045 C107.517943,185.165468 105.588737,189.10366 101.991937,191.55764 C98.3951368,194.01162 90.789829,196.34346 87.149982,197.827924 C83.510135,199.312388 88.156814,202.925219 80.1528548,200.464422 C72.1488955,198.003625 48.5695299,187.221376 39.1262265,183.063141 C29.6829231,178.904907 25.6089868,179.732889 23.4930344,175.515013 C21.377082,171.297138 25.324033,161.497171 26.4305121,157.755889 C27.5369913,154.014608 25.4958087,154.932236 30.1319093,153.067324 C34.76801,151.202413 47.7894384,146.560525 54.2471162,146.566421 C60.7047939,146.572317 63.7451769,146.785467 68.8779758,153.102703 C74.0107747,159.419938 79.8233309,176.905937 85.0439097,184.469835 C90.2644885,192.033732 93.0269156,193.959738 100.201449,198.48609 C107.375982,203.012442 119.449571,207.84314 128.091108,211.627946 C136.732644,215.412753 145.877516,218.135615 152.050667,221.194927 C158.223819,224.25424 162.986551,227.80179 165.130018,229.983823 C167.273486,232.165856 167.439588,228.737153 164.911472,234.287125 C162.383357,239.837097 155.200058,257.235499 149.961326,263.283655 C144.722593,269.331811 138.351967,269.899086 133.479078,270.576062 C128.60619,271.253038 124.139605,268.649443 120.723995,267.34551 C117.308385,266.041576 114.223409,264.816303 112.985418,262.752461 C111.747428,260.688618 112.25991,258.71794 113.296052,254.962453 C114.332194,251.206967 116.258895,246.409866 119.20227,240.219544 C122.145646,234.029222 128.814132,223.619861 130.956307,217.820521 C133.098481,212.021181 137.558196,214.53521 132.055318,205.423503 C126.552439,196.311796 104.875351,173.127051 97.9390364,163.150279 C91.0027221,153.173507 91.6360596,149.258319 90.4374315,145.562873 C89.2388034,141.867428 89.4310979,143.753798 90.747268,140.977606 C92.063438,138.201414 95.4642623,132.128118 98.3344516,128.905721 C101.204641,125.683324 96.3278907,123.620905 107.968404,121.643225 C119.608917,119.665546 157.297524,117.821788 168.17753,117.039643 C179.057536,116.257499 169.846881,120.450213 173.24844,116.950359 C176.649999,113.450505 183.836139,101.413125 188.586883,96.0405203 C193.337627,90.6679155 197.951384,86.5160386 201.752904,84.7147298 C205.554425,82.913421 208.365294,83.9264458 211.396005,85.2326676 C214.426715,86.5388894 217.245728,90.1574123 219.937167,92.5520607 C222.628607,94.9467091 226.069138,97.8203109 227.544642,99.600558 C229.020147,101.380805 228.044919,101.116619 228.790194,103.233543 C229.535469,105.350467 231.469447,108.325547 232.016291,112.302102 C232.563136,116.278656 232.774642,122.374225 232.071262,127.092868 C231.367882,131.811511 229.149457,137.812435 227.796011,140.613959 C226.442565,143.415482 226.615528,142.339052 223.950586,143.902008 C221.285644,145.464964 218.247873,145.9924 211.80636,149.991696 C205.364846,153.990991 190.117869,164.066145 185.301505,167.89778 C180.485141,171.729415 183.460951,171.5658 182.908177,172.981504 C182.355403,174.397207 181.316725,175.254952 181.98486,176.392 C182.652996,177.529048 183.515026,178.594061 186.916991,179.803793 C190.318955,181.013525 194.73895,183.115074 202.396647,183.650391 C210.054344,184.185708 226.982527,181.465692 232.863172,183.015693 C238.743817,184.565693 236.785229,188.175647 237.680518,192.950394 C238.575807,197.725142 238.300854,207.457484 238.234904,211.664176 C238.168953,215.870867 239.700907,215.408252 237.284813,218.190545 C234.868719,220.972838 228.151422,226.358075 223.738338,228.357933 C219.325254,230.35779 214.475208,230.112336 210.806309,230.189691 C207.137409,230.267046 204.261347,229.932928 201.724941,228.822062 C199.188536,227.711195 197.658426,225.524715 195.587877,223.524492 C193.517328,221.524269 191.212951,220.617428 189.301646,216.820723 C187.390341,213.024019 184.940177,205.293664 184.120045,200.744264 C183.299913,196.194865 177.471113,194.345004 184.380855,189.524327 C191.290596,184.703649 218.184425,175.857431 225.578496,171.8202 C232.972567,167.782969 228.149275,167.37487 228.745282,165.300939 C229.341289,163.227008 229.370109,161.102834 229.154539,159.376615 C228.938969,157.650396 228.594866,155.880951 227.451862,154.943626 C226.308857,154.006302 228.289971,152.38075 222.296514,153.752669 C216.303057,155.124589 201.642814,159.157094 191.491121,163.175143 C181.339428,167.193192 170.891698,172.381122 161.386354,177.860961 C151.88101,183.340801 140.326747,193.092851 134.459057,196.05418 C128.591366,199.015508 129.876757,198.94376 126.180212,195.628932 C122.483667,192.314103 116.341357,182.347304 112.279789,176.16521 C108.218221,169.983116 103.99661,162.971497 101.810802,158.536366 C99.6249939,154.101235 99.7273027,153.454795 99.1649391,149.554424 C98.6025756,145.654054 98.1347561,139.254534 98.436621,135.134143 C98.7384859,131.013752 99.9512828,127.462557 100.976129,124.832077 C102.000974,122.201598 103.255288,121.045964 104.585696,119.351267 C105.916103,117.656569 104.984033,116.738005 108.958572,114.663891 C112.933111,112.589778 124.531287,108.676614 128.432929,106.906585 C132.33457,105.136555 132.041341,105.39517 132.368422,104.043714 C132.695502,102.692258 131.341821,100.472623 130.39541,98.7978507 C129.448999,97.1230785 130.636131,96.9795913 126.689955,93.9950808 C122.743779,91.0105702 112.912834,83.6517967 106.718354,80.8907876 C100.523874,78.1297786 95.3621843,77.9079037 89.5230744,77.4290264 C83.6839645,76.9501492 78.094489,75.4682695 71.6836944,78.0175243 C65.2728999,80.5667791 57.494013,87.0118452 51.0583071,92.7245551 C44.6226012,98.4372649 36.427704,108.065498 33.0694589,112.293783 C29.7112138,116.522068 34.1524831,116.651409 30.9088368,118.094264 C27.6651904,119.537119 17.5188917,120.634336 13.6075809,120.950912 C9.69627006,121.267489 9.6475229,121.507163 7.44097195,119.993721 C5.234421,118.480278 1.07589715,114.919933 0.368275157,111.870259 C-0.339346835,108.820585 2.06861809,103.89027 3.19524,101.695678 C4.32186191,99.5010849 3.55773732,99.6274643 7.12800662,98.7027028 C10.6982759,97.7779412 16.8704887,96.4483563 24.6168558,96.1471084 C32.3632228,95.8458605 46.2998614,96.2471318 53.6062088,96.8952155 C60.9125563,97.5432991 64.5314226,97.4153721 68.4549403,100.03561 C72.3784581,102.655849 74.986677,108.423955 77.1473154,112.616645 C79.3079539,116.809335 79.0244991,121.614332 81.4187711,125.19175 C83.8130431,128.769168 86.9101436,131.75048 91.5129475,134.081152 C96.1157513,136.411824 105.164204,138.565777 109.035594,139.175781 C112.906984,139.785785 111.754278,138.638392 114.741289,137.741177 C117.728299,136.843962 122.880908,134.272668 126.957655,133.792489 C131.034403,133.312309 135.408957,132.627113 139.201772,134.8601 C142.994587,137.093086 144.392092,137.587709 149.714545,147.190409 C155.036998,156.793108 165.79075,183.906714 171.136488,192.476299 C176.482227,201.045884 176.840106,197.278313 181.788977,198.607919 C186.737848,199.937525 191.482761,201.007109 200.829714,200.453934 C210.176668,199.900759 229.398681,194.175569 237.870699,195.288868 C246.342717,196.402167 248.080206,203.728268 251.661821,207.133729 C255.243437,210.53919 258.033865,212.276318 259.360393,215.721634 C260.686922,219.16695 260.151216,224.449323 259.620993,227.805624 C259.09077,231.161925 260.216523,232.254357 256.179057,235.85944 C252.14159,239.464523 239.738662,246.711388 235.396194,249.436123 C231.053725,252.160859 231.081585,250.957179 230.124247,252.207853 C229.16691,253.458527 228.458593,254.937607 229.65217,256.940168 C230.845747,258.94273 234.413847,262.979282 237.285711,264.223219 C240.157576,265.467157 242.160519,264.746569 246.883355,264.403795 C251.606191,264.061021 260.178057,263.995894 265.622726,262.166575 C271.067396,260.337256 276.385881,256.49449 279.551371,253.427881 C282.71686,250.361272 283.644299,247.01128 284.615663,243.766924 C285.587027,240.522568 286.969737,239.092665 285.379556,233.961744 C283.789376,228.830822 283.429272,224.736215 275.074581,212.981395 C266.719889,201.226575 241.504566,174.752651 235.251408,163.432824 C228.998249,152.112996 236.734441,149.468842 237.555631,145.062429 C238.376821,140.656016 238.277381,139.446291 240.178546,136.994344 C242.079712,134.542398 246.636922,131.301839 248.962623,130.35075 C251.288323,129.39966 252.749022,131.687093 254.13275,131.287809 C255.516477,130.888526 256.914352,129.939078 257.264989,127.955047 C257.615627,125.971017 256.832411,122.14703 256.236576,119.383629 C255.640741,116.620227 255.944497,116.200708 253.689977,111.374639 C251.435458,106.54857 246.034092,95.2265902 242.709459,90.4272124 C239.384825,85.6278347 238.445229,85.6234178 233.742176,82.5783724 C229.039124,79.533327 224.659827,74.3386319 214.491145,72.1569398 C204.322462,69.9752477 181.720877,72.1885533 172.730082,69.4882199 C163.739288,66.7878865 164.007564,61.1357266 160.546379,55.9549396 C157.085194,50.7741526 153.370041,43.5135301 151.962973,38.403498 C150.555905,33.2934659 151.133457,28.7893261 152.103972,25.294747 C153.074487,21.8001678 155.585983,19.3757897 157.786063,17.436023 C159.986142,15.4962564 156.63988,16.5525229 165.304449,13.656147 C173.969017,10.7597711 202.332408,2.19313815 209.773473,0.0577677991 M149.458046,170.03803 C148.867786,169.467229 146.775699,168.906549 144.842204,164.905146 C142.90871,160.903742 139.384156,150.327955 137.85708,146.029607 C136.330003,141.731259 135.398804,141.769809 135.679744,139.115057 C135.960683,136.460304 137.316856,132.18975 139.542717,130.101093 C141.768577,128.012436 144.646211,127.139264 149.034905,126.583116 C153.4236,126.026967 161.848104,125.286579 165.874884,126.764201 C169.901664,128.241823 170.815136,131.661083 173.195584,135.44885 C175.576032,139.236616 178.472723,146.792526 180.157572,149.490801 C181.842421,152.189077 181.804076,150.466093 183.304676,151.638503 C184.805277,152.810914 187.045041,155.635529 189.161175,156.525265 C191.27731,157.415 193.693372,157.697049 196.001483,156.976915 C198.309594,156.256781 200.68665,154.327303 203.009839,152.20446 C205.333028,150.081618 208.882797,146.590823 209.940619,144.239862 C210.998441,141.888902 210.314301,140.035081 209.356772,138.098697 C208.399244,136.162313 207.334593,134.474622 204.195448,132.621558 C201.056303,130.768494 198.532555,127.888494 190.521901,126.980312 C182.511247,126.07213 164.081397,127.748677 156.131522,127.172467 C148.181647,126.596257 146.026575,124.622277 142.822652,123.523052 C139.61873,122.423827 139.753343,122.668034 136.907987,120.577115 C134.062631,118.486196 127.918057,113.409447 125.750515,110.977536 C123.582974,108.545626 123.805462,109.075684 123.902738,105.985653 C124.000013,102.895623 125.149793,95.8987729 126.334167,92.4373539 C127.518541,88.975935 125.295963,90.9822715 131.008982,85.2171396 C136.722002,79.4520077 155.789001,63.2340534 160.612283,57.8465625 C165.435566,52.4590716 160.376178,54.9903971 159.948679,52.8921942 C159.521181,50.7939912 161.78191,48.835127 158.047292,45.2573446 C154.312675,41.6795622 142.081737,33.7909411 137.540974,31.4254995 C133.000211,29.060058 134.791311,31.3214681 130.802713,31.0646954 C126.814116,30.8079227 117.745562,29.856763 113.609386,29.8848633 C109.473211,29.9129637 108.701038,30.1373946 105.985661,31.2332975 C103.270285,32.3292004 99.722579,34.0142121 97.3171251,36.4602806 C94.9116712,38.9063491 92.8682833,43.3726934 91.5529381,45.9097085 C90.2375929,48.4467237 89.4400072,49.1214868 89.4250541,51.6823716 C89.4101011,54.2432564 90.4932071,58.9850157 91.46322,61.2750173 C92.4332329,63.565019 91.4679292,64.1795717 95.2451315,65.4223814 C99.0223338,66.665191 104.044382,67.2355286 114.126434,68.7318753 C124.208485,70.2282219 148.370855,73.1900505 155.73744,74.4004613 C163.104025,75.6108721 157.258194,74.1845397 158.325944,75.99434 C159.393694,77.8041402 161.544806,82.657736 162.143938,85.2592627 C162.743071,87.8607894 162.593346,89.3553775 161.92074,91.6035003 C161.248134,93.8516231 160.657129,96.4296285 158.108303,98.7479995 C155.559476,101.066371 154.940493,102.221136 146.627779,105.513726 C138.315066,108.806317 115.950904,114.594629 108.232022,118.503542 C100.513141,122.412454 101.209484,125.252409 100.314489,128.967201 C99.4194946,132.681992 101.055379,134.098385 102.862055,140.792291 C104.668732,147.486197 109.390323,163.611172 111.154546,169.130638 C112.918769,174.650103 113.840352,171.895317 113.447391,173.909086 C113.054431,175.922855 109.9326,179.753825 108.796783,181.21325 C107.660966,182.672676 108.127076,181.165213 106.632487,182.66564 C105.137899,184.166068 102.994756,187.836691 99.8292516,190.215816 C96.6637468,192.59494 90.7610261,195.165619 87.6394588,196.940387 C84.5178915,198.715155 88.7644273,203.1156 81.0998478,200.864422 C73.4352683,198.613245 50.926139,187.717703 41.6519818,183.433321 C32.3778245,179.148939 27.794352,179.596614 25.4549043,175.158128 C23.1154566,170.719642 27.0940603,160.045445 27.6152957,156.802406 C28.1365311,153.559368 23.8746395,157.456759 28.5823167,155.699896 C33.2899938,153.943034 49.0046646,146.443266 55.8613586,146.261232 C62.7180525,146.079197 64.4461803,148.201265 69.7224805,154.607691 C74.9987807,161.014118 82.3027485,177.221968 87.5191596,184.699792 C92.7355708,192.177616 94.1252291,194.971871 101.020947,199.474633 C107.916666,203.977395 120.072822,208.069152 128.893469,211.716364 C137.714117,215.363576 148.048145,218.645292 153.944832,221.357904 C159.841518,224.070517 162.287364,225.673901 164.27359,227.992037 C166.259815,230.310172 168.700844,229.313294 165.862185,235.266719 C163.023526,241.220144 152.549687,258.250819 147.241635,263.712586 C141.933582,269.174353 138.348905,267.479882 134.013872,268.037322 C129.678839,268.594762 124.890264,268.187635 121.231437,267.057226 C117.572611,265.926816 113.321264,263.34078 112.060913,261.254865 C110.800562,259.168949 112.578215,257.812783 113.669331,254.541733 C114.760447,251.270682 115.51652,248.059448 118.60761,241.628561 C121.698699,235.197675 129.934534,221.940815 132.215867,215.956414 C134.4972,209.972013 138.221501,214.51528 132.295607,205.722156 C126.369713,196.929033 103.863575,173.530814 96.6605033,163.197672 C89.4574315,152.864529 90.2914463,147.309783 89.0771767,143.723302 C87.8629071,140.13682 87.8675828,143.985875 89.3748858,141.678782 C90.8821888,139.371688 95.3520635,133.298968 98.1209946,129.880742 C100.889926,126.462516 93.9512235,123.017164 105.988472,121.169427 C118.025721,119.321689 159.015441,119.468663 170.344488,118.794317 C181.673534,118.119971 171.067236,121.308453 173.962752,117.123352 C176.858268,112.93825 183.032678,98.7928727 187.717583,93.6837081 C192.402488,88.5745436 198.453959,87.5475492 202.072183,86.4683643 C205.690407,85.3891794 206.283205,86.5476871 209.426925,87.2085988 C212.570646,87.8695106 218.364184,88.6585363 220.934505,90.4338349 C223.504825,92.2091335 223.688851,96.005002 224.848848,97.8603903 C226.008845,99.7157786 226.734817,99.0403158 227.894488,101.566165 C229.054158,104.092014 231.462512,108.560542 231.806872,113.015484 C232.151233,117.470426 230.536878,123.921633 229.960652,128.295818 C229.384426,132.670002 228.931978,136.821046 228.349518,139.260593 C227.767058,141.70014 229.569772,140.75105 226.465893,142.933101 C223.362014,145.115152 216.263947,148.305963 209.726243,152.352901 C203.188539,156.399839 191.606006,163.644916 187.23967,167.214729 C182.873333,170.784542 184.336107,172.185236 183.528224,173.771778 C182.720342,175.358319 181.836287,175.885545 182.392377,176.733978 C182.948466,177.582411 183.429659,177.571439 186.864764,178.862375 C190.299868,180.15331 195.316557,183.916968 203.003003,184.479593 C210.68945,185.042218 227.655339,180.635789 232.983444,182.238124 C238.311549,183.840459 234.300024,189.174311 234.971633,194.093601 C235.643242,199.012891 236.912292,207.579351 237.013099,211.753865 C237.113905,215.928379 237.507996,216.236708 235.576474,219.140683 C233.644952,222.044659 229.957111,227.286598 225.423966,229.177718 C220.890822,231.068837 212.209096,230.952723 208.377608,230.487399 C204.54612,230.022074 204.64553,227.790391 202.435037,226.385771 C200.224544,224.981151 197.596456,223.829851 195.114651,222.059679 C192.632845,220.289507 189.231929,219.265072 187.544205,215.764738 C185.856481,212.264404 185.335965,205.308608 184.988309,201.057676 C184.640654,196.806744 178.856677,195.364596 185.458273,190.259146 C192.059869,185.153697 217.631299,174.321046 224.597886,170.424979 C231.564473,166.528911 226.58215,168.70026 227.257793,166.88274 C227.933436,165.065221 228.804548,161.209348 228.651745,159.519863 C228.498941,157.830378 227.598143,157.709636 226.340972,156.745828 C225.083801,155.782019 227.275039,152.911322 221.108719,153.737012 C214.942398,154.562702 199.035392,157.511784 189.343051,161.699967 C179.650709,165.888149 172.440485,172.6954 162.954672,178.866108 C153.468859,185.036816 138.606764,196.273025 132.428173,198.724214 C126.249582,201.175403 129.225813,197.101447 125.883125,193.57324 C122.540438,190.045033 116.689636,183.490778 112.372048,177.554972 C108.05446,171.619165 102.219387,162.553911 99.9775989,157.958403 C97.735811,153.362895 99.1607821,153.809281 98.921321,149.981922 C98.6818598,146.154563 98.3050399,139.196173 98.5408322,134.994248 C98.7766245,130.792323 99.3564578,127.127228 100.336075,124.770372 C101.315692,122.413517 102.640642,122.646067 104.418533,120.853115 C106.196425,119.060163 106.860392,116.385056 111.003424,114.012662 C115.146455,111.640267 125.586484,108.520722 129.276723,106.618748 C132.966961,104.716774 132.944803,103.891382 133.144857,102.600817 C133.344911,101.310253 131.322284,100.474146 130.477046,98.8753619 C129.631807,97.2765781 131.992482,95.7878912 128.073426,93.0081143 C124.15437,90.2283375 113.048074,84.9435712 106.96271,82.1967009 C100.877347,79.4498305 97.4805175,76.9989293 91.5612459,76.5268923 C85.6419744,76.0548553 78.5315397,76.8541243 71.4470809,79.3644791 C64.362622,81.8748339 55.5901642,86.1255066 49.0544929,91.5890212 C42.5188216,97.0525358 35.4945622,107.541816 32.233053,112.145567 C28.9715438,116.749318 32.4424688,117.658452 29.4854376,119.211527 C26.5284064,120.764603 18.0679534,121.401615 14.4908659,121.464021 C10.9137785,121.526428 10.2309776,121.140728 8.02291291,119.585968 C5.81484819,118.031209 1.79739503,114.844349 1.24247758,112.135463 C0.687560128,109.426577 3.81223221,105.957461 4.6934082,103.332652 C5.57458418,100.707842 3.07317858,97.6724369 6.52953349,96.386606 C9.98588841,95.1007752 17.5714457,95.8917978 25.4315377,95.6176668 C33.2916297,95.3435358 46.1054651,93.9748828 53.6900854,94.7418199 C61.2747057,95.5087571 66.8608365,97.404774 70.9392594,100.219289 C75.0176822,103.033805 76.5868117,107.397073 78.1606226,111.628913 C79.7344336,115.860752 77.9508522,121.678052 80.382125,125.610327 C82.8133978,129.542603 87.8807648,132.993481 92.7482594,135.222567 C97.615754,137.451652 105.846784,138.202382 109.587093,138.984838 C113.327401,139.767295 112.486366,140.859286 115.19011,139.917308 C117.893854,138.975331 121.753247,133.882498 125.809558,133.332974 C129.865869,132.78345 135.411953,134.09896 139.527976,136.620164 C143.643999,139.141368 145.085401,139.354438 150.505697,148.460197 C155.925993,157.565957 166.515994,182.709193 172.049753,191.254723 C177.583512,199.800253 178.816715,198.030513 183.70825,199.733379 C188.599785,201.436245 192.416933,202.548077 201.398962,201.471917 C210.380991,200.395758 229.085476,192.568273 237.600424,193.276421 C246.115373,193.984569 249.088757,202.215322 252.488654,205.720805 C255.88855,209.226288 256.745724,210.592581 257.999803,214.309317 C259.253883,218.026054 260.511812,224.571366 260.013131,228.021225 C259.51445,231.471083 258.939756,231.146817 255.00772,235.00847 C251.075683,238.870122 240.344616,248.330187 236.420914,251.19114 C232.497211,254.052093 232.297369,250.899624 231.465507,252.174186 C230.633644,253.448749 230.342305,256.92936 231.429741,258.838515 C232.517177,260.747671 235.231666,262.728208 237.990122,263.629118 C240.748578,264.530027 243.076916,264.713463 247.980478,264.243971 C252.88404,263.774479 261.829137,262.402072 267.411493,260.812166 C272.993849,259.222259 278.495849,257.846266 281.474613,254.704532 C284.453377,251.562798 284.525047,245.581314 285.284077,241.961763 C286.043107,238.342212 287.903562,237.988182 286.028792,232.987226 C284.154022,227.986271 282.424714,223.804106 274.035457,211.956029 C265.646201,200.107953 241.735372,172.861445 235.693254,161.898767 C229.651135,150.936089 236.961657,150.027553 237.782748,146.17996 C238.603839,142.332368 238.704566,141.180139 240.619801,138.813212 C242.535035,136.446284 246.728486,133.294853 249.274158,131.978394 C251.819829,130.661936 254.641695,131.521578 255.893828,130.914462 C257.145961,130.307347 256.501769,129.881964 256.786956,128.335702 C257.072143,126.789439 257.712832,124.453098 257.60495,121.636888 C257.497068,118.820678 258.311641,116.442685 256.139664,111.43844 C253.967688,106.434196 248.311106,96.3721187 244.573093,91.6114222 C240.83508,86.8507257 238.631777,86.04891 233.711584,82.8742611 C228.791391,79.6996121 225.092305,74.8199881 215.051935,72.5635285 C205.011564,70.3070688 182.695751,72.3687606 173.46936,69.3355031 C164.242969,66.3022455 162.967839,59.4593318 159.693588,54.3639832 C156.419338,49.2686346 154.674844,43.3979867 153.823858,38.7634114 C152.972871,34.1288362 153.900759,29.8432177 154.587669,26.5565315 C155.274579,23.2698452 156.078436,21.0139272 157.945316,19.0432938 C159.812195,17.0726603 157.07378,17.6779172 165.788947,14.7327309 C174.504114,11.7875447 202.559787,3.67584793 210.236317,1.37217639" id="Shape"></path>
            </g>
        </g>
    </g>
</svg>