<svg version="1.1" xmlns="http://www.w3.org/2000/svg" viewBox="0 0 37.70956466587063 40.35458306080284" width="37.70956466587063" height="40.35458306080284">
  <!-- svg-source:excalidraw -->
  
  <defs>
    <style>
      @font-face {
        font-family: "Virgil";
        src: url("https://excalidraw.com/FG_Virgil.woff2");
      }
      @font-face {
        font-family: "Cascadia";
        src: url("https://excalidraw.com/Cascadia.woff2");
      }
    </style>
  </defs>
  <g><g transform="translate(17.232743461744803 24.280243169419805) rotate(0 1.6220388711905116 -4.102951639018386)"><path d="M-1.03530147485435 -0.6374926943331958 C-0.36634066912035135 -2.605829733485977, 5.085936494544149 -10.158169776077072, 6.051089342311025 -9.718701054528356 C7.016242190077901 -9.27923233297964, 6.303926483665904 -0.5502538381765285, 4.755615611746908 1.9993196349591018 C3.2073047398279115 4.548893108094732, -1.9610955358793338 7.201397985344132, -3.2387758892029526 5.578739784285426 C-4.516456242526571 3.9560815832267195, -4.826964036747813 -5.587528270358842, -2.910466508194804 -7.736629571393133 C-0.993968979641795 -9.885730872427423, 6.053200050070883 -7.313455945129196, 8.260209282115103 -7.315868021920323 M3.5981535109877587 -3.451871109902859 C3.672669594387213 -6.474733293155829, 2.4620027249058083 -15.50516398837169, 3.5905913791060446 -14.175882922112942 C4.719180033306281 -12.846601855854194, 11.466304810146491 2.0539437062541652, 10.369685436189176 4.523815287649632 C9.27306606223186 6.993686869045099, -0.1814283218979833 2.6374840791026752, -2.989124864637852 0.6433465662598605 C-5.7968214073777204 -1.350790946582954, -8.688465551435948 -5.807143781284491, -6.476493820250035 -7.4410097894072535 C-4.264522089064121 -9.074875797530016, 7.2595388246576 -8.64113453636567, 10.282705522477627 -9.159849482476712" stroke="#000000" stroke-width="1" fill="none"></path></g></g></svg>