<?xml version="1.0" encoding="UTF-8"?>
<svg  viewBox="0 0 130 145" version="1.1" xmlns="http://www.w3.org/2000/svg" xmlns:xlink="http://www.w3.org/1999/xlink">
    <!-- Generator: Sketch 52.6 (67491) - http://www.bohemiancoding.com/sketch -->
    <title>smallscribble3</title>
    <desc>Created with Sketch.</desc>
    <g id="Page-1" stroke="none" stroke-width="1" fill="none" fill-rule="evenodd">
        <g id="smallscribble3" transform="translate(-9.000000, -9.000000)">
            <rect id="Rectangle" fill="#FFFFFF" opacity="0" x="0" y="0" width="148.17578" height="162.752593"></rect>
            <g id="Group" transform="translate(9.874945, 9.296994)" stroke="#000000">
                <path d="M5.17265193,59.0811226 C10.4856499,59.4301038 31.8237034,60.1331808 38.0359762,61.1489048 C44.248249,62.1646287 42.0657022,62.6670515 42.4462887,65.1754664 C42.8268752,67.6838813 43.4415301,71.6090589 40.3194953,76.199394 C37.1974605,80.7897291 26.5548534,89.3960966 23.7140799,92.7174771 C20.8733064,96.0388576 22.9640256,95.2240427 23.2748544,96.1276772 C23.5856832,97.0313116 23.4106036,97.0231504 25.5790527,98.1392837 C27.7475019,99.255417 33.5923941,102.933959 36.2855494,102.824477 C38.9787047,102.714995 39.5324645,99.9919304 41.7379846,97.48239 C43.9435048,94.9728496 48.7292725,91.1327859 49.5186703,87.7672345 C50.3080682,84.401683 49.2199479,80.4020133 46.4743717,77.2890812 C43.7287955,74.176149 36.6875839,72.5266104 33.0452132,69.0896415 C29.4028424,65.6526725 25.8846748,59.4044084 24.6201474,56.6672674 C23.3556201,53.9301264 24.9184025,54.7319365 25.458049,52.6667954 C25.9976956,50.6016544 25.6462091,47.0826768 27.8580268,44.2764214 C30.0698445,41.4701659 34.7354327,38.8462576 38.7289552,35.8292629 C42.7224778,32.8122682 47.7899999,28.096812 51.8191621,26.1744532 C55.8483242,24.2520944 58.0653999,24.6605568 62.9039279,24.2951101 C67.742456,23.9296634 74.7503247,20.6091512 80.8503306,23.9817731 C86.9503365,27.3543949 95.422399,37.6016245 99.5039632,44.530841 C103.585527,51.4600576 104.225263,61.3324224 105.339716,65.5570723 C106.454169,69.7817223 105.403858,68.1420844 106.190682,69.8787409 C106.977506,71.6153974 109.009638,73.9268793 110.060658,75.9770112 C111.111678,78.0271431 109.661373,79.3410185 112.4968,82.1795323 C115.332226,85.018046 125.859474,90.3280364 127.073215,93.0080936 C128.286957,95.6881508 128.277658,93.9388891 119.779249,98.2598753 C111.28084,102.580862 84.9930307,113.967892 76.0827592,118.934011 C67.1724878,123.900129 68.2431109,125.86483 66.3176205,128.056587 C64.3921301,130.248343 64.126357,129.94368 64.5298167,132.084548 C64.9332764,134.225416 65.2905758,139.105138 68.7383787,140.901795 C72.1861816,142.698452 82.0593553,143.275289 85.2166341,142.864491 C88.3739128,142.453692 86.6389659,140.694544 87.6820511,138.437004 C88.7251362,136.179463 90.7765634,133.481437 91.4751448,129.319249 C92.1737263,125.15706 94.4543294,122.872601 91.8735399,113.463874 C89.2927503,104.055147 77.6616074,81.1251116 75.9904076,72.8668883 C74.3192078,64.608665 77.0860478,66.9736497 81.8463413,63.9145342 C86.6066347,60.8554186 98.5246762,56.2541974 104.552168,54.5121949 C110.579661,52.7701925 116.082982,52.5875024 118.011295,53.4625195 C119.939608,54.3375365 118.298615,55.5918387 116.122049,59.7622974 C113.945482,63.932756 110.682794,73.1074855 104.951897,78.4852713 C99.2210007,83.8630571 89.3094976,88.4850083 81.7366689,92.0290121 C74.1638403,95.5730158 65.0301785,96.8904676 59.5149254,99.7492936 C53.9996724,102.60812 50.5203778,103.217658 48.6451507,109.181968 C46.7699236,115.146278 49.6391002,130.822874 48.263563,135.535153 C46.8880258,140.247431 43.2272515,137.890016 40.3919274,137.455638 C37.5566034,137.021259 33.5934458,135.146731 31.2516186,132.928884 C28.9097913,130.711037 26.9472087,127.157257 26.340964,124.148556 C25.7347194,121.139855 26.1125187,116.49703 27.6141508,114.876678 C29.1157829,113.256327 31.2736411,113.755287 35.3507565,114.426446 C39.4278719,115.097606 47.6156223,119.090276 52.0768432,118.903634 C56.5380642,118.716992 59.4345762,117.390844 62.1180823,113.306593 C64.8015883,109.222343 67.0193255,99.5602909 68.1778795,94.3981296 C69.3364334,89.2359684 71.6900726,92.4875934 69.0694061,82.3336261 C66.4487397,72.1796587 55.530562,44.6403748 52.4538806,33.4743254 C49.3771992,22.308276 50.3461524,20.3065703 50.609318,15.3373296 C50.8724835,10.3680889 52.8964997,5.93166732 54.032874,3.6588814 C55.1692483,1.38609549 55.3085773,2.0339399 57.4275638,1.70061411 C59.5465504,1.36728831 63.2559733,-0.365603687 66.7467932,1.65892663 C70.2376132,3.68345695 76.8191767,10.5194094 78.3724836,13.847796 C79.9257904,17.1761826 78.2993799,18.5612896 76.0666344,21.6292462 C73.8338889,24.6972028 74.7404832,27.7632067 64.9760108,32.2555355 C55.2115384,36.7478643 26.9846947,44.1784606 17.4797998,48.5832191 C7.97490498,52.9879775 10.7761752,53.8248043 7.94664163,58.6840864 C5.11710801,63.5433685 1.56364309,72.2035849 0.50259817,77.7389116 C-0.55844675,83.2742382 1.20141548,89.3919303 1.58037211,91.8960465 M6.93915546,61.2131081 C12.6264639,61.7722795 34.5683882,61.3821169 40.3648651,62.2251495 C46.161342,63.0681821 41.7829378,63.8563664 41.718017,66.2713036 C41.6530962,68.6862408 43.2085857,72.329907 39.9753404,76.7147727 C36.742095,81.0996384 24.8842356,89.5054596 22.3185447,92.5804977 C19.7528539,95.6555358 23.9746308,93.9295144 24.5811952,95.1650014 C25.1877596,96.4004884 24.1319953,98.7045968 25.957931,99.9934199 C27.7838667,101.282243 32.6722053,102.972054 35.5368095,102.89794 C38.4014136,102.823826 41.226925,102.083565 43.1455558,99.5487373 C45.0641866,97.0139097 46.3568611,91.3133542 47.0485943,87.6889747 C47.7403276,84.0645952 49.82817,80.9145723 47.2959551,77.8024604 C44.7637401,74.6903485 35.6528738,72.1579154 31.8553047,69.0163032 C28.0577355,65.8746911 25.6554229,61.6178227 24.5105401,58.9527877 C23.3656573,56.2877526 24.4411077,55.607217 24.9860078,53.0260928 C25.5309079,50.4449685 25.3547562,46.6726341 27.7799408,43.4660422 C30.2051253,40.2594504 35.2034948,36.6302907 39.537115,33.7865416 C43.8707351,30.9427925 50.0865655,27.8813192 53.7816619,26.4035474 C57.4767583,24.9257755 56.8534253,25.3262202 61.7076935,24.9199104 C66.5619616,24.5136007 76.5385117,20.4050972 82.9072709,23.9656888 C89.27603,27.5262804 95.8200969,39.4764588 99.9202482,46.28346 C104.0204,53.0904612 106.420496,61.1121402 107.508179,64.807696 C108.595862,68.5032518 105.934478,66.7748558 106.446347,68.4567948 C106.958215,70.1387337 109.357601,72.704709 110.579391,74.8993298 C111.801181,77.0939506 110.840141,78.5782814 113.777087,81.6245193 C116.714033,84.6707572 127.564545,90.5068873 128.201068,93.1767571 C128.837591,95.8466269 126.560216,93.4615484 117.596225,97.643738 C108.632234,101.825928 82.7967233,113.435806 74.4171206,118.269895 C66.0375178,123.103984 69.0539528,124.094704 67.3186085,126.648274 C65.5832642,129.201844 63.5657562,130.860391 64.0050546,133.591317 C64.444353,136.322242 66.4514862,141.741519 69.9543989,143.033826 C73.4573116,144.326133 82.1355544,142.39879 85.0225308,141.345158 C87.9095072,140.291525 85.9474567,138.840765 87.2762574,136.712029 C88.6050582,134.583293 92.5031019,132.28454 92.9953353,128.572742 C93.4875686,124.860943 93.3520773,123.782594 90.2296576,114.441239 C87.1072378,105.099883 75.5329089,80.74201 74.2608167,72.5246101 C72.9887245,64.3072103 77.2573323,68.2685102 82.5971043,65.1368396 C87.9368763,62.0051691 100.374485,55.6970289 106.299449,53.7345867 C112.224412,51.7721446 116.643122,52.3420511 118.146884,53.3621868 C119.650645,54.3823224 117.188435,55.5972481 115.322017,59.8554008 C113.455599,64.1135536 112.406587,73.3768314 106.948376,78.9111033 C101.490164,84.4453751 90.7870291,89.5307095 82.5727463,93.0610319 C74.3584635,96.5913542 62.9803371,97.4865704 57.6626788,100.093037 C52.3450206,102.699505 52.677954,102.628997 50.6667968,108.699834 C48.6556396,114.770672 47.4146884,131.811107 45.5957356,136.518063 C43.7767828,141.225018 42.4102773,137.506532 39.7530798,136.941569 C37.0958824,136.376606 32.0783182,135.252441 29.6525508,133.128283 C27.2267834,131.004125 25.5225976,127.509249 25.1984753,124.196622 C24.874353,120.883995 25.9437574,115.012104 27.7078169,113.252522 C29.4718763,111.49294 31.5582533,112.74037 35.7828319,113.639128 C40.0074106,114.537886 48.4519745,118.889702 53.0552887,118.645072 C57.6586029,118.400442 60.7736554,115.780516 63.402717,112.171349 C66.0317787,108.562182 67.719641,101.998718 68.8296586,96.9900679 C69.9396763,91.9814183 72.8256838,92.6237974 70.062823,82.1194511 C67.2999623,71.6151047 55.6722304,45.2086783 52.252494,33.9639899 C48.8327577,22.7193014 49.6256194,19.4082555 49.5444047,14.6513204 C49.4631901,9.89438541 50.1738884,7.62351137 51.7652061,5.42237967 C53.3565238,3.22124797 56.4429203,2.02362508 59.0923109,1.44453022 C61.7417015,0.865435372 64.8888646,0.102795194 67.6615497,1.94781056 C70.4342347,3.79282592 74.3415496,9.05974508 75.7284212,12.5146224 C77.1152929,15.9694997 77.6614087,19.1951707 75.9827797,22.6770745 C74.3041506,26.1589783 75.2746112,28.9835377 65.656647,33.4060452 C56.0386829,37.8285528 27.5617859,44.9592268 18.2749947,49.2121198 C8.98820338,53.4650128 12.9147923,54.4577324 9.93589935,58.9234032 C6.95700642,63.389074 1.61244917,70.3016774 0.40163708,76.0061447 C-0.809175005,81.710612 2.17470188,90.2598764 2.67102683,93.150207" id="Shape"></path>
            </g>
        </g>
    </g>
</svg>