<?xml version="1.0" encoding="UTF-8"?>
<svg viewBox="0 0 102 101" version="1.1" xmlns="http://www.w3.org/2000/svg" xmlns:xlink="http://www.w3.org/1999/xlink">
    <!-- Generator: Sketch 52.6 (67491) - http://www.bohemiancoding.com/sketch -->
    <title>smallscribble1</title>
    <desc>Created with Sketch.</desc>
    <g id="Page-1" stroke="none" stroke-width="1" fill="none" fill-rule="evenodd">
        <g id="smallscribble1" transform="translate(-9.000000, -9.000000)">
            <rect id="Rectangle" fill="#FFFFFF" opacity="0" x="0" y="0" width="120.219962" height="119.397656"></rect>
            <g id="Group" transform="translate(9.550296, 9.663686)" stroke="#000000">
                <path d="M39.246036,77.8035847 C40.0035695,73.9714133 42.2110243,61.1499173 43.8355329,57.0038978 C45.4600415,52.8578784 47.2382941,53.5889915 48.9930874,52.927468 C50.7478807,52.2659445 52.4535352,52.4991174 54.3642928,53.0347567 C56.2750504,53.5703959 59.6028618,52.8723971 60.457633,56.1413034 C61.3124042,59.4102097 58.6774401,69.2298387 59.49292,72.6481945 C60.3083999,76.0665504 62.9619257,75.7505235 65.3505127,76.6514385 C67.7390996,77.5523534 71.7292558,79.127986 73.8244418,78.0536841 C75.9196278,76.9793822 76.8532787,72.4828436 77.9216287,70.2056272 C78.9899787,67.9284108 81.4966451,66.363058 80.2345417,64.3903855 C78.9724384,62.417713 76.3212242,60.9945852 70.3490085,58.3695923 C64.3767927,55.7445993 48.479901,51.2553347 44.4012472,48.6404277 C40.3225934,46.0255206 44.840925,45.6470439 45.8770856,42.68015 C46.9132461,39.7132562 46.7182488,35.7928044 50.6182106,30.8390645 C54.5181723,25.8853246 66.1750438,17.2963069 69.2768561,12.9577107 C72.3786684,8.6191145 69.7837262,6.54118975 69.2290842,4.80748744 C68.6744421,3.07378514 70.7437955,3.28348741 65.9490036,2.55549685 C61.1542117,1.82750629 45.8080064,-0.0794897649 40.4603328,0.439544084 C35.1126592,0.958577934 34.7982543,3.7681884 33.8629618,5.66969995 C32.9276693,7.57121149 33.5264085,10.0066448 34.8485776,11.8486134 C36.1707467,13.6905819 38.1656663,14.23332 41.7959766,16.7215114 C45.426287,19.2097028 53.7163086,23.551514 56.6304396,26.7777617 C59.5445707,30.0040094 59.1786161,33.5598392 59.280763,36.0789976 C59.38291,38.5981559 58.9414112,39.8514394 57.2433213,41.8927117 C55.5452313,43.933984 53.5442977,45.9152917 49.0922233,48.3266311 C44.6401489,50.7379706 33.3866448,52.6490969 30.5308749,56.3607486 C27.6751049,60.0724002 29.56665,66.0236031 31.9576036,70.596541 C34.3485572,75.169479 43.0976148,79.8889851 44.8765965,83.7983762 C46.6555781,87.7077672 43.9830752,91.6967201 42.6314937,94.0528874 C41.2799121,96.4090546 39.7092495,97.0510194 36.7671072,97.9353797 C33.8249648,98.81974 27.6758976,99.9814852 24.9786397,99.3590491 C22.2813817,98.736613 21.5016597,95.3770944 20.5835594,94.2007631 C19.665459,93.0244318 19.4204102,94.1903658 19.4700377,92.3010613 C19.5196651,90.4117569 19.9966227,85.3864482 20.8813241,82.8649364 C21.7660256,80.3434246 20.4972445,78.7751522 24.7782463,77.1719905 C29.0592481,75.5688288 39.0195616,74.3737099 46.567335,73.2459662 C54.1151084,72.1182224 65.4387247,72.4212286 70.0648867,70.405528 C74.6910486,68.3898274 73.0451185,65.7299927 74.3243069,61.1517624 C75.6034954,56.5735322 74.0358989,45.643927 77.7400173,42.9361465 C81.4441357,40.2283659 92.9595237,43.6632067 96.5490172,44.9050791 C100.138511,46.1469516 99.679555,48.7771993 99.2769781,50.3873811 C98.8744011,51.997563 105.107862,55.463033 94.1335556,54.5661702 C83.1592493,53.6693074 46.5807931,46.0781743 33.4311401,45.0062046 C20.281487,43.9342349 20.2179001,48.3442827 15.2356371,48.134352 C10.2533741,47.9244214 5.56152095,45.514007 3.53756188,43.7466208 C1.51360282,41.9792346 1.38172806,38.6601785 3.09188269,37.5300348 C4.80203731,36.3998911 11.8819272,36.712269 13.7984896,36.9657586 M37.9160662,79.7898628 C39.016057,76.6021124 44.3579881,62.2904038 46.0427828,58.0450296 C47.7275775,53.7996554 46.6517068,55.5353132 48.0248342,54.3176177 C49.3979616,53.0999223 51.8749501,50.428174 54.2815472,50.738857 C56.6881442,51.04954 61.3932297,52.6218178 62.4644164,56.1817155 C63.5356031,59.7416133 60.6451367,68.8258923 60.7086671,72.0982435 C60.7721975,75.3705948 60.2739042,74.8429034 62.8455988,75.8158232 C65.4172935,76.788743 73.3953237,78.5714703 76.1388351,77.9357625 C78.8823466,77.3000547 79.0435006,74.3458306 79.3066677,72.0015764 C79.5698347,69.6573222 79.26187,65.9829761 77.7178373,63.870237 C76.1738046,61.757498 75.2467376,61.9501781 70.0424715,59.3251422 C64.8382055,56.7001063 50.3922024,50.4858215 46.492241,48.1200218 C42.5922795,45.754222 46.0976303,48.1081544 46.6427028,45.1303438 C47.1877753,42.1525333 46.0111176,35.6896891 49.7626761,30.2531586 C53.5142346,24.8166281 66.2961316,16.6133223 69.1520539,12.5111608 C72.0079762,8.40899927 67.5846619,7.15855845 66.89821,5.64018957 C66.211758,4.12182069 69.6781838,4.28083321 65.0333422,3.40094751 C60.3885005,2.52106181 43.906955,0.00726834597 39.0291601,0.360875393 C34.1513651,0.71448244 36.3190263,3.8508906 35.7665725,5.52258979 C35.2141187,7.19428899 34.8641996,8.21307956 35.7144375,10.3910706 C36.5646754,12.5690616 37.3385075,15.9835677 40.8679998,18.5905359 C44.397492,21.197504 53.8330933,23.195857 56.8913908,26.0328796 C59.9496884,28.8699022 58.9002523,33.0835471 59.2177851,35.6126715 C59.5353179,38.1417958 60.7250993,38.9564291 58.7965875,41.2076257 C56.8680758,43.4588223 52.7309322,46.5186625 47.6467147,49.1198511 C42.5624972,51.7210397 30.6513422,53.268541 28.2912824,56.8147571 C25.9312226,60.3609733 31.022401,66.0696903 33.4863558,70.397148 C35.9503107,74.7246057 41.5220614,78.6343232 43.0750117,82.7795034 C44.6279619,86.9246836 43.5784135,92.4519901 42.8040572,95.2682291 C42.0297009,98.0844682 41.4652566,99.2778855 38.4288739,99.6769377 C35.3924912,100.07599 27.5360841,98.2723799 24.5857612,97.6625428 C21.6354383,97.0527056 21.8925471,96.9718791 20.7269365,96.0179146 C19.5613259,95.0639501 17.8639332,94.4998654 17.5920977,91.9387559 C17.3202621,89.3776463 18.2156566,82.7128618 19.0959231,80.6512573 C19.9761896,78.5896529 18.7442575,80.5993375 22.8736965,79.5691292 C27.0031356,78.538921 36.2183921,75.6393441 43.8725573,74.4700078 C51.5267225,73.3006714 63.6494836,74.3458433 68.7986876,72.5531111 C73.9478917,70.7603788 73.3322168,68.6528839 74.7677815,63.7136143 C76.2033462,58.7743447 73.9391998,46.0009405 77.4120759,42.9174934 C80.884952,39.8340462 92.39862,43.918398 95.6050382,45.2129313 C98.8114563,46.5074646 97.1811714,49.1713691 96.6505849,50.6846931 C96.1199985,52.1980172 102.606383,55.2991368 92.4215196,54.2928759 C82.2366566,53.2866149 48.3819136,45.5236084 35.5414071,44.6471274 C22.7009006,43.7706464 20.8554052,49.1400434 15.3784806,49.0339899 C9.90155607,48.9279365 4.95718661,45.9807265 2.67985983,44.0108068 C0.402533057,42.0408871 -0.481650969,37.9510346 1.71451997,37.2144718 C3.91069091,36.4779089 13.6694692,39.4727706 15.8568855,39.5914296" id="Shape"></path>
            </g>
        </g>
    </g>
</svg>