<svg version="1.1" xmlns="http://www.w3.org/2000/svg" viewBox="0 0 346.0509754665318 392.879971590909" >
  <!-- svg-source:excalidraw -->
  
  <defs>
    <style>
      @font-face {
        font-family: "Virgil";
        src: url("https://excalidraw.com/Virgil.woff2");
      }
      @font-face {
        font-family: "Cascadia";
        src: url("https://excalidraw.com/Cascadia.woff2");
      }
    </style>
  </defs>
  <g stroke-linecap="round" transform="translate(10 10) rotate(0 163.00603693181813 186.4399857954545)"><path d="M-1.31 -0.11 C69.87 0.94, 137.46 0.91, 325.63 0.23 M0.6 0.5 C107.9 1.85, 215.45 1.59, 325.42 0.19 M325.58 -0.54 C325.91 129.48, 326.81 261.01, 326.25 371.99 M326.09 -0.55 C324.69 82.25, 323.87 164.8, 325.52 372.9 M325.18 373.28 C213.85 373.66, 102.23 373.87, -0.42 374.03 M326.24 372.68 C212.31 374.26, 97.78 373.1, 0.19 372.25 M0.99 373.53 C2.4 230.27, 2.04 86.65, 1.17 0.4 M0.29 372.89 C1.57 235.97, 2.31 98.56, 0.56 0.04" stroke="#000000" stroke-width="1" fill="none"></path></g><g stroke-linecap="round" transform="translate(24.985795454545496 20.84872159090901) rotate(0 6.615767045454504 6.615767045454504)"><path d="M4.77 0.88 C5.87 0.25, 6.75 0.22, 7.93 0.57 C9.12 0.93, 11.04 1.83, 11.89 3 C12.74 4.16, 13.21 6.01, 13.04 7.56 C12.86 9.1, 11.75 11.32, 10.83 12.28 C9.9 13.24, 8.78 13.31, 7.48 13.3 C6.18 13.29, 4.29 12.94, 3.02 12.23 C1.76 11.52, 0.15 10.37, -0.11 9.04 C-0.37 7.72, 0.82 5.71, 1.48 4.3 C2.14 2.88, 3.32 1.08, 3.84 0.54 C4.37 0, 4.52 0.93, 4.62 1.06 M9.99 1.55 C11.18 2, 12.23 3.8, 12.82 5.07 C13.41 6.33, 14.16 7.99, 13.55 9.13 C12.94 10.28, 10.27 11.25, 9.17 11.94 C8.07 12.63, 8.36 13.33, 6.95 13.25 C5.53 13.17, 1.76 12.64, 0.68 11.47 C-0.41 10.29, 0.14 7.59, 0.43 6.2 C0.73 4.8, 1.79 4.08, 2.45 3.08 C3.1 2.08, 3.23 0.49, 4.38 0.19 C5.53 -0.11, 8.56 1.4, 9.33 1.28 C10.1 1.16, 8.86 -0.72, 8.99 -0.51" stroke="#000000" stroke-width="1" fill="none"></path></g><g stroke-linecap="round"><g transform="translate(48.43039772727275 26.619318181818244) rotate(0 21.638984522358896 1.225348576225997)"><path d="M0.04 0.93 C14.39 -1.25, 28.74 1.37, 41.51 2.49 M0.07 0.5 C13.07 -0.54, 27.12 1.38, 43.24 -0.04" stroke="#000000" stroke-width="2" fill="none"></path></g></g><g stroke-linecap="round" transform="translate(285.614346590909 22.073863636363512) rotate(0 19.875710227272748 3.6434659090909918)"><path d="M1.82 0 M1.82 0 C11.39 -1.96, 20.91 0.08, 37.93 0 M1.82 0 C14.37 -0.96, 26.99 0.5, 37.93 0 M37.93 0 C40.4 0.94, 39.36 1.5, 39.75 1.82 M37.93 0 C39.74 -1.08, 40.35 -0.42, 39.75 1.82 M39.75 1.82 C40.1 2.95, 39.6 4.53, 39.75 5.47 M39.75 1.82 C39.77 3.25, 39.91 4.68, 39.75 5.47 M39.75 5.47 C40.71 8.39, 37.35 9.24, 37.93 7.29 M39.75 5.47 C38.97 6.5, 40.44 6.44, 37.93 7.29 M37.93 7.29 C28.12 5.44, 15.68 6.03, 1.82 7.29 M37.93 7.29 C28.27 7.23, 20.58 7.25, 1.82 7.29 M1.82 7.29 C1.3 7.77, 1.66 6.47, 0 5.47 M1.82 7.29 C0.48 9.1, 1.7 7.78, 0 5.47 M0 5.47 C0.22 4.5, 0.27 3.5, 0 1.82 M0 5.47 C-0.05 4.4, 0.02 3.11, 0 1.82 M0 1.82 C-0.46 0.66, 1.66 1.67, 1.82 0 M0 1.82 C0.37 1.75, 2.59 -0.72, 1.82 0" stroke="#000000" stroke-width="1" fill="none"></path></g><g stroke-linecap="round"><g transform="translate(12.666903409090764 172.6171875) rotate(0 161.80011835483435 -0.7891362852658403)"><path d="M0.22 0.6 C112.66 -2.04, 225.69 -3.84, 323.38 0.14 M0.31 0.18 C116.82 0.38, 233.99 0.3, 323.31 -0.26" stroke="#000000" stroke-width="1" fill="none"></path></g></g><g transform="translate(51.98508522727252 71.74321338383834) rotate(0 38.689236111111086 -0.7660590277778283)" stroke="none" fill="#000000"><path d="M 3.2693259330669973 -5.181162721624069 Q 3.2693259330669973 -5.181162721624069 10.738224338000284 -4.88293646269709 18.20712274293357 -4.58471020377011 10.738224338000284 -4.88293646269709 3.2693259330669973 -5.181162721624069 10.738224338000284 -4.88293646269709 18.20712274293357 -4.58471020377011 29.28227727655748 -4.108474068143037 40.35743181018139 -3.632237932515964 49.13777134872316 -3.828570109295223 57.91811088726493 -4.024902286074482 63.3439559268758 -4.180417691769019 68.76980096648667 -4.335933097463556 71.94924412109663 -4.233873753721257 75.12868727570658 -4.131814409978957 77.89589537947896 -3.1637414987248844 80.66310348325135 -2.1956685874708115 80.34159843807281 -0.6325156065556556 80.02009339289427 0.9306373743595002 78.56650014243249 1.5893325982917228 77.1129068919707 2.2480278222239454 75.7256105862426 1.4592175180744862 74.3383142805145 0.670407213925027 74.16104291284267 -0.9155901372779791 73.98377154517084 -2.501587488480985 75.16267285975651 -3.5772288907556336 76.34157417434218 -4.652870293030282 77.90472715525735 -4.331365247851743 79.4678801361725 -4.009860202673203 80.12657536010471 -2.5562669522114136 80.78527058403694 -1.1026737017496244 79.99646027988749 0.28462260397847383 79.20764997573802 1.671918909706572 77.62165262453502 1.8491902773783966 76.03565527333201 2.026461645050221 74.96001387105736 0.8475603304645545 73.88437246878271 -0.331340984121112 71.41273868604881 0.6651397608948042 68.94110490331492 1.6616205059107205 63.49841291429524 1.817552879553787 58.05572092527555 1.9734852531968534 49.26360505762831 2.170079610434465 40.47148918998108 2.366673967672077 29.39158772384915 3.262272489366862 18.311686257717216 4.157871011061647 10.803345689668788 4.642661397592844 3.295005121620359 5.127451784124041 1.6539223579485198 5.140879518499048 0.012839594276680799 5.154307252874055 -1.5031993723880528 4.665888169420233 -3.0192383390527864 4.177469085966412 -3.9586540930268277 2.891224400568984 -4.898069847000869 1.604979715171556 -4.902037499833242 0.0122111798034229 -4.906005152665616 -1.58055735556471 -3.9730091958299156 -2.871466296604309 -3.0400132389942156 -4.162375237643908 0.11465634703639083 -4.671768979633988 Z"></path></g><g transform="translate(53.21772411616121 91.37863005050485) rotate(0 39.52473958333337 -1.07421875)" stroke="none" fill="#000000"><path d="M -1.0108125099098748 -5.113935374747958 Q -1.0108125099098748 -5.113935374747958 3.575600326358878 -5.33467945387771 8.16201316262763 -5.555423533007462 3.575600326358878 -5.33467945387771 -1.0108125099098748 -5.113935374747958 3.575600326358878 -5.33467945387771 8.16201316262763 -5.555423533007462 21.729235303522366 -5.114434053096822 35.2964574444171 -4.673444573186183 50.21415571574116 -4.796862962882551 65.13185398706521 -4.920281352578921 71.54535191186987 -5.0255479236238445 77.95884983667453 -5.130814494668768 79.17681875454697 -4.521291665087709 80.39478767241941 -3.911768835506649 80.61757751250488 -2.5681427521640536 80.84036735259033 -1.2245166688214577 79.88430359944357 -0.25451230563396643 78.92823984629679 0.7154920575535249 77.5815296575092 0.5121744928928473 76.2348194687216 0.3088569282321698 75.60773044570564 -0.9001615670344563 74.9806414226897 -2.1091800623010823 75.59016425227077 -3.327148980173525 76.19968708185182 -4.545117898045968 77.54331316519442 -4.767907738131431 78.88693924853702 -4.990697578216893 79.85694361172452 -4.034633825070118 80.826947974912 -3.0785700719233433 80.62363041025132 -1.7318598831357463 80.42031284559064 -0.3851496943481494 79.21129435032401 0.24193932866779666 78.00227585505739 0.8690283516837427 71.58877793025273 0.9742949227286664 65.17528000544807 1.07956149377359 50.338835515541604 1.2009226908692252 35.502391025635134 1.3222838879648604 22.0659806896755 2.547577879929866 8.629570353715863 3.7728718718948713 6.724880892764366 4.108137747608143 4.820191431812869 4.443403623321414 3.0540205482593623 5.435715052150901 1.2878496647058553 6.428026480980386 -0.7242786186063919 6.192694092234808 -2.736406901918639 5.95736170348923 -4.225927970489327 4.5842744710156955 -5.715449039060014 3.2111872385421605 -6.113416471654201 1.2248178156270324 -6.5113839042483885 -0.7615516072880957 -3.7610982070791317 -2.9377434910180265 Z"></path></g><g stroke-linecap="round"><g transform="translate(51.40348800505012 112.80224116161617) rotate(0 34.62419775366368 0.07523141563342506)"><path d="M1.12 0.61 C25.06 -1.25, 50.84 0.22, 68.98 0.56 M0.27 0.2 C17.34 -1.01, 32.87 0.34, 68.96 -0.46" stroke="#000000" stroke-width="2" fill="none"></path></g></g><g stroke-linecap="round"><g transform="translate(54.01633522727252 126.95588699494942) rotate(0 27.807681292709276 0.718276059358459)"><path d="M-0.89 1.79 C19.32 1.23, 38.98 0.3, 56.5 0.12 M0.75 0.72 C20.31 1.01, 38.83 -0.48, 54.4 -0.35" stroke="#000000" stroke-width="2" fill="none"></path></g></g><g stroke-linecap="round" transform="translate(55.361821338383606 143.353456439394) rotate(0 23.138020833333258 6.736111111111086)"><path d="M3.37 0 M3.37 0 C16.45 -0.95, 31.47 -0.25, 42.91 0 M3.37 0 C16.64 -0.35, 30.51 0.66, 42.91 0 M42.91 0 C44.67 -0.68, 47.67 1.87, 46.28 3.37 M42.91 0 C46.75 0.58, 46.31 0.62, 46.28 3.37 M46.28 3.37 C46.86 4.81, 46.16 5.83, 46.28 10.1 M46.28 3.37 C46.37 4.93, 46.1 6.78, 46.28 10.1 M46.28 10.1 C46.23 11.28, 45.05 15.22, 42.91 13.47 M46.28 10.1 C44.92 11.55, 45.04 11.25, 42.91 13.47 M42.91 13.47 C28.6 11.86, 12.09 14.22, 3.37 13.47 M42.91 13.47 C32.25 13.2, 21.4 13.62, 3.37 13.47 M3.37 13.47 C1.34 13.68, -0.59 13.59, 0 10.1 M3.37 13.47 C1.28 13.18, 1.32 13.33, 0 10.1 M0 10.1 C-0.18 8.02, 0.61 7.26, 0 3.37 M0 10.1 C-0.17 7.63, -0.32 5.8, 0 3.37 M0 3.37 C0.31 -0.34, 0.12 -1.77, 3.37 0 M0 3.37 C1.31 2.09, 3.3 -0.83, 3.37 0" stroke="#000000" stroke-width="2" fill="none"></path></g><g transform="translate(220.11876578282795 207.98019255050485) rotate(0 -59.333767361111086 -0.8072916666665151)" stroke="none" fill="#000000"><path d="M -2.7479300937134608 5.1970861968168895 Q -2.7479300937134608 5.1970861968168895 -9.664851053141778 4.872638083286783 -16.581772012570095 4.5481899697566766 -9.664851053141778 4.872638083286783 -2.7479300937134608 5.1970861968168895 -9.664851053141778 4.872638083286783 -16.581772012570095 4.5481899697566766 -31.69284858528441 3.7395906505944225 -46.80392515799872 2.930991331432168 -66.34925157434539 2.3960479641254624 -85.89457799069206 1.8611045968187563 -96.60296836103763 1.589614971308289 -107.31135873138318 1.318125345797822 -112.94114462535714 1.3343831998726454 -118.57093051933111 1.3506410539474691 -119.76933993524952 0.7035079636778045 -120.96774935116794 0.05637487340813996 -121.14861506440268 -1.293533997019771 -121.32948077763741 -2.643442867447682 -120.34369175948848 -3.583222829130652 -119.35790274133956 -4.523002790813622 -118.0181725346252 -4.27787152414018 -116.67844232791082 -4.032740257466739 -116.08928403094482 -2.8047912089309257 -115.50012573397883 -1.5768421603951124 -116.1472588242485 -0.37843274447670217 -116.79439191451817 0.819976671441708 -118.14430078494608 1.0008423846764507 -119.494209655374 1.1817080979111934 -120.43398961705697 0.1959190797622673 -121.37376957873992 -0.7898699383866588 -121.12863831206649 -2.129600145101036 -120.88350704539305 -3.4693303518154135 -119.65555799685723 -4.0584886487814 -118.42760894832142 -4.647646945747386 -112.79425057767679 -4.663816601298166 -107.16089220703218 -4.679986256848944 -96.44614856833438 -4.40832974893655 -85.73140492963658 -4.136673241024155 -66.25086197647646 -3.602547699639471 -46.77031902331633 -3.0684221582547875 -31.744714993003345 -3.6111625093181114 -16.71911096269036 -4.153902860381435 -9.755976176675928 -4.629107809849134 -2.7928413906614966 -5.104312759316833 -1.4076485195677573 -5.127506118691847 -0.022455648474017934 -5.150699478066861 1.4934412712445158 -4.665450993872408 3.0093381909630494 -4.1802025096779545 3.950502658029201 -2.896606386063817 4.891667125095353 -1.61301026244968 4.898606302093534 -0.021356590808847775 4.905545479091716 1.5702970808319845 3.975608836262573 2.8620506962512775 3.0456721934334303 4.15380431167057 0.14887104985998478 4.67544525424373 Z"></path></g><g stroke-linecap="round"><g transform="translate(74.39827967171686 229.32567866161617) rotate(0 98.19870337750763 -0.38882007864958723)"><path d="M-0.04 0.84 C58.38 -3.42, 114.55 -1.28, 196.02 0.77 M0.86 0.11 C61.25 0.5, 121.99 0.79, 196.44 -0.85" stroke="#000000" stroke-width="2" fill="none"></path></g></g><g stroke-linecap="round" transform="translate(42.93560606060578 265.80571338383834) rotate(0 60.52734375 52.93619791666663)"><path d="M-1.77 1.14 C39.06 2.5, 75.72 1.39, 121.66 1.61 M0.35 -0.95 C36.94 -0.04, 76.08 -0.48, 121.62 0.14 M121.27 0.56 C120.15 30.01, 123.4 57.7, 122.35 105.03 M120.29 0.95 C121.32 35.42, 120.37 71.44, 120.85 106 M121.62 106.57 C81.94 105.41, 41.53 106.46, 1.76 107.48 M120.88 106.1 C73.12 105.59, 27.34 106, -0.88 106.82 M-0.08 105.93 C-0.26 75.14, 1.63 49.46, 0.86 0.19 M-0.64 104.97 C-0.78 77.15, 0.08 47.75, 0.33 -0.72" stroke="#000000" stroke-width="2" fill="none"></path></g><g stroke-linecap="round" transform="translate(180.3466303661612 265.72107796717137) rotate(0 60.52734375 52.93619791666663)"><path d="M-1.31 -0.57 C38 -0.4, 80.78 1.32, 119.23 1.28 M0.59 -0.74 C30.55 -0.19, 60.02 -1.6, 121.64 -0.78 M120.64 1.33 C122.46 40.67, 123.58 76.13, 122 103.91 M120.29 -0.85 C122 37.43, 122.29 76.22, 120.47 106.68 M122.11 106.28 C85.64 107.89, 48.29 106.36, -0.94 106.82 M120.98 106.39 C93.48 107.49, 66.28 107.66, -0.03 105.82 M1.68 104.44 C1.59 82.89, -0.28 57.27, 1.8 1.27 M0.35 106.57 C-0.03 76.62, -0.18 48.7, -0.59 -0.06" stroke="#000000" stroke-width="2" fill="none"></path></g><g stroke-linecap="round"><g transform="translate(44.91911300505012 267.1685606060605) rotate(0 58.7744339498588 52.25056805120164)"><path d="M1.7 -1.16 C35.66 30.72, 68.25 63.37, 117.86 105.55 M-0.31 -0.47 C44.43 37.85, 88.39 78.46, 116.73 105.66" stroke="#000000" stroke-width="2" fill="none"></path></g></g><g stroke-linecap="round"><g transform="translate(162.46685606060578 267.51144255050485) rotate(0 -58.45567751303315 52.03807740451566)"><path d="M0.59 -1.78 C-23.53 21.26, -49.16 43.39, -117.5 105.85 M-0.74 0.22 C-39.43 34.34, -79.72 70.36, -116.94 104.35" stroke="#000000" stroke-width="2" fill="none"></path></g></g><g stroke-linecap="round"><g transform="translate(181.9243213383836 266.53488005050485) rotate(0 60.262550244004274 52.02098221487063)"><path d="M1.99 0.25 C40.19 34.64, 76.8 67.04, 120.28 102.66 M0.24 0.52 C46.56 39.28, 91.93 80.44, 120.27 103.79" stroke="#000000" stroke-width="2" fill="none"></path></g></g><g stroke-linecap="round"><g transform="translate(300.0883838383836 265.82741477272725) rotate(0 -57.20496929116132 52.15357156522157)"><path d="M1.28 1.98 C-41.39 32.96, -80.73 67.24, -114.19 103.51 M0.57 0.8 C-36.92 31.88, -73.09 62.78, -115.69 101.7" stroke="#000000" stroke-width="2" fill="none"></path></g></g><g transform="translate(231.27327967171686 68.63557449494942) rotate(0 17.256944444444457 34.450954861111086)" stroke="none" fill="#000000"><path d="M 0.13215079888682224 -2.9950137486953423 Q 0.13215079888682224 -2.9950137486953423 2.711235900008452 -4.257275135156394 5.290321001130081 -5.5195365216174475 2.711235900008452 -4.257275135156394 0.13215079888682224 -2.9950137486953423 2.711235900008452 -4.257275135156394 5.290321001130081 -5.5195365216174475 8.043961482939704 -6.855481445732343 10.797601964749324 -8.191426369847237 12.808341679232292 -8.779359944880767 14.81908139371526 -9.367293519914295 17.38187098985579 -9.327441777230112 19.94466058599632 -9.287590034545929 22.497402923661554 -8.325032057973644 25.05014526132679 -7.362474081401357 27.080328645854014 -5.481491069296002 29.110512030381237 -3.6005080571906456 30.103522480745756 -2.0210362672926454 31.096532931110275 -0.44156447739464566 31.401852282929674 1.4559977383571523 31.707171634749074 3.3535599541089502 31.7179301481803 5.051173815984595 31.728688661611525 6.748787677860239 31.29077178825222 8.425150466301377 30.852854914892912 10.101513254742514 29.513072868132202 12.233436154840811 28.17329082137149 14.365359054939109 26.47984555637929 16.40997159983813 24.786400291387082 18.454584144737154 23.060248020268965 19.804613197669354 21.33409574915085 21.154642250601558 19.5479419679 22.556117519864287 17.761788186649152 23.957592789127016 16.103927189314412 25.114034436059455 14.446066191979675 26.270476082991898 12.991208503760031 27.63041188792296 11.53635081554039 28.990347692854023 10.694273318957112 30.928328616159128 9.852195822373835 32.86630953946423 9.889678755554257 35.07859403857623 9.92716168873468 37.29087853768823 10.635487343117624 38.84481476974494 11.34381299750057 40.39875100180165 12.425230397594405 42.17272646005961 13.506647797688238 43.94670191831756 13.934322407162563 46.463714153567835 14.361997016636888 48.98072638881812 13.878291748760104 50.55238053713434 13.39458648088332 52.12403468545055 12.181203620537907 53.7151907649624 10.967820760192495 55.30634684447425 9.161800780364706 56.39013767240171 7.355780800536916 57.473928500329166 4.9972354054413834 57.958679081722686 2.6386900103458517 58.443429663116206 0.39994114781517176 58.52008140571874 -1.8388077147155082 58.596733148321285 -3.6862203937719444 58.59643893500784 -5.533633072828381 58.59614472169439 -7.4021488965104805 58.478738185621395 -9.270664720192581 58.36133164954841 -11.083733125286738 57.86191881810325 -12.896801530380895 57.36250598665808 -14.689615820027313 55.91246707541225 -16.482430109673732 54.46242816416642 -16.999541627958976 52.69353947164096 -17.516653146244224 50.924650779115495 -17.873628785684833 48.554411958101845 -18.230604425125442 46.184173137088194 -18.278555212688236 44.501753724744034 -18.32650600025103 42.81933431239988 -18.428377604893537 41.06766029043593 -18.530249209536045 39.31598626847198 -19.014858957868014 37.31371656756336 -19.499468706199988 35.31144686665474 -21.208780747704093 33.97285057396917 -22.9180927892082 32.63425428128359 -25.81906395875395 31.434621311421388 -28.7200351282997 30.234988341559184 -30.501189832887853 29.385340447932098 -32.28234453747601 28.53569255430501 -33.83080470640378 27.80914959478596 -35.37926487533156 27.08260663526691 -36.35398985228054 28.341126997227875 -37.328714829229526 29.59964735918884 -37.68434001321973 31.46970603916084 -38.03996519720994 33.339764719132845 -37.64465341560922 35.34092610582689 -37.2493416340085 37.34208749252093 -35.490533349311065 38.3800757012467 -33.731725064613634 39.418063909972474 -31.81657454621018 39.33984777982566 -29.901424027806726 39.261631649678854 -27.840014103742256 38.27197105206122 -25.77860417967778 37.28231045444358 -23.74342778364052 35.6520416675376 -21.70825138760326 34.02177288063162 -20.365478737777835 32.58478583782713 -19.02270608795241 31.147798795022627 -17.7642507043021 29.660910549195243 -16.505795320651785 28.174022303367856 -14.985845949819467 26.37178588527378 -13.465896578987149 24.5695494671797 -12.55887060390867 23.302869017587966 -11.651844628830188 22.03618856799623 -10.900763277964185 20.66945576780045 -10.149681927098182 19.302722967604666 -8.714423737064354 17.815895363184385 -7.279165547030525 16.329067758764104 -4.4761544609693535 14.91029327982155 -1.6731433749081823 13.491518800878996 0.7420135384899722 12.922834299544125 3.1571704518881267 12.354149798209253 5.305013882760601 12.387636761766752 7.452857313633075 12.42112372532425 9.526980756114732 13.323741062436687 11.601104198596387 14.226358399549124 13.116787462843238 16.242909050725345 14.632470727090091 18.25945970190157 15.25383821764553 19.87928661562376 15.875205708200971 21.499113529345948 16.555226803069882 22.9930406824494 17.235247897938795 24.486967835552854 18.139263106793326 26.221855420065467 19.043278315647857 27.95674300457808 20.29694428881283 29.539972434578395 21.55061026197781 31.123201864578714 23.500851830865003 32.920062590240995 25.451093399752196 34.71692331590328 27.226031627439582 35.344840671798224 29.000969855126968 35.972758027693175 31.43510937827963 35.92044331190368 33.86924890143229 35.86812859611418 35.74841381896526 35.62544718376948 37.62757873649822 35.38276577142477 40.27192945282955 34.8499158683009 42.916280169160885 34.317065965177015 45.40643378236628 33.347218141044706 47.89658739557168 32.3773703169124 50.24816972154112 31.450464300320746 52.59975204751056 30.5235582837291 54.747288125505406 30.05110736405627 56.89482420350025 29.57865644438344 59.77037245205177 29.231317611273184 62.645920700603284 28.883978778162923 64.66973297709902 28.873118569359267 66.69354525359476 28.86225836055561 68.26358392409105 28.859413641214175 69.83362259458735 28.856568921872736 71.55745311727128 29.501526595497403 73.2812836399552 30.14648426912207 74.89424198821078 32.375017929607964 76.50720033646634 34.60355159009385 77.08780041481768 36.39972006015107 77.66840049316903 38.19588853020828 77.73390491246477 40.06882670670961 77.7994093317605 41.941764883210936 77.1398898503875 43.64090598550044 76.48037036901451 45.34004708778995 74.75345069858061 46.95017701410544 73.0265310281467 48.560306940420936 69.87558947265208 50.11915192653777 66.72464791715745 51.677996912654606 65.18387346301479 52.14042466640831 63.64309900887213 52.60285242016201 61.816302497086085 52.70027112480247 59.98950598530004 52.79768982944292 57.54735822803906 52.189669546748405 55.105210470778076 51.58164926405388 53.198247199771416 50.093378925090974 51.29128392876476 48.60510858612806 50.89954832422623 46.736909515124154 50.5078127196877 44.86871044412025 50.3835959045328 42.78938147660944 50.2593790893779 40.71005250909864 50.11151002924188 38.56913772836667 49.96364096910585 36.42822294763471 49.84117186723043 34.650788769243505 49.718702765355 32.873354590852294 49.76744968891437 30.328694826530494 49.81619661247373 27.784035062208698 49.85856205154935 25.241705714005384 49.900927490624966 22.699376365802067 49.7291582661249 20.83282679400444 49.55738904162483 18.96627722220681 49.19056434739123 16.93715036947353 48.823739653157624 14.908023516740256 48.294694457278744 11.819495344741988 47.765649261399865 8.730967172743718 47.497951088496066 7.137003296067713 47.23025291559226 5.543039419391709 47.04151968729667 3.959558515964387 46.85278645900109 2.376077612537065 46.65899623029877 0.4107793857894694 46.46520600159644 -1.5545188409581263 46.12101032509747 -4.040683212877359 45.77681464859851 -6.526847584796592 45.086666013242095 -8.745460235683217 44.39651737788569 -10.964072886569841 43.65879502798987 -12.679092459953592 42.92107267809405 -14.394112033337343 42.03770028456668 -15.969768455127925 41.15432789103931 -17.545424876918506 39.76271178787991 -19.21280008925143 38.3710956847205 -20.88017530158435 37.098294485193264 -21.580152467167217 35.825493285666035 -22.280129632750082 34.32771769683511 -21.730985241399665 32.829942108004175 -21.181840850049248 31.343576268542783 -20.076774972351902 29.85721042908139 -18.971709094654557 28.33901177547604 -17.488862010280364 26.820813121870685 -16.006014925906168 25.18081920049033 -13.981817623739754 23.540825279109974 -11.95762032157334 22.679691451197154 -10.622970994619536 21.818557623284335 -9.28832166766573 21.008284858032038 -7.819215531491097 20.19801209277974 -6.350109395316464 19.41264750780354 -4.5329010813031 18.627282922827337 -2.715692767289736 18.098746481634194 -0.8341014671724334 17.570210040441047 1.0474898329448692 17.05295789035781 2.994924083175669 16.535705740274572 4.942358333406469 15.575523735020251 7.446684511375641 14.61534172976593 9.951010689344812 13.469859431417156 12.640413747181835 12.324377133068381 15.329816805018858 11.32799082628064 17.640499855128052 10.331604519492897 19.951182905237246 8.724171922892289 22.968814718423438 7.116739326291682 25.986446531609634 5.622199234686191 28.38775231915303 4.1276591430807 30.789058106696423 2.964901555771017 32.891268293730235 1.8021439684613347 34.993478480764054 0.8004037254972869 36.979877940139474 -0.20133651746676107 38.966277399514894 -1.194075352206067 40.87439129194509 -2.186814186945373 42.78250518437528 -3.1867980994316665 44.65792789617254 -4.18678201191796 46.533350607969794 -5.145754818052474 48.46976955038075 -6.104727624186989 50.4061884927917 -7.535458173316679 52.7245604044176 -8.96618872244637 55.0429323160435 -10.718219945689693 57.700921271232176 -12.470251168933018 60.35891022642085 -13.587752436292476 62.44472192623137 -14.705253703651932 64.53053362604187 -16.405389342035342 67.15249755139158 -18.10552498041875 69.77446147674127 -19.762911759062 71.85833220742147 -21.42029853770525 73.94220293810167 -22.33890817943614 75.68186683430042 -23.25751782116703 77.42153073049919 -24.034228387193618 79.93221826012075 -24.810938953220205 82.44290578974233 -24.195574736598516 84.48799659551001 -23.580210519976827 86.5330874012777 -21.235923830808332 88.17774733436347 -18.891637141639837 89.82240726744925 -16.391528704060452 90.40699593247909 -13.891420266481067 90.99158459750893 -11.393162728989493 90.18006979074548 -8.89490519149792 89.36855498398202 -7.045159662295643 88.07440189685293 -5.195414133093367 86.78024880972384 -3.947664092522693 85.4542505843537 -2.6999140519520193 84.12825235898354 -1.2317378476159075 82.4203225535648 0.23643835672020397 80.71239274814604 1.3652844002116726 78.81137621936102 2.494130443703141 76.91035969057602 3.070155474584176 74.87703197445454 3.646180505465211 72.84370425833306 4.126707854202605 70.17062487338629 4.607235202939999 67.49754548843953 5.386946571731558 65.08972004325386 6.166657940523118 62.68189459806821 7.361873696656681 61.19838568303925 8.557089452790244 59.71487676801029 10.94115169847978 58.27972991496297 13.325213944169317 56.84458306191564 15.453467216922213 56.830092621822686 17.58172048967511 56.81560218172972 19.445144763596577 58.05114139699553 21.308569037518044 59.28668061226135 21.979422144060596 61.72725177525976 22.650275250603148 64.16782293825817 22.493871396021603 66.25652681970678 22.337467541440063 68.34523070115539 21.475587248044967 69.65726002003781 20.613706954649867 70.96928933892023 18.92147784967752 71.89833151433106 17.22924874470517 72.82737368974188 14.408039614144315 73.26046925765846 11.586830483583459 73.69356482557505 8.657842043246418 73.8157605526254 5.728853602909377 73.93795627967576 4.035715216350271 74.2301918072456 2.3425768297911653 74.52242733481543 0.5817023747356767 74.41094349872046 -1.179172080319812 74.29945966262547 -2.5904977913106944 73.45599813494266 -4.001823502301576 72.61253660725984 -3.7456388056485097 70.31471015352976 -3.489454108995443 68.01688369979968 -0.6022294752183863 65.6547076493606 2.2849951585586705 63.292531598921535 4.640395518626866 61.895208762386616 6.995795878695062 60.49788592585169 8.984669560607339 59.359861739908695 10.973543242519614 58.2218375539657 13.860504823220767 56.759386955872884 16.74746640392192 55.296936357780076 19.277681298808822 53.896046511991514 21.80789619369573 52.495156666202945 23.75518716758715 51.51738948417169 25.70247814147857 50.53962230214043 27.79888342986365 49.61472542841837 29.89528871824873 48.6898285546963 31.218214553139813 47.66103340857477 32.5411403880309 46.63223826245323 33.70655134360475 44.843422907869765 34.871962299178605 43.054607553286296 35.67317533427294 40.23748325338859 36.47438836936727 37.42035895349089 36.660324815804465 34.65288457838538 36.84626126224166 31.885410203279875 36.87734916543013 29.320269790093135 36.9084370686186 26.755129376906392 37.4958403076764 25.67482674143742 38.083243546734195 24.594524105968446 39.302493698963644 24.43475735177574 40.521743851193094 24.274990597583034 41.36765512880694 25.16747614920979 42.21356640642078 26.059961700836546 41.98874460164994 27.26890814528989 41.7639227968791 28.47785458974323 40.653717636789096 29.00657081983867 39.5435124766991 29.535287049934112 38.463209841230125 28.947883810876313 37.38290720576115 28.360480571818517 37.22314045156844 27.14123041958907 37.06337369737574 25.921980267359622 37.955859249002486 25.076068989745778 38.84834480062924 24.230157712131934 40.05729124508259 24.454979516902775 41.266237689535934 24.679801321673615 41.794953919631375 25.790006481763612 42.323670149726816 26.900211641853613 42.10241079750607 29.54858249404868 41.881151445285326 32.19695334624375 41.75638839655103 34.08988403834894 41.631625347816744 35.98281473045413 41.42091182628896 37.707161819604025 41.21019830476117 39.43150890875392 40.68734779609683 41.532867796636594 40.16449728743248 43.63422668451926 39.431285900815325 45.22185604642201 38.69807451419817 46.80948540832476 37.021514995120675 48.59143862220302 35.34495547604318 50.37339183608128 33.59053939652394 51.582672032649924 31.8361233170047 52.791952229218566 29.869490408270146 53.74141923970182 27.902857499535596 54.69088625018507 26.000339434948096 55.73531418830882 24.0978213703606 56.77974212643256 21.44740572251528 58.19367479227188 18.796990074669964 59.607607458111204 15.956177328143108 60.8765011042032 13.115364581616252 62.14539475029519 11.220770898265993 63.08105082500691 9.326177214915733 64.01670689971863 7.1476101320669745 65.6705701765392 4.969043049218215 67.32443345335979 2.610896774872672 68.10857880337304 0.2527505005271288 68.89272415338627 1.093584435957461 69.2566414551151 1.934418371387793 69.62055875684392 3.651335858670844 69.62704175639425 5.368253345953895 69.63352475594459 8.02620058412143 69.21444633200372 10.684147822288963 68.79536790806286 13.312647393692309 67.64147043317817 15.941146965095655 66.4875729582935 15.870336401735113 64.62416898535236 15.799525838374569 62.76076501241123 14.218875133920271 62.805868917128926 12.638224429465975 62.850972821846625 11.35144439151248 64.53437007767837 10.064664353558985 66.21776733351011 9.337389758569419 68.69873986028534 8.610115163579852 71.17971238706058 8.141438300514459 73.03099953068055 7.672761437449067 74.88228667430052 6.90059012405665 76.93420657165257 6.1284188106642326 78.9861264690046 4.826505402373616 81.2358287629238 3.524591994083001 83.485531056843 1.9754595579570637 85.36289841724098 0.42632712183112664 87.24026577763898 -1.0982823994464512 88.70923225720259 -2.622891920724029 90.1781987367662 -4.785761722247902 91.83148259437215 -6.948631523771776 93.4847664519781 -9.08392922011931 94.45169201325385 -11.219226916466845 95.41861757452959 -13.336586584285685 95.48979101932072 -15.453946252104526 95.56096446411185 -18.27563152719769 94.92100725738922 -21.097316802290848 94.28105005066661 -23.36064227489175 93.2703814540142 -25.62396774749265 92.25971285736179 -27.195056043423172 90.61607800276705 -28.76614433935369 88.97244314817232 -29.333981780274076 86.7908412936305 -29.90181922119446 84.60923943908871 -29.64396551856082 82.59597509264792 -29.38611181592718 80.58271074620713 -28.16450292514407 77.88500722786944 -26.94289403436096 75.18730370953176 -25.763059433189998 73.40516423547453 -24.583224832019035 71.62302476141731 -23.087693540248544 69.44731516637586 -21.59216224847805 67.27160557133439 -19.802551988327636 64.87491200493349 -18.012941728177225 62.47821843853258 -16.674810562653924 60.58002360280534 -15.336679397130622 58.6818287670781 -13.886997094469578 55.86446787918162 -12.437314791808532 53.04710699128514 -11.21418602898709 50.76225661390387 -9.991057266165646 48.47740623652261 -8.983681366162196 46.46708185623817 -7.976305466158747 44.456757475953715 -6.937717470760158 42.612264188636175 -5.899129475361569 40.76777090131864 -4.854117136894433 38.91926767228988 -3.809104798427297 37.070764443261105 -2.714527848565633 35.06585166680043 -1.6199508987039686 33.06093889033974 -0.4130647147109159 30.975243884029467 0.7938214692821368 28.889548877719193 2.1014241712211277 26.368660975219157 3.4090268731601188 23.847773072719125 5.0166526066759065 21.022083575347317 6.624278340191694 18.196394077975512 7.717958569354939 16.095763891664774 8.811638798518183 13.995133705354032 9.685935605882516 11.27743127875073 10.560232413246847 8.559728852147424 11.285937664178553 6.177169550688094 12.011642915110258 3.7946102492287643 12.515283539771001 1.8032265400788166 13.018924164431747 -0.18815716907113123 13.598698405548024 -2.3691293731434486 14.178472646664304 -4.5501015772157665 15.010595582592254 -6.658928529960827 15.842718518520204 -8.767755482705887 16.73351562855091 -10.398623746897865 17.624312738581615 -12.029492011089845 18.55769278680097 -13.439792368935972 19.49107283502033 -14.850092726782101 20.61131796368683 -16.38493724529193 21.731563092353333 -17.91978176380176 22.858429966779205 -19.08209250161265 23.985296841205077 -20.244403239423537 25.451970358233545 -21.57235732808808 26.91864387526201 -22.900311416752622 29.001007408982176 -24.447026306166276 31.083370942702345 -25.99374119557993 33.921633206628776 -26.59884513606471 36.75989547055521 -27.203949076549492 38.653503555270575 -26.504833534568604 40.54711163998595 -25.805717992587713 42.02156310191231 -24.10698391173179 43.496014563838656 -22.408249830875867 44.54984233998624 -20.786284158209433 45.60367011613383 -19.164318485543 46.292458853607094 -17.5932514871457 46.98124759108036 -16.0221844887484 47.67252647827941 -14.15266447026054 48.363805365478456 -12.283144451772678 49.219739803501724 -9.789249776839707 50.075674241525 -7.295355101906736 50.64888377521136 -4.681490170547702 51.22209330889771 -2.067625239188669 51.5410039617734 0.9632980360089991 51.85991461464909 3.994221311206667 52.07716894577353 5.967808171198779 52.294423276897966 7.9413950311908925 52.81069232493661 11.075596906758225 53.32696137297526 14.209798782325556 53.624815724542536 16.43032005596806 53.92267007610981 18.65084132961056 54.010052028211746 20.644865418872243 54.097433980313674 22.63888950813393 54.199841625797006 25.184037095834555 54.302249271280346 27.72918468353518 54.408873353803855 30.124276412829147 54.515497436327365 32.51936814212311 54.62453697030851 34.24442952152851 54.73357650428966 35.969490900933906 55.00392948758015 38.15756876805504 55.27428247087064 40.34564663517619 55.9275901519592 43.15578003822783 56.580897833047764 45.96591344127947 58.97714105746908 46.815603962740525 61.3733842818904 47.66529448420159 63.25955723932758 47.316194936123864 65.14573019676476 46.96709538804614 66.8375216241453 46.41694122507366 68.52931305152582 45.86678706210117 69.97111009198868 44.617105071269506 71.41290713245154 43.367423080437845 71.96324942877078 41.724629842517444 72.51359172509002 40.081836604597044 71.83269659887581 37.747291683933085 71.1518014726616 35.41274676326913 69.17221066049379 34.69494094063236 67.19261984832596 33.97713511799558 65.17075087814605 34.017233635113676 63.14888190796614 34.05733215223177 60.60624795593475 34.37548828113036 58.06361400390335 34.69364441002895 56.26782799407994 35.093711585780156 54.47204198425652 35.49377876153135 52.17910409791947 36.406597188503156 49.88616621158242 37.31941561547495 48.0819253367368 38.06499657691909 46.277684461891184 38.81057753836323 44.818039957035104 39.32175955360643 43.358395452179025 39.83294156884963 40.86451069855789 40.27566641094347 38.370625944936755 40.718391253037325 36.186846806565285 40.9283979408259 34.00306766819381 41.13840462861449 32.307766811375735 41.1660580064086 30.612465954557663 41.19371138420271 28.109566088254113 40.81927327161854 25.606666221950558 40.44483515903438 23.842267728207133 39.60919741894306 22.077869234463712 38.77355967885174 19.721089080726784 36.69155127655614 17.364308926989857 34.60954287426053 15.779347984079628 32.580284928889796 14.1943870411694 30.55102698351905 13.241569509486425 28.665804062093294 12.28875197780345 26.780581140667536 11.253759908887496 24.320368871070322 10.21876783997154 21.860156601473104 8.739017369759809 20.133365704149142 7.259266899548079 18.406574806825176 5.6559906814729635 18.062394473915745 4.052714463397848 17.718214141006314 2.1858884497743585 18.095905017120756 0.3190624361508686 18.4735958932352 -1.206559074471118 19.0969321393796 -2.7321805850931047 19.720268385524 -4.0124305085921375 20.811066575873298 -5.292680432091171 21.901864766222594 -6.371409643123673 23.468851436611743 -7.450138854156177 25.03583810700089 -8.552193011337863 26.53527852976839 -9.65424716851955 28.03471895253589 -11.177541129497222 29.754082132825644 -12.700835090474893 31.473445313115395 -13.988351921475797 32.97206893994953 -15.2758687524767 34.47069256678366 -16.712338571628372 36.15870819168859 -18.148808390780047 37.84672381659352 -19.625459658436398 39.26625047497595 -21.102110926092752 40.68577713335837 -22.51382932814674 41.66429798057326 -23.92554773020073 42.64281882778815 -25.82130991408482 43.57215950683224 -27.71707209796891 44.50150018587634 -30.074867285593236 44.80809031723749 -32.43266247321756 45.11468044859865 -34.36433150445562 44.89156229968959 -36.29600053569368 44.66844415078053 -37.732040573606895 44.060228622168836 -39.168080611520104 43.45201309355715 -40.45397860743346 42.406912027900034 -41.73987660334682 41.36181096224293 -42.5515994014834 39.656855747639085 -43.36332219961999 37.95190053303524 -43.52268476676967 35.843467578041555 -43.682047333919364 33.73503462304787 -43.35461602438767 31.663687692894804 -43.02718471485596 29.59234076274174 -41.83764817527083 27.237257318826842 -40.648111635685694 24.882173874911942 -38.97286779291625 23.53430314372644 -37.2976239501468 22.18643241254094 -35.066659914230655 22.110035388081265 -32.8356958783145 22.033638363621595 -31.40706982522903 22.88606698928175 -29.97844377214356 23.738495614941904 -28.385099239588364 24.632092785939385 -26.791754707033167 25.525689956936862 -24.886906489408712 26.293171458314568 -22.982058271784258 27.06065295969227 -20.956436782519056 27.9032195475005 -18.930815293253854 28.745786135308723 -17.49100628880423 29.841154197236868 -16.051197284354608 30.936522259165013 -15.0627056213565 32.623485262250455 -14.074213958358392 34.3104482653359 -13.668131324107367 36.64329177131633 -13.262048689856345 38.97613527729676 -13.1473636550778 40.796255821086746 -13.032678620299254 42.61637636487672 -12.933094001020491 44.81830958147917 -12.833509381741727 47.02024279808161 -12.205172614229864 49.46373644181794 -11.576835846718001 51.90723008555428 -10.261465860300643 52.67406225866168 -8.946095873883284 53.44089443176908 -7.241315088679124 53.549613476005646 -5.536534303474964 53.658332520242205 -3.7971407553195027 53.657592711500335 -2.057747207164042 53.656852902758466 0.8991017090967428 53.31627708893244 3.8559506253575275 52.97570127510641 5.865318356060207 51.78879600401453 7.874686086762888 50.601890732922655 8.32311978906571 48.684585381733505 8.771553491368534 46.767280030544356 7.736491692154616 44.88464373366858 6.701429892940698 43.00200743679281 5.782931392300968 40.38389758330779 4.864432891661239 37.765787729822776 4.725969090269617 35.70190809490688 4.587505288877994 33.63802845999098 5.411866160144014 30.968425614732023 6.236227031410035 28.29882276947307 7.335489153735277 26.61258292816752 8.434751276060519 24.926343086861966 9.964116545482693 23.564974274923475 11.493481814904865 22.203605462984985 13.054838661230361 21.02234130388287 14.616195507555858 19.84107714478076 16.42410925026125 18.497924368727205 18.23202299296664 17.15477159267365 19.706310398685503 16.024719109014722 21.180597804404364 14.894666625355791 22.661770947611288 13.223188436678818 24.142944090818215 11.551710248001847 25.328976103998784 9.377856761595627 26.515008117179352 7.204003275189406 26.784287036461066 5.455808656500723 27.053565955742783 3.7076140378120406 26.65336258211037 1.7758169036634 26.25315920847795 -0.15598023048524068 23.413332922527516 -2.288480370836597 20.573506636577086 -4.420980511187953 18.14904794857933 -4.953445541331863 15.724589260581572 -5.485910571475774 14.078178706509899 -5.241671116927606 12.431768152438227 -4.997431662379438 9.931807560029121 -3.379033426500805 7.4318469676200145 -1.7606351906221716 4.979600688533246 -0.12479477044259668 2.527354409446478 1.5110456497369782 1.862478107363153 1.8820376744765692 1.1976018052798278 2.2530296992161603 0.4210921940345598 2.3898508469879176 -0.3554174172107083 2.526671994759675 -1.064048341865582 2.1809417307435823 -1.7726792665204556 1.8352114667274897 -2.142758576846039 1.13898700083822 -2.5128378871716226 0.4427625349489499 -2.403007865156663 -0.33802205064303736 -2.293177843141703 -1.1188066362350246 -1.0805135221274405 -2.0569101924651836 Z"></path></g></svg>